<svg width="32" height="32" viewBox="0 0 32 32" fill="none" xmlns="http://www.w3.org/2000/svg">
<path d="M13.402 3.37338L5.37531 8.61338C2.80198 10.2934 2.80198 14.0534 5.37531 15.7334L13.402 20.9734C14.842 21.92 17.2153 21.92 18.6553 20.9734L26.642 15.7334C29.202 14.0534 29.202 10.3067 26.642 8.62671L18.6553 3.38671C17.2153 2.42671 14.842 2.42671 13.402 3.37338Z" stroke="white" stroke-width="2" stroke-linecap="round" stroke-linejoin="round"/>
<path d="M7.51077 17.4399L7.49744 23.6933C7.49744 25.3866 8.8041 27.1999 10.4041 27.7333L14.6574 29.1466C15.3908 29.3866 16.6041 29.3866 17.3508 29.1466L21.6041 27.7333C23.2041 27.1999 24.5108 25.3866 24.5108 23.6933V17.5066" stroke="white" stroke-width="2" stroke-linecap="round" stroke-linejoin="round"/>
<path d="M28.5338 20V12" stroke="white" stroke-width="2" stroke-linecap="round" stroke-linejoin="round"/>
</svg>
