<svg width="24" height="24" viewBox="0 0 24 24" fill="none" xmlns="http://www.w3.org/2000/svg">
<path d="M11.5529 6.2384C11.7356 5.86827 12.2633 5.86827 12.446 6.2384L13.4848 8.3431C13.5573 8.49008 13.6975 8.59195 13.8597 8.61552L16.1824 8.95302C16.5908 9.01238 16.7539 9.51434 16.4584 9.80245L14.7777 11.4407C14.6603 11.5551 14.6067 11.72 14.6345 11.8815L15.0312 14.1948C15.101 14.6016 14.674 14.9119 14.3086 14.7198L12.2312 13.6276C12.0861 13.5513 11.9128 13.5513 11.7677 13.6276L9.69025 14.7198C9.32491 14.9119 8.89791 14.6016 8.96769 14.1948L9.36445 11.8815C9.39215 11.72 9.33859 11.5551 9.22122 11.4407L7.54052 9.80245C7.24495 9.51434 7.40805 9.01238 7.81652 8.95302L10.1392 8.61552C10.3014 8.59195 10.4416 8.49008 10.5141 8.3431L11.5529 6.2384Z" fill="white"/>
<path fill-rule="evenodd" clip-rule="evenodd" d="M13.5329 20.0755C13.8331 19.5175 14.3638 19.1295 14.9597 18.9144C18.3159 17.7026 20.7149 14.4889 20.7149 10.7149C20.7149 5.9018 16.8131 2 11.9999 2C7.18683 2 3.28503 5.9018 3.28503 10.7149C3.28503 14.49 5.68531 17.7044 9.04297 18.9154C9.6392 19.1304 10.1702 19.5184 10.4705 20.0765L11.2706 21.5633C11.584 22.1456 12.4191 22.1455 12.7324 21.5633L13.5329 20.0755ZM18.8059 10.7149C18.8059 14.4737 15.7588 17.5208 11.9999 17.5208C8.24113 17.5208 5.19402 14.4737 5.19402 10.7149C5.19402 6.9561 8.24113 3.90898 11.9999 3.90898C15.7588 3.90898 18.8059 6.9561 18.8059 10.7149Z" fill="white"/>
</svg>
