<svg width="24" height="24" viewBox="0 0 24 24" fill="none" xmlns="http://www.w3.org/2000/svg">
<path d="M11.553 6.2384C11.7357 5.86827 12.2635 5.86827 12.4461 6.2384L13.4849 8.3431C13.5574 8.49008 13.6976 8.59195 13.8598 8.61552L16.1825 8.95302C16.591 9.01238 16.7541 9.51434 16.4585 9.80245L14.7778 11.4407C14.6604 11.5551 14.6069 11.72 14.6346 11.8815L15.0313 14.1948C15.1011 14.6016 14.6741 14.9119 14.3088 14.7198L12.2313 13.6276C12.0862 13.5513 11.9129 13.5513 11.7678 13.6276L9.69037 14.7198C9.32503 14.9119 8.89803 14.6016 8.96781 14.1948L9.36457 11.8815C9.39227 11.72 9.33872 11.5551 9.22135 11.4407L7.54065 9.80245C7.24508 9.51434 7.40817 9.01238 7.81664 8.95302L10.1393 8.61552C10.3015 8.59195 10.4417 8.49008 10.5143 8.3431L11.553 6.2384Z" fill="#191919"/>
<path fill-rule="evenodd" clip-rule="evenodd" d="M13.533 20.0755C13.8332 19.5175 14.3639 19.1295 14.9598 18.9144C18.316 17.7026 20.715 14.4889 20.715 10.7149C20.715 5.9018 16.8132 2 12.0001 2C7.18696 2 3.28516 5.9018 3.28516 10.7149C3.28516 14.49 5.68544 17.7044 9.04309 18.9154C9.63932 19.1304 10.1703 19.5184 10.4706 20.0765L11.2708 21.5633C11.5841 22.1456 12.4193 22.1455 12.7326 21.5633L13.533 20.0755ZM18.806 10.7149C18.806 14.4737 15.7589 17.5208 12.0001 17.5208C8.24126 17.5208 5.19414 14.4737 5.19414 10.7149C5.19414 6.9561 8.24126 3.90898 12.0001 3.90898C15.7589 3.90898 18.806 6.9561 18.806 10.7149Z" fill="#191919"/>
</svg>
