<svg width="34" height="34" viewBox="0 0 34 34" fill="none" xmlns="http://www.w3.org/2000/svg">
<path d="M12.7493 14.1667C14.3142 14.1667 15.5827 12.8981 15.5827 11.3333C15.5827 9.76853 14.3142 8.5 12.7493 8.5C11.1845 8.5 9.91602 9.76853 9.91602 11.3333C9.91602 12.8981 11.1845 14.1667 12.7493 14.1667Z" stroke="#191919" stroke-width="2.5" stroke-linecap="round" stroke-linejoin="round"/>
<path d="M18.4173 2.83325H12.7507C5.66732 2.83325 2.83398 5.66659 2.83398 12.7499V21.2499C2.83398 28.3333 5.66732 31.1666 12.7507 31.1666H21.2507C28.334 31.1666 31.1673 28.3333 31.1673 21.2499V14.1666" stroke="#191919" stroke-width="2.5" stroke-linecap="round" stroke-linejoin="round"/>
<path d="M22.3125 7.08325H30.1042" stroke="#191919" stroke-width="2.5" stroke-linecap="round"/>
<path d="M26.209 10.9792V3.1875" stroke="#191919" stroke-width="2.5" stroke-linecap="round"/>
<path d="M3.7832 26.846L10.7674 22.1568C11.8865 21.406 13.5015 21.491 14.5074 22.3551L14.9749 22.766C16.0799 23.7151 17.8649 23.7151 18.9699 22.766L24.8632 17.7085C25.9682 16.7593 27.7532 16.7593 28.8582 17.7085L31.1674 19.6918" stroke="#191919" stroke-width="2.5" stroke-linecap="round" stroke-linejoin="round"/>
</svg>
