<svg width="32" height="32" viewBox="0 0 32 32" fill="none" xmlns="http://www.w3.org/2000/svg">
<path d="M28.6826 14.584L28.6943 14.7217C28.7242 15.075 28.751 15.4335 28.751 15.8008C28.751 22.8128 23.3544 28.751 15.8008 28.751C10.5857 28.7509 6.09508 25.6467 4.04395 21.1973L3.94531 20.9844H5.4541L5.49609 21.0664C7.1711 24.3306 10.3443 26.6995 14.1055 27.2539C13.2235 26.2247 12.0266 24.6371 11.04 22.6797L10.9561 22.5117L11.1367 22.4658C11.473 22.381 11.7925 22.2459 12.0723 22.0537L12.2129 21.957L12.291 22.1094C13.4992 24.4764 15.0394 26.2767 15.7988 27.0879C16.6441 26.1857 18.4593 24.0582 19.7041 21.2842H12.9062L13.0459 21.0557C13.2353 20.7467 13.3657 20.4031 13.4404 20.0381L13.4648 19.918H20.2461C20.6367 18.7816 20.8996 17.5673 20.959 16.3066L20.9668 16.1396L21.1318 16.166C21.4578 16.2173 21.7983 16.148 22.1445 16.0566L22.3398 16.0059L22.333 16.207C22.2901 17.5069 22.0519 18.7509 21.6904 19.918H26.6152C27.1055 18.6359 27.3848 17.2513 27.3848 15.8008C27.3848 15.4467 27.3657 15.0949 27.333 14.748L27.3174 14.584H28.6826ZM21.2041 21.2842C20.1447 23.8903 18.5789 25.9911 17.4941 27.2539C21.1718 26.7126 24.2852 24.436 25.9883 21.2842H21.2041ZM5.13281 11.3848L9.39941 11.3867C10.6586 11.387 11.6826 12.4107 11.6826 13.6709L11.6797 19.3828C11.6797 19.8416 11.4563 20.2597 11.085 20.5117L10.917 20.6084C10.7241 20.7042 10.5155 20.751 10.3096 20.751C10.0157 20.7509 9.72337 20.6552 9.47852 20.4678V20.4668L7.76465 19.1504H2.84961V13.667C2.84961 13.0578 3.08752 12.484 3.51855 12.0527L3.51953 12.0518C3.95061 11.622 4.52382 11.3849 5.13184 11.3848H5.13281ZM5.13477 12.751C4.92024 12.751 4.71746 12.8242 4.55469 12.958L4.4873 13.0186C4.31456 13.1924 4.21875 13.4225 4.21875 13.667V17.7832H8.22852L8.26855 17.8145L10.3027 19.376C10.3072 19.3788 10.3119 19.3793 10.3154 19.3809L10.3174 13.6709L10.3135 13.5771C10.2665 13.115 9.87538 12.7531 9.40137 12.7529L5.13477 12.751ZM26.4678 4.98535C27.0761 4.98536 27.6498 5.22324 28.0811 5.65332L28.2334 5.82129C28.5681 6.22826 28.7509 6.73412 28.751 7.26758V12.751H23.8369L22.1221 14.0684C21.8771 14.256 21.5842 14.3525 21.29 14.3525C21.1356 14.3525 20.9797 14.326 20.8301 14.2725L20.6826 14.21C20.2125 13.9778 19.9201 13.5075 19.9199 12.9834L19.918 7.27246C19.918 6.01306 20.9419 4.98845 22.2012 4.9873L26.4678 4.98535ZM22.2021 6.35449C21.6964 6.35449 21.2852 6.76631 21.2852 7.27246L21.2871 12.9814C21.2905 12.9799 21.2947 12.9791 21.2988 12.9766L23.334 11.415L23.375 11.3848H27.3867V7.50977L27.3848 7.51074V7.26758C27.3847 7.02286 27.2894 6.79352 27.1162 6.62012C26.9439 6.44777 26.7138 6.35254 26.4688 6.35254L22.2021 6.35449ZM15.8008 2.84961C17.2549 2.84961 18.6488 3.09945 19.9531 3.54395L20.2471 3.64453L19.9854 3.8125C19.643 4.03229 19.3435 4.30822 19.0771 4.62109L19.0146 4.69434L18.9219 4.66895C18.4554 4.53733 17.9836 4.42656 17.501 4.35059C17.7786 4.6761 18.0879 5.05879 18.4102 5.4834L18.4629 5.55371L18.4277 5.63379C18.2471 6.04716 18.1485 6.50248 18.1143 6.98047L18.084 7.4043L17.8408 7.05566C17.0374 5.89955 16.2669 5.01344 15.7988 4.5127C14.9645 5.40356 13.1895 7.49353 11.9473 10.2168L11.9014 10.3164H18.084V11.6836H12.9854L12.9424 11.6094C12.7149 11.2202 12.4283 10.8744 12.0908 10.5801L11.8135 10.3379L11.7256 10.2773C11.4424 10.0828 11.1261 9.93329 10.791 9.81152L10.6387 9.75684L10.7061 9.6084C11.7405 7.33795 13.1136 5.49786 14.1016 4.34668C10.762 4.84085 7.89483 6.77168 6.12012 9.4834L6.0752 9.55078H5.13184C5.00035 9.55083 4.88914 9.57504 4.73145 9.59082L4.44043 9.62012L4.58594 9.36719C6.82142 5.48207 11.0021 2.84971 15.8008 2.84961Z" fill="white" stroke="white" stroke-width="0.3"/>
</svg>
