<svg width="32" height="33" viewBox="0 0 32 33" fill="none" xmlns="http://www.w3.org/2000/svg">
<path d="M28.6826 15.1445L28.6943 15.2822C28.7242 15.6355 28.751 15.994 28.751 16.3613C28.751 23.3734 23.3544 29.3115 15.8008 29.3115C10.5857 29.3114 6.09508 26.2073 4.04395 21.7578L3.94531 21.5449H5.4541L5.49609 21.627C7.1711 24.8912 10.3443 27.2601 14.1055 27.8145C13.2235 26.7853 12.0266 25.1977 11.04 23.2402L10.9561 23.0723L11.1367 23.0264C11.473 22.9415 11.7925 22.8065 12.0723 22.6143L12.2129 22.5176L12.291 22.6699C13.4992 25.0369 15.0394 26.8373 15.7988 27.6484C16.6441 26.7463 18.4593 24.6187 19.7041 21.8447H12.9062L13.0459 21.6162C13.2353 21.3073 13.3657 20.9637 13.4404 20.5986L13.4648 20.4785H20.2461C20.6367 19.3422 20.8996 18.1279 20.959 16.8672L20.9668 16.7002L21.1318 16.7266C21.4578 16.7778 21.7983 16.7085 22.1445 16.6172L22.3398 16.5664L22.333 16.7676C22.2901 18.0674 22.0519 19.3115 21.6904 20.4785H26.6152C27.1055 19.1965 27.3848 17.8119 27.3848 16.3613C27.3848 16.0073 27.3657 15.6554 27.333 15.3086L27.3174 15.1445H28.6826ZM21.2041 21.8447C20.1447 24.4508 18.5789 26.5516 17.4941 27.8145C21.1718 27.2732 24.2852 24.9966 25.9883 21.8447H21.2041ZM5.13281 11.9453L9.39941 11.9473C10.6586 11.9475 11.6826 12.9712 11.6826 14.2314L11.6797 19.9434C11.6797 20.4022 11.4563 20.8202 11.085 21.0723L10.917 21.1689C10.7241 21.2647 10.5155 21.3115 10.3096 21.3115C10.0157 21.3115 9.72337 21.2157 9.47852 21.0283V21.0273L7.76465 19.7109H2.84961V14.2275C2.84961 13.6183 3.08752 13.0445 3.51855 12.6133L3.51953 12.6123C3.95061 12.1826 4.52382 11.9454 5.13184 11.9453H5.13281ZM5.13477 13.3115C4.92024 13.3115 4.71746 13.3848 4.55469 13.5186L4.4873 13.5791C4.31456 13.7529 4.21875 13.983 4.21875 14.2275V18.3438H8.22852L8.26855 18.375L10.3027 19.9365C10.3072 19.9393 10.3119 19.9398 10.3154 19.9414L10.3174 14.2314L10.3135 14.1377C10.2665 13.6755 9.87538 13.3136 9.40137 13.3135L5.13477 13.3115ZM26.4678 5.5459C27.0761 5.54591 27.6498 5.78379 28.0811 6.21387L28.2334 6.38184C28.5681 6.7888 28.7509 7.29466 28.751 7.82812V13.3115H23.8369L22.1221 14.6289C21.8771 14.8165 21.5842 14.9131 21.29 14.9131C21.1356 14.9131 20.9797 14.8865 20.8301 14.833L20.6826 14.7705C20.2125 14.5384 19.9201 14.0681 19.9199 13.5439L19.918 7.83301C19.918 6.57361 20.9419 5.54899 22.2012 5.54785L26.4678 5.5459ZM22.2021 6.91504C21.6964 6.91504 21.2852 7.32686 21.2852 7.83301L21.2871 13.542C21.2905 13.5405 21.2947 13.5397 21.2988 13.5371L23.334 11.9756L23.375 11.9453H27.3867V8.07031L27.3848 8.07129V7.82812C27.3847 7.5834 27.2894 7.35407 27.1162 7.18066C26.9439 7.00832 26.7138 6.91309 26.4688 6.91309L22.2021 6.91504ZM15.8008 3.41016C17.2549 3.41016 18.6488 3.66 19.9531 4.10449L20.2471 4.20508L19.9854 4.37305C19.643 4.59283 19.3435 4.86876 19.0771 5.18164L19.0146 5.25488L18.9219 5.22949C18.4554 5.09788 17.9836 4.98711 17.501 4.91113C17.7786 5.23665 18.0879 5.61933 18.4102 6.04395L18.4629 6.11426L18.4277 6.19434C18.2471 6.60771 18.1485 7.06303 18.1143 7.54102L18.084 7.96484L17.8408 7.61621C17.0374 6.4601 16.2669 5.57398 15.7988 5.07324C14.9645 5.96411 13.1895 8.05407 11.9473 10.7773L11.9014 10.877H18.084V12.2441H12.9854L12.9424 12.1699C12.7149 11.7808 12.4283 11.4349 12.0908 11.1406L11.8135 10.8984L11.7256 10.8379C11.4424 10.6434 11.1261 10.4938 10.791 10.3721L10.6387 10.3174L10.7061 10.1689C11.7405 7.89849 13.1136 6.0584 14.1016 4.90723C10.762 5.4014 7.89483 7.33223 6.12012 10.0439L6.0752 10.1113H5.13184C5.00035 10.1114 4.88914 10.1356 4.73145 10.1514L4.44043 10.1807L4.58594 9.92773C6.82142 6.04262 11.0021 3.41026 15.8008 3.41016Z" fill="#191919" stroke="#191919" stroke-width="0.3"/>
</svg>
