<svg width="49" height="48" viewBox="0 0 49 48" fill="none" xmlns="http://www.w3.org/2000/svg">
<path d="M18.5 43.9934H30.5C40.5 43.9934 44.5 39.9934 44.5 29.9934V17.9934C44.5 7.99341 40.5 3.99341 30.5 3.99341H18.5C8.5 3.99341 4.5 7.99341 4.5 17.9934V29.9934C4.5 39.9934 8.5 43.9934 18.5 43.9934Z" stroke="#191919" stroke-width="2.5" stroke-linecap="round" stroke-linejoin="round"/>
<path d="M18.5 19.9934C20.7091 19.9934 22.5 18.2025 22.5 15.9934C22.5 13.7843 20.7091 11.9934 18.5 11.9934C16.2909 11.9934 14.5 13.7843 14.5 15.9934C14.5 18.2025 16.2909 19.9934 18.5 19.9934Z" stroke="#191919" stroke-width="2.5" stroke-linecap="round" stroke-linejoin="round"/>
<path d="M5.83984 37.8935L15.6998 31.2735C17.2798 30.2135 19.5598 30.3335 20.9798 31.5535L21.6398 32.1335C23.1998 33.4735 25.7198 33.4735 27.2798 32.1335L35.5998 24.9935C37.1598 23.6535 39.6798 23.6535 41.2398 24.9935L44.4998 27.7935" stroke="#191919" stroke-width="2.5" stroke-linecap="round" stroke-linejoin="round"/>
</svg>
