<svg width="49" height="48" viewBox="0 0 49 48" fill="none" xmlns="http://www.w3.org/2000/svg">
<path d="M42.5 14V34C42.5 40 39.5 44 32.5 44H16.5C9.5 44 6.5 40 6.5 34V14C6.5 8 9.5 4 16.5 4H32.5C39.5 4 42.5 8 42.5 14Z" stroke="#191919" stroke-width="2.5" stroke-miterlimit="10" stroke-linecap="round" stroke-linejoin="round"/>
<path d="M29.5 9V13C29.5 15.2 31.3 17 33.5 17H37.5" stroke="#191919" stroke-width="2.5" stroke-miterlimit="10" stroke-linecap="round" stroke-linejoin="round"/>
<path d="M15.4622 30.9802C14.8022 28.9202 15.5822 26.3802 17.7222 25.6802C18.8622 25.3202 20.2622 25.6202 21.0422 26.7202C21.7822 25.5802 23.2422 25.3202 24.3622 25.6802C26.5222 26.3802 27.2822 28.9202 26.6422 30.9802C25.6222 34.2402 22.0422 35.9401 21.0422 35.9401C20.0622 35.9201 16.5222 34.2602 15.4622 30.9802Z" stroke="#191919" stroke-width="2.5" stroke-linecap="round" stroke-linejoin="round"/>
</svg>
