<svg width="61" height="61" viewBox="0 0 61 61" fill="none" xmlns="http://www.w3.org/2000/svg">
<path d="M44.9268 33.2403L13.9862 33.0402C13.4879 33.0402 13.3432 32.6945 13.6045 32.2712C16.5043 27.5751 20.8566 25.6226 26.4341 24.7039C26.6831 24.6601 27.0047 24.5494 27.2562 24.5725C27.5175 24.5983 27.6384 24.7553 27.8796 24.8917C29.4135 25.7355 32.2658 25.6978 32.8145 24.1193C32.8145 24.2043 35.6225 24.8169 35.8664 24.8839C40.1747 26.0813 44.2434 28.6388 44.9266 33.2403H44.9268Z" fill="#27272A"/>
<path d="M48.5558 37.0252L9.89972 36.9077L4.82129 49.2631C5.52787 48.8926 8.22128 47.8066 10.2146 46.212C11.7905 44.9537 13.0926 43.2424 13.4601 41.2603C13.5898 40.5652 13.6138 39.8151 14.0223 39.2351C14.4282 38.655 15.4229 38.4298 15.8096 39.0218C16.0763 38.727 16.4102 38.576 16.7656 38.3939C17.5512 37.9967 18.5358 38.2697 18.5211 39.0811C19.2234 37.6607 21.6607 37.9243 21.5899 39.4472C21.5926 39.4657 21.5942 39.484 21.5964 39.5024C23.4663 38.6181 25.6153 38.9763 26.2956 39.5134C26.5119 39.6859 26.6752 39.9448 26.6728 40.2205C26.6728 40.755 26.0553 41.275 25.5989 41.4501C24.871 41.7329 24.1335 41.9006 23.4489 42.2986C21.1858 43.6121 21.1475 46.0805 22.9684 45.0933C23.4248 44.8489 23.8788 44.6043 24.3354 44.3598C24.7487 44.1369 25.2435 43.9117 25.6686 44.1106C26.1202 44.324 26.2452 44.9422 26.0699 45.4072C25.8969 45.8722 25.5029 46.215 25.1233 46.5362C24.0999 47.3941 22.6394 48.5087 20.9889 49.7047L38.1825 49.7573C35.425 47.4104 34.7917 46.9356 34.2354 46.1047C33.2043 44.5555 34.3818 43.4485 35.5687 44.2686C36.1655 44.6784 36.6215 45.44 37.3536 45.5246C37.6442 45.5558 37.9614 45.4502 38.1223 45.2081C38.3001 44.9397 38.252 44.5849 38.1487 44.2806C37.3062 41.7979 33.7943 41.5339 33.5987 40.314C33.5482 39.9977 33.7235 39.6789 33.9759 39.4824C34.6958 38.9215 36.9732 38.7365 38.7662 39.9328C38.634 39.4512 38.9223 38.8639 39.3715 38.6385C39.8184 38.4131 40.3708 38.4611 40.8249 38.672C41.2789 38.8853 41.6513 39.2401 41.9757 39.6236C42.1053 39.3096 42.3385 39.1801 42.6772 39.1514C43.3893 39.091 43.9395 39.6244 44.4093 40.0932C44.8442 39.6413 46.3026 39.592 46.6676 41.3108C46.7732 41.7999 46.7708 42.3056 46.8213 42.8016C46.9774 44.3211 47.6502 45.7832 48.7047 46.8881C49.7881 48.0242 51.0687 48.9614 52.4068 49.8002L53.7161 49.805L48.556 37.0254L48.5558 37.0252Z" fill="#0062A7"/>
<path d="M58.9493 25.6279C57.8363 27.2808 55.3799 27.1706 53.8795 27.3605C52.1297 27.584 50.2318 28.5305 48.7906 29.489C48.3258 27.3838 47.7121 25.2998 46.8949 23.2742C46.7903 23.0111 46.6811 22.7504 46.5671 22.4897C46.2391 21.7265 45.8828 20.9846 45.498 20.2688C45.7854 19.8586 46.2203 19.5837 46.7002 19.4131C47.7085 19.0712 48.7003 19.2171 49.6224 19.176C51.5421 19.1167 53.4402 18.4578 54.9821 17.3153C56.2033 19.9652 57.7262 22.9778 58.9495 25.6277L58.9493 25.6279Z" fill="#CC9000"/>
<path opacity="0.9" d="M48.9399 19.1806C49.0586 19.1806 49.1799 19.183 49.3011 19.1806L49.3866 15.6512C49.3967 15.2663 49.0922 14.9568 48.7048 14.952L44.1077 14.9378C43.8915 14.6131 43.6041 14.3406 43.2524 14.1628C44.8615 13.1029 44.6744 9.46991 40.2851 8.91029C40.9337 7.7466 40.5488 6.11826 39.4489 5.36439C38.4249 4.66517 36.9164 4.81462 36.023 5.6606C35.9138 5.76489 35.738 5.7484 35.6381 5.63462C33.0034 2.56054 29.1738 -0.885905 24.7835 0.206822C23.0896 0.628645 21.5762 1.69055 20.5594 3.10332C19.4951 4.58472 19.4927 6.4383 19.4665 8.21824C19.438 10.1073 19.3764 11.7498 20.0581 13.5158C20.0723 13.9566 20.1081 14.4069 20.165 14.8667L11.8691 14.8382C11.9569 14.6746 12.0401 14.5063 12.1137 14.3334C11.9973 14.5089 11.8714 14.6771 11.7407 14.8382H11.591C11.4276 14.8382 11.3457 15.0384 11.4723 15.1488C10.933 15.7319 10.2892 16.213 9.56452 16.5613C9.48423 16.3879 9.21787 16.4465 9.22236 16.642L9.2247 16.7108C5.08059 18.3992 0.529486 15.3638 0.529486 10.8823C0.529486 10.0172 0.705323 9.19234 1.02125 8.44331C0.377717 9.42708 0.00233491 10.6074 0 11.8731C0 16.6305 5.08202 19.6311 9.23673 17.4455L9.59541 36.6705C9.60259 37.0474 9.89948 37.3412 10.2749 37.3412L48.1795 37.4574C48.5525 37.4574 48.8541 37.1658 48.8636 36.7938L49.0513 29.3228C48.9634 29.3773 48.8754 29.4318 48.7899 29.4888C48.7591 29.3488 48.7282 29.2116 48.6949 29.0716L48.5026 36.7843C48.4979 36.9621 48.3553 37.0995 48.1795 37.0995L10.2749 36.9811C10.099 36.9811 9.95894 36.8411 9.95409 36.6634L9.59289 17.2416C10.4315 16.7296 11.1418 16.0304 11.6622 15.1961L20.2124 15.2246C20.3265 16.0044 20.4975 16.7913 20.7232 17.5734L12.2965 17.5473C11.8676 17.5638 11.6126 17.8834 11.6218 18.23L12.2252 34.2623C12.2394 34.6155 12.5316 34.8952 12.8928 34.8976L45.742 34.9995C46.1032 34.9995 46.4001 34.7223 46.4143 34.3691L46.8942 23.274C46.7896 23.0109 46.6804 22.7502 46.5664 22.4894L46.0556 34.355C46.0484 34.5137 45.9106 34.6394 45.7443 34.6394L12.8952 34.5399C12.7265 34.5376 12.5911 34.4095 12.5862 34.2507L11.9828 18.2184C11.9777 18.0451 12.109 17.9135 12.294 17.9078L20.8276 17.934C21.1335 18.8932 21.4794 19.9193 22.265 20.5981C23.354 21.5467 25.1299 21.6259 26.5673 21.4655L26.717 25.4404C26.7204 25.5782 26.879 25.6348 26.9023 25.611C27.002 25.6087 27.0805 25.5257 27.0758 25.4263L26.9262 21.4182C28.8433 21.122 30.6894 20.2545 32.1029 18.9437C32.2793 18.7792 32.0265 18.5181 31.8582 18.6807C28.6716 21.6356 24.025 21.648 22.5003 20.328C21.8921 19.7994 21.5618 18.9982 21.3195 18.2825C20.0105 14.413 19.892 9.83618 22.5098 6.76318C23.4215 6.33043 24.7134 6.38634 26.3157 5.45721C26.5199 5.33877 26.7742 5.4074 26.9215 5.59466C27.976 6.94166 29.7371 7.33696 31.2287 6.70387C31.4996 6.58775 31.8108 6.72286 31.8868 7.00724C32.1553 8.03349 32.4046 9.06457 32.6304 10.1003C32.7182 10.4985 32.8134 13.0513 33.1816 13.459C33.2143 13.6548 33.4884 13.6665 33.5356 13.4731C33.6924 12.7952 34.4599 12.2974 35.144 12.4325C36.9369 12.7884 36.4569 15.2339 35.3886 16.0542C34.5619 16.6895 33.4525 16.9644 32.4213 16.7866C32.1832 16.7472 32.1259 17.1 32.3595 17.1398C32.4736 17.1611 32.59 17.1706 32.7064 17.1824C32.6968 17.2014 32.6897 17.2204 32.6873 17.2441C32.5048 19.1971 32.0914 23.0381 32.97 24.6771C33.0149 24.7634 33.1252 24.798 33.2123 24.7505C33.3001 24.7032 33.3336 24.5941 33.286 24.5065C32.768 23.5395 32.7396 21.6978 32.8441 19.8537C33.9512 20.4841 35.3346 19.8166 35.5524 18.5832C35.9729 19.6664 37.1299 20.4178 38.294 20.3608C39.4557 20.3015 40.5366 19.4435 40.8503 18.3248C41.7626 18.9174 43.0646 18.7348 43.8486 18.0048L46.4405 18.0142C46.6205 18.0142 46.7566 18.1601 46.7469 18.3248L46.6993 19.4127C46.818 19.3724 46.9416 19.3369 47.0652 19.3084L47.1079 18.3389C47.1226 17.9695 46.8241 17.6539 46.4403 17.6539L44.1596 17.6467C44.6444 16.9407 44.6383 16.0363 44.3046 15.2978L48.7045 15.312C48.8846 15.312 49.0324 15.4616 49.0276 15.6439C48.9076 20.469 48.9397 18.8328 48.9397 19.1803L48.9399 19.1806ZM23.2085 3.85468C21.9588 4.2102 20.9278 5.30042 20.6379 6.56625C20.5839 6.80207 20.2349 6.71641 20.2862 6.48794C20.6022 5.09667 21.7378 3.90199 23.111 3.50848C23.3407 3.44558 23.4395 3.78694 23.2083 3.8545L23.2085 3.85468ZM41.1474 14.3334C40.9983 14.5218 40.7151 14.294 40.8696 14.1058C42.5275 12.0706 41.163 10.3444 39.9597 10.7424C39.867 10.7755 39.7673 10.721 39.7316 10.6286C39.7007 10.5361 39.7506 10.4318 39.8456 10.401C41.3877 9.88206 43.0504 12.0175 41.1474 14.3332V14.3334Z" fill="white"/>
<path d="M60.9131 55.3414C58.2459 53.7099 55.8369 52.1145 53.443 50.4351C53.5107 50.2052 53.5844 49.9798 53.6724 49.8231C53.7884 49.616 53.4748 49.4395 53.3577 49.6475C53.2683 49.8068 53.1977 50.0045 53.1321 50.2168C52.064 49.4633 51.0018 48.6953 49.9566 47.9153C48.2735 46.6598 47.242 45.0539 47.0522 43.3929C46.9319 42.3468 47.1061 40.8889 46.1337 40.0511C45.6466 39.6261 44.958 39.5421 44.4621 39.8214C43.7546 39.0061 42.4311 38.4794 41.7952 39.3431C40.286 37.789 38.4949 38.5223 38.5486 39.6686C37.67 39.1428 36.659 38.8401 35.623 38.8188C34.9624 38.8009 34.4555 38.919 34.0629 39.1808C33.5773 39.5051 33.3409 39.8585 33.3605 40.2312C33.4451 41.8488 37.6299 42.2031 38.0524 44.7204C38.1102 45.0675 37.7724 45.3564 37.4473 45.2392C36.5596 44.9197 35.9378 44.4072 35.9046 44.3855C35.4301 44.0262 34.7127 43.4838 34.0058 43.9269C33.6741 44.1353 33.476 44.5158 33.476 44.9444C33.4734 45.9909 34.2637 46.7358 35.073 47.409C36.5349 48.6279 37.9866 49.8767 39.4497 51.1739L19.0613 51.2011C20.8845 49.8726 22.6741 48.6154 24.4774 47.3963C25.351 46.8057 26.2126 46.1423 26.3168 45.1042C26.3611 44.6769 26.2023 44.2782 25.8923 44.0384C25.2316 43.5236 24.463 43.9945 23.9544 44.3063C23.9071 44.3307 23.2877 44.7589 22.3357 44.9983C22.0008 45.0824 21.6926 44.7605 21.7847 44.4206C22.4616 41.9585 26.6605 42.0255 26.9082 40.4262C26.9653 40.0576 26.7661 39.6825 26.3162 39.3112C25.9522 39.0116 25.4555 38.8421 24.7989 38.7932C23.7654 38.7106 22.7285 38.9107 21.801 39.3462C21.9715 38.2137 20.2641 37.3 18.6047 38.695C18.0612 37.7738 16.694 38.158 15.9014 38.9052C15.3984 38.549 14.6754 38.6387 14.2176 38.9643C13.1558 39.7098 13.18 41.227 12.9663 42.1968C12.5544 44.0807 11.1603 45.4829 9.48582 46.4848C8.71009 46.3747 8.10966 46.8525 8.12475 47.2901C5.50228 48.8214 2.9082 50.2324 0.181379 51.6058C-0.0336123 51.7142 0.132885 52.033 0.343745 51.9269C3.35883 50.408 6.36189 48.7688 9.55659 46.8609C10.4122 47.0424 11.2438 47.3354 12.0359 47.7255C11.6512 48.2453 11.5154 49.0675 12.366 49.7468C13.0374 50.2828 14.1673 50.3466 14.9391 49.7721C15.4413 50.2631 15.8966 50.798 16.2898 51.3676C16.4843 51.6497 16.7725 52.0079 16.8909 52.3561C12.9876 55.2726 7.58826 59.619 7.41583 59.8053H3.21173C2.97321 59.8053 2.97339 60.1648 3.21173 60.1648H27.0478C27.2863 60.1648 27.2861 59.8053 27.0478 59.8053H7.97801C10.7971 57.5039 13.3936 55.4531 15.8795 53.5679C16.2025 53.747 16.8587 53.6437 17.1592 53.1639C17.2957 52.946 17.3268 52.7223 17.2963 52.5021C17.7225 52.1844 18.1464 51.8706 18.5677 51.5615L39.8535 51.533C42.6787 54.0518 45.5561 56.7615 48.6412 59.8053H34.2718C34.0333 59.8053 34.0335 60.1648 34.2718 60.1648H53.482C53.7205 60.1648 53.7205 59.8053 53.482 59.8053H49.154C35.8782 46.6776 33.8319 46.8539 33.8364 44.9451C33.8364 44.645 33.9749 44.3715 34.1976 44.2316C34.7127 43.9088 35.283 44.3665 35.7615 44.7285C36.2441 45.0921 36.7702 45.3777 37.3248 45.5775C37.91 45.7879 38.5109 45.2795 38.4078 44.6613C38.3232 44.1579 38.0737 43.6494 37.7054 43.2292C36.2232 41.546 32.2753 40.8079 34.2632 39.4797C35.3002 38.7878 38.2744 39.2114 39.9164 41.3541C40.0611 41.5433 40.3472 41.3247 40.2027 41.1358C39.8646 40.6946 39.4652 40.3069 39.0217 39.9809C38.9059 39.825 38.8737 39.5938 38.9454 39.3958C39.3064 38.4273 41.4157 38.4956 42.439 40.9951C42.5291 41.2152 42.8628 41.0797 42.7725 40.8593C42.604 40.4477 42.3567 40.0092 42.0413 39.6204C42.1947 39.3652 42.4196 39.2455 42.7251 39.2611C43.9825 39.3195 45.0648 40.991 45.1047 41.966C45.1144 42.2058 45.4749 42.1896 45.4648 41.9511C45.435 41.2261 45.0074 40.5274 44.6898 40.104C45.0799 39.918 45.5864 40.0513 45.8971 40.3224C46.7388 41.0476 46.5789 42.4326 46.6941 43.434C46.8952 45.194 47.9774 46.8878 49.7408 48.2032C53.2918 50.8535 57.0171 53.3805 60.7245 55.6479C60.9282 55.7719 61.1161 55.4654 60.9129 55.3414H60.9131ZM12.5911 49.466C11.158 48.3219 13.1888 46.5706 14.5398 47.6275C14.7392 47.7834 15.1993 48.2041 15.1645 48.7435C15.1027 49.7018 13.4999 50.1914 12.5909 49.466H12.5911ZM16.2502 53.2871C16.4782 53.1149 16.705 52.9451 16.9313 52.7755C16.867 53.0967 16.5566 53.2916 16.2502 53.2871ZM15.2037 49.5276C16.3991 48.1421 13.9954 45.9332 12.2904 47.4486C11.5544 47.0775 10.783 46.7939 9.99052 46.5973C11.7731 45.4728 12.9528 43.9449 13.3183 42.2737C13.5301 41.3114 13.5058 39.9037 14.4258 39.2578C14.7622 39.0188 15.2795 38.9369 15.6476 39.1625C15.289 39.5521 14.7934 40.204 14.6905 40.922C14.6569 41.1577 15.0135 41.2082 15.0474 40.9729C15.1262 40.4231 15.534 39.7515 16.1382 39.176C16.6051 38.7314 17.1695 38.4913 17.688 38.5205C17.9942 38.5369 18.2049 38.6774 18.3319 38.9459C17.9788 39.301 17.6885 39.7126 17.4793 40.1053C17.3678 40.3151 17.6862 40.4825 17.7976 40.2741C19.0694 37.8867 21.1751 38.0372 21.4336 39.0344C21.4864 39.2376 21.4319 39.462 21.3044 39.6062C20.8285 39.8866 20.3904 40.2332 20.0085 40.6396C19.846 40.8125 20.1075 41.0593 20.2715 40.8855C22.1137 38.9253 25.1163 38.7896 26.0869 39.5885C27.9273 41.107 23.9269 41.4469 22.2827 42.9717C21.8725 43.3546 21.5722 43.8354 21.4372 44.3262C21.2733 44.9328 21.8208 45.4967 22.4239 45.3471C23.4286 45.0944 24.0955 44.6373 24.1435 44.6125C24.6177 44.3221 25.2075 43.9606 25.6716 44.3221C25.8798 44.4832 25.9899 44.7686 25.9588 45.0677C25.8701 45.9525 25.1121 46.5333 24.2759 47.0985C21.9255 48.6874 19.5998 50.3381 17.1912 52.1312C17.0305 51.747 16.215 50.519 15.204 49.5273L15.2037 49.5276Z" fill="white"/>
<path d="M14.0908 48.1089C13.9496 48.1899 13.7325 48.267 13.5498 48.3533L13.0367 47.8489C12.8671 47.6822 12.6139 47.9379 12.7838 48.105L13.3902 48.7011C13.4484 48.7583 13.5373 48.7687 13.6062 48.7289C13.7761 48.6314 14.0732 48.5338 14.2704 48.4209C14.4771 48.3022 14.2975 47.9908 14.0908 48.1091V48.1089Z" fill="white"/>
<path d="M33.7909 15.7042C34.2354 15.5204 34.6087 15.188 34.8418 14.7679C34.9571 14.5601 34.6424 14.3857 34.5266 14.5939C34.3328 14.943 34.0226 15.2193 33.653 15.3722C33.4363 15.4616 33.5662 15.7963 33.7911 15.7044L33.7909 15.7042Z" fill="white"/>
<path d="M24.3364 12.1784C25.1328 11.3734 25.5892 10.218 25.5574 9.08728C25.5547 8.98819 25.4715 8.91669 25.3722 8.91257C25.2729 8.91543 25.1944 8.99804 25.1971 9.09732C25.2262 10.1318 24.8086 11.1891 24.0799 11.9257C23.6947 12.3153 23.2122 12.6945 23.1939 13.2779C23.1752 13.8641 23.6341 14.2884 24.1327 14.6599C24.324 14.8021 24.5392 14.5138 24.3483 14.3717C23.9278 14.0587 23.5407 13.7109 23.554 13.2894C23.5675 12.8588 24.0048 12.5135 24.3364 12.1784Z" fill="white"/>
<path d="M27.7865 7.94524C27.6871 7.95223 27.6124 8.03824 27.6196 8.13716C27.6266 8.23607 27.7143 8.31151 27.812 8.30363C28.8499 8.22926 29.9084 8.56436 30.715 9.2211C30.8966 9.36966 31.129 9.09406 30.9427 8.94264C30.0661 8.22837 28.9142 7.86496 27.7865 7.94506V7.94524Z" fill="white"/>
<path d="M29.4086 10.144C29.1247 10.0566 28.7717 10.3825 28.6203 10.8719C28.4689 11.3613 28.5767 11.829 28.8606 11.9164C29.1446 12.0039 29.4975 11.6779 29.6489 11.1885C29.8004 10.699 29.6926 10.2315 29.4086 10.144Z" fill="white"/>
<path d="M23.9224 10.6478C24.0738 10.1583 23.966 9.69077 23.6821 9.60333C23.3981 9.51588 23.0452 9.84183 22.8938 10.3312C22.7424 10.8208 22.8501 11.2883 23.1341 11.3757C23.418 11.4632 23.771 11.1372 23.9224 10.6478Z" fill="white"/>
<path d="M24.8531 7.82788C25.0793 7.90206 25.1919 7.55998 24.965 7.48615C23.9655 7.15984 22.7709 7.47343 22.0608 8.24791C21.8988 8.42424 22.1685 8.6631 22.3266 8.49054C22.9444 7.81695 23.9833 7.54457 24.8531 7.82788Z" fill="white"/>
<path d="M26.3037 15.6291C26.6313 16.9765 25.703 17.2757 25.3691 17.0012C25.185 16.8498 24.9561 17.1277 25.1401 17.2788C25.7215 17.7558 27.0744 17.2714 26.6538 15.5443C26.5976 15.313 26.2473 15.3981 26.3037 15.6291Z" fill="white"/>
<path d="M10.7023 40.2867L8.21332 46.4191C8.12388 46.6395 8.45777 46.7746 8.54739 46.5541L11.0364 40.4217C11.1257 40.2016 10.792 40.0663 10.7023 40.2867Z" fill="white"/>
<path d="M46.4881 38.5645C47.2978 40.2323 48.0307 41.962 48.6664 43.7056C48.7479 43.929 49.0867 43.8072 49.0051 43.5827C48.3652 41.8276 47.6275 40.0866 46.8125 38.4079C46.7092 38.1941 46.3839 38.35 46.4881 38.5647V38.5645Z" fill="white"/>
<path d="M21.3059 30.6245C20.7593 31.4633 20.4595 32.1399 20.2711 32.9599C20.2178 33.1914 20.5686 33.2746 20.6224 33.0402C20.8008 32.2643 21.0864 31.621 21.608 30.8203C21.7382 30.6203 21.4352 30.4252 21.3059 30.6243V30.6245Z" fill="white"/>
<path d="M38.4317 32.0626L38.5533 32.9634C38.5854 33.1991 38.9423 33.1512 38.9105 32.9152L38.7889 32.0148C38.7569 31.7775 38.4001 31.8281 38.4317 32.0626Z" fill="white"/>
<path d="M47.0382 21.574C46.9995 21.6296 46.9951 21.7023 47.0273 21.762C48.4293 24.3716 49.5621 27.5437 50.3032 30.9351C50.3307 31.0595 50.4736 31.1154 50.5778 31.0473C52.4274 29.8415 54.1137 29.1351 55.5903 28.9477C57.0829 28.7581 59.6193 28.8735 60.7869 27.1353C60.8219 27.0832 60.8273 27.0169 60.8008 26.9601C59.5785 24.3123 58.0499 21.2861 56.8325 18.6489C56.7849 18.5447 56.6525 18.5123 56.5615 18.5797C55.0513 19.6975 53.1846 20.3455 51.3052 20.4046C50.1272 20.4412 48.0277 20.1616 47.0379 21.574H47.0382ZM51.3167 20.7639C53.1954 20.7049 55.0617 20.0794 56.5976 18.9977C57.7831 21.5525 59.2522 24.4709 60.4306 27.0167C59.3382 28.506 57.0392 28.4013 55.545 28.5911C54.0732 28.7778 52.4102 29.4555 50.5993 30.6056C49.8604 27.3206 48.7567 24.2467 47.3989 21.693C48.2996 20.5639 50.0887 20.8029 51.3167 20.7639Z" fill="white"/>
<path d="M50.6794 23.7369C52.0146 23.0223 53.5184 22.5786 55.0282 22.4537C55.1275 22.4454 55.201 22.3587 55.1929 22.2598C55.1845 22.1607 55.0981 22.0881 54.9986 22.0955C53.4399 22.2243 51.8874 22.6825 50.5091 23.4203C50.2989 23.5328 50.4694 23.8491 50.6794 23.7371V23.7369Z" fill="white"/>
<path d="M52.6297 25.4673L55.349 24.6579C55.4444 24.6295 55.4986 24.5294 55.4701 24.4342C55.4417 24.3392 55.3418 24.2844 55.2459 24.3134L52.5266 25.1229C52.2978 25.191 52.402 25.5363 52.6297 25.4673Z" fill="white"/>
<path d="M6.83715 4.59179C4.22097 4.59179 1.9773 6.18089 1.02106 8.44339C-0.719344 12.5916 2.32807 17.1796 6.83463 17.1796C9.04471 17.1796 10.9859 16.0484 12.1126 14.3346C14.8319 10.1965 11.8653 4.59161 6.83697 4.59161L6.83715 4.59179ZM6.75794 6.91666C7.5915 6.91666 8.26899 7.59258 8.26899 8.42673C8.26899 9.26088 7.5915 9.93429 6.75794 9.93429C5.92438 9.93429 5.24456 9.25837 5.24456 8.42673C5.24456 7.59509 5.92204 6.91666 6.75794 6.91666ZM9.78488 13.8386H3.72848C3.52427 13.8386 3.361 13.6612 3.38256 13.4576C3.5724 11.7655 5.01143 10.452 6.75776 10.452C8.50409 10.452 9.94078 11.7655 10.1306 13.4576C10.1547 13.6614 9.98892 13.8386 9.7847 13.8386H9.78488Z" fill="#CC9000"/>
</svg>
