<svg width="61" height="61" viewBox="0 0 61 61" fill="none" xmlns="http://www.w3.org/2000/svg">
<path d="M58.949 25.6279C57.836 27.2808 55.3797 27.1706 53.8792 27.3605C52.1295 27.584 50.2316 28.5305 48.7904 29.489C48.3256 27.3838 47.7118 25.2998 46.8946 23.2742C46.7901 23.0111 46.6809 22.7504 46.5668 22.4897C46.2389 21.7265 45.8825 20.9846 45.4978 20.2687C45.7852 19.8585 46.22 19.5837 46.6999 19.4131C47.7082 19.0712 48.7 19.217 49.6222 19.176C51.5418 19.1167 53.4399 18.4578 54.9819 17.3152C56.203 19.9652 57.7259 22.9778 58.9492 25.6277L58.949 25.6279Z" fill="#FFB400"/>
<path d="M48.9399 19.1806C49.0586 19.1806 49.1799 19.183 49.3011 19.1806L49.3866 15.6512C49.3967 15.2663 49.0922 14.9568 48.7048 14.952L44.1077 14.9378C43.8915 14.6131 43.6041 14.3406 43.2524 14.1628C44.8615 13.1029 44.6744 9.46991 40.2851 8.91029C40.9337 7.7466 40.5488 6.11826 39.4489 5.36439C38.4249 4.66517 36.9164 4.81462 36.023 5.6606C35.9138 5.76489 35.738 5.7484 35.6381 5.63462C33.0034 2.56054 29.1738 -0.885905 24.7835 0.206822C23.0896 0.628645 21.5762 1.69055 20.5594 3.10332C19.4951 4.58472 19.4927 6.4383 19.4665 8.21824C19.438 10.1073 19.3764 11.7498 20.0581 13.5158C20.0723 13.9566 20.1081 14.4069 20.165 14.8667L11.8691 14.8382C11.9569 14.6746 12.0401 14.5063 12.1137 14.3334C11.9973 14.5089 11.8714 14.6771 11.7407 14.8382H11.591C11.4276 14.8382 11.3457 15.0384 11.4723 15.1488C10.933 15.7319 10.2892 16.213 9.56452 16.5613C9.48423 16.3879 9.21787 16.4465 9.22236 16.642L9.2247 16.7108C5.08059 18.3992 0.529486 15.3638 0.529486 10.8823C0.529486 10.0172 0.705323 9.19234 1.02125 8.44331C0.377717 9.42708 0.00233491 10.6074 0 11.8731C0 16.6305 5.08202 19.6311 9.23673 17.4455L9.59541 36.6705C9.60259 37.0474 9.89948 37.3412 10.2749 37.3412L48.1795 37.4574C48.5525 37.4574 48.8541 37.1658 48.8636 36.7938L49.0513 29.3228C48.9634 29.3773 48.8754 29.4318 48.7899 29.4888C48.7591 29.3488 48.7282 29.2116 48.6949 29.0716L48.5026 36.7843C48.4979 36.9621 48.3553 37.0995 48.1795 37.0995L10.2749 36.9811C10.099 36.9811 9.95894 36.8411 9.95409 36.6634L9.59289 17.2416C10.4315 16.7296 11.1418 16.0304 11.6622 15.1961L20.2124 15.2246C20.3265 16.0044 20.4975 16.7913 20.7232 17.5734L12.2965 17.5473C11.8676 17.5638 11.6126 17.8834 11.6218 18.23L12.2252 34.2623C12.2394 34.6155 12.5316 34.8952 12.8928 34.8976L45.742 34.9995C46.1032 34.9995 46.4001 34.7223 46.4143 34.3691L46.8942 23.274C46.7896 23.0109 46.6804 22.7502 46.5664 22.4894L46.0556 34.355C46.0484 34.5137 45.9106 34.6394 45.7443 34.6394L12.8952 34.5399C12.7265 34.5376 12.5911 34.4095 12.5862 34.2507L11.9828 18.2184C11.9777 18.0451 12.109 17.9135 12.294 17.9078L20.8276 17.934C21.1335 18.8932 21.4794 19.9193 22.265 20.5981C23.354 21.5467 25.1299 21.6259 26.5673 21.4655L26.717 25.4404C26.7204 25.5782 26.879 25.6348 26.9023 25.611C27.002 25.6087 27.0805 25.5257 27.0758 25.4263L26.9262 21.4182C28.8433 21.122 30.6894 20.2545 32.1029 18.9437C32.2793 18.7792 32.0265 18.5181 31.8582 18.6807C28.6716 21.6356 24.025 21.648 22.5003 20.328C21.8921 19.7994 21.5618 18.9982 21.3195 18.2825C20.0105 14.413 19.892 9.83618 22.5098 6.76318C23.4215 6.33043 24.7134 6.38634 26.3157 5.45721C26.5199 5.33877 26.7742 5.4074 26.9215 5.59466C27.976 6.94166 29.7371 7.33696 31.2287 6.70387C31.4996 6.58775 31.8108 6.72286 31.8868 7.00724C32.1553 8.03349 32.4046 9.06457 32.6304 10.1003C32.7182 10.4985 32.8134 13.0513 33.1816 13.459C33.2143 13.6548 33.4884 13.6665 33.5356 13.4731C33.6924 12.7952 34.4599 12.2974 35.144 12.4325C36.9369 12.7884 36.4569 15.2339 35.3886 16.0542C34.5619 16.6895 33.4525 16.9644 32.4213 16.7866C32.1832 16.7472 32.1259 17.1 32.3595 17.1398C32.4736 17.1611 32.59 17.1706 32.7064 17.1824C32.6968 17.2014 32.6897 17.2204 32.6873 17.2441C32.5048 19.1971 32.0914 23.0381 32.97 24.6771C33.0149 24.7634 33.1252 24.798 33.2123 24.7505C33.3001 24.7032 33.3336 24.5941 33.286 24.5065C32.768 23.5395 32.7396 21.6978 32.8441 19.8537C33.9512 20.4841 35.3346 19.8166 35.5524 18.5832C35.9729 19.6664 37.1299 20.4178 38.294 20.3608C39.4557 20.3015 40.5366 19.4435 40.8503 18.3248C41.7626 18.9174 43.0646 18.7348 43.8486 18.0048L46.4405 18.0142C46.6205 18.0142 46.7566 18.1601 46.7469 18.3248L46.6993 19.4127C46.818 19.3724 46.9416 19.3369 47.0652 19.3084L47.1079 18.3389C47.1226 17.9695 46.8241 17.6539 46.4403 17.6539L44.1596 17.6467C44.6444 16.9407 44.6383 16.0363 44.3046 15.2978L48.7045 15.312C48.8846 15.312 49.0324 15.4616 49.0276 15.6439C48.9076 20.469 48.9397 18.8328 48.9397 19.1803L48.9399 19.1806ZM23.2085 3.85468C21.9588 4.2102 20.9278 5.30042 20.6379 6.56625C20.5839 6.80207 20.2349 6.71641 20.2862 6.48794C20.6022 5.09667 21.7378 3.90199 23.111 3.50848C23.3407 3.44558 23.4395 3.78694 23.2083 3.8545L23.2085 3.85468ZM41.1474 14.3334C40.9983 14.5218 40.7151 14.294 40.8696 14.1058C42.5275 12.0706 41.163 10.3444 39.9597 10.7424C39.867 10.7755 39.7673 10.721 39.7316 10.6286C39.7007 10.5361 39.7506 10.4318 39.8456 10.401C41.3877 9.88206 43.0504 12.0175 41.1474 14.3332V14.3334Z" fill="black"/>
<path d="M60.9129 55.3414C58.2457 53.7098 55.8366 52.1145 53.4428 50.4351C53.5105 50.2052 53.5841 49.9797 53.6721 49.8231C53.7882 49.616 53.4746 49.4395 53.3575 49.6475C53.268 49.8068 53.1974 50.0045 53.1319 50.2168C52.0638 49.4633 51.0015 48.6953 49.9564 47.9152C48.2733 46.6598 47.2418 45.0539 47.052 43.3929C46.9316 42.3468 47.1058 40.8888 46.1334 40.0511C45.6463 39.6261 44.9577 39.542 44.4618 39.8214C43.7543 39.0061 42.4308 38.4794 41.795 39.3431C40.2857 37.789 38.4947 38.5222 38.5484 39.6685C37.6697 39.1428 36.6587 38.8401 35.6227 38.8188C34.9621 38.8009 34.4553 38.919 34.0627 39.1808C33.577 39.5051 33.3406 39.8585 33.3602 40.2312C33.4448 41.8488 37.6297 42.2031 38.0521 44.7204C38.11 45.0675 37.7721 45.3563 37.447 45.2391C36.5594 44.9196 35.9376 44.4071 35.9044 44.3855C35.4299 44.0262 34.7125 43.4838 34.0056 43.9269C33.6738 44.1353 33.4757 44.5157 33.4757 44.9444C33.4732 45.9909 34.2635 46.7358 35.0728 47.409C36.5346 48.6279 37.9864 49.8767 39.4495 51.1739L19.061 51.2011C20.8843 49.8726 22.6739 48.6153 24.4771 47.3963C25.3508 46.8057 26.2123 46.1423 26.3165 45.1042C26.3609 44.6768 26.2021 44.2781 25.8921 44.0384C25.2313 43.5235 24.4628 43.9945 23.9541 44.3063C23.9069 44.3306 23.2874 44.7589 22.3355 44.9983C22.0005 45.0823 21.6923 44.7605 21.7845 44.4206C22.4614 41.9585 26.6603 42.0255 26.908 40.4262C26.9651 40.0576 26.7659 39.6825 26.316 39.3112C25.9519 39.0116 25.4553 38.8421 24.7986 38.7932C23.7652 38.7106 22.7283 38.9107 21.8008 39.3462C21.9712 38.2137 20.2639 37.2999 18.6045 38.695C18.061 37.7737 16.6938 38.1579 15.9012 38.9052C15.3981 38.5489 14.6752 38.6387 14.2174 38.9643C13.1555 39.7097 13.1798 41.227 12.966 42.1968C12.5542 44.0807 11.1601 45.4828 9.48558 46.4847C8.70985 46.3747 8.10942 46.8524 8.1245 47.29C5.50204 48.8214 2.90795 50.2324 0.181135 51.6057C-0.0338564 51.7142 0.132641 52.0329 0.343501 51.9269C3.35859 50.408 6.36164 48.7687 9.55634 46.8609C10.412 47.0424 11.2436 47.3354 12.0357 47.7255C11.6509 48.2453 11.5152 49.0675 12.3658 49.7468C13.0372 50.2827 14.1671 50.3465 14.9389 49.772C15.441 50.263 15.8963 50.7979 16.2895 51.3676C16.484 51.6496 16.7723 52.0078 16.8907 52.356C12.9874 55.2726 7.58801 59.6189 7.41559 59.8053H3.21149C2.97297 59.8053 2.97315 60.1648 3.21149 60.1648H27.0475C27.286 60.1648 27.2859 59.8053 27.0475 59.8053H7.97776C10.7969 57.5039 13.3933 55.453 15.8793 53.5679C16.2022 53.7469 16.8585 53.6437 17.159 53.1638C17.2955 52.9459 17.3266 52.7223 17.296 52.5021C17.7222 52.1844 18.1461 51.8706 18.5675 51.5615L39.8532 51.533C42.6785 54.0517 45.5558 56.7615 48.641 59.8053H34.2716C34.033 59.8053 34.0332 60.1648 34.2716 60.1648H53.4818C53.7203 60.1648 53.7203 59.8053 53.4818 59.8053H49.1537C35.878 46.6775 33.8317 46.8539 33.8362 44.9451C33.8362 44.6449 33.9747 44.3715 34.1974 44.2315C34.7125 43.9088 35.2828 44.3665 35.7612 44.7284C36.2438 45.092 36.7699 45.3777 37.3245 45.5775C37.9097 45.7878 38.5107 45.2795 38.4076 44.6612C38.323 44.1579 38.0735 43.6493 37.7051 43.2291C36.223 41.5459 32.275 40.8078 34.2629 39.4797C35.3 38.7878 38.2741 39.2114 39.9161 41.354C40.0609 41.5433 40.347 41.3246 40.2024 41.1358C39.8644 40.6946 39.4649 40.3068 39.0215 39.9809C38.9056 39.825 38.8735 39.5938 38.9451 39.3958C39.3062 38.4273 41.4155 38.4955 42.4387 40.9951C42.5289 41.2152 42.8626 41.0797 42.7722 40.8593C42.6038 40.4477 42.3564 40.0092 42.0411 39.6203C42.1944 39.3652 42.4193 39.2455 42.7248 39.261C43.9823 39.3195 45.0646 40.991 45.1045 41.966C45.1142 42.2057 45.4746 42.1896 45.4646 41.9511C45.4348 41.2261 45.0071 40.5274 44.6896 40.104C45.0797 39.918 45.5862 40.0513 45.8969 40.3224C46.7385 41.0476 46.5787 42.4326 46.6938 43.4339C46.895 45.194 47.9771 46.8877 49.7405 48.2032C53.2916 50.8535 57.0168 53.3805 60.7243 55.6478C60.928 55.7718 61.1158 55.4654 60.9127 55.3414H60.9129ZM12.5908 49.466C11.1577 48.3218 13.1886 46.5706 14.5396 47.6274C14.7389 47.7833 15.1991 48.2041 15.1643 48.7435C15.1025 49.7018 13.4996 50.1914 12.5906 49.466H12.5908ZM16.25 53.2871C16.4779 53.1149 16.7048 52.945 16.9311 52.7755C16.8668 53.0966 16.5564 53.2916 16.25 53.2871ZM15.2034 49.5276C16.3989 48.1421 13.9952 45.9332 12.2902 47.4486C11.5541 47.0775 10.7827 46.7938 9.99028 46.5973C11.7729 45.4728 12.9526 43.9448 13.3181 42.2737C13.5298 41.3114 13.5056 39.9036 14.4255 39.2578C14.7619 39.0188 15.2792 38.9369 15.6474 39.1625C15.2887 39.5521 14.7932 40.204 14.6903 40.922C14.6567 41.1576 15.0132 41.2082 15.0472 40.9729C15.126 40.4231 15.5337 39.7515 16.1379 39.1759C16.6049 38.7313 17.1692 38.4912 17.6878 38.5204C17.994 38.5369 18.2047 38.6774 18.3317 38.9458C17.9785 39.301 17.6883 39.7126 17.4791 40.1052C17.3675 40.3151 17.686 40.4824 17.7973 40.274C19.0691 37.8866 21.1749 38.0371 21.4333 39.0344C21.4861 39.2376 21.4317 39.4619 21.3042 39.6062C20.8282 39.8866 20.3901 40.2332 20.0083 40.6396C19.8458 40.8125 20.1073 41.0593 20.2712 40.8854C22.1135 38.9252 25.116 38.7896 26.0866 39.5884C27.9271 41.1069 23.9266 41.4469 22.2825 42.9716C21.8723 43.3546 21.572 43.8353 21.4369 44.3262C21.2731 44.9327 21.8206 45.4966 22.4237 45.347C23.4284 45.0944 24.0953 44.6372 24.1432 44.6125C24.6174 44.322 25.2073 43.9606 25.6714 44.322C25.8795 44.4831 25.9896 44.7686 25.9586 45.0677C25.8698 45.9525 25.1119 46.5333 24.2756 47.0985C21.9253 48.6874 19.5995 50.3381 17.191 52.1311C17.0302 51.7469 16.2148 50.5189 15.2038 49.5273L15.2034 49.5276Z" fill="black"/>
<path d="M14.0908 48.1089C13.9496 48.1899 13.7325 48.2669 13.5498 48.3533L13.0367 47.8489C12.8671 47.6822 12.6139 47.9379 12.7838 48.1049L13.3902 48.7011C13.4484 48.7583 13.5373 48.7687 13.6062 48.7289C13.7761 48.6314 14.0732 48.5337 14.2704 48.4208C14.4771 48.3022 14.2975 47.9908 14.0908 48.109V48.1089Z" fill="black"/>
<path d="M33.7906 15.7042C34.2352 15.5204 34.6084 15.188 34.8415 14.7679C34.9568 14.5601 34.6422 14.3857 34.5263 14.5939C34.3325 14.943 34.0223 15.2193 33.6527 15.3722C33.4361 15.4616 33.566 15.7963 33.7908 15.7044L33.7906 15.7042Z" fill="black"/>
<path d="M24.3369 12.1784C25.1333 11.3734 25.5897 10.218 25.5579 9.08725C25.5552 8.98816 25.472 8.91666 25.3727 8.91254C25.2734 8.9154 25.1949 8.99801 25.1976 9.09729C25.2267 10.1318 24.8091 11.189 24.0804 11.9257C23.6951 12.3153 23.2127 12.6944 23.1944 13.2779C23.1757 13.864 23.6346 14.2884 24.1332 14.6598C24.3245 14.8021 24.5397 14.5138 24.3487 14.3717C23.9283 14.0586 23.5412 13.7108 23.5545 13.2894C23.568 12.8588 24.0053 12.5134 24.3369 12.1784Z" fill="black"/>
<path d="M27.7867 7.94524C27.6874 7.95223 27.6127 8.03824 27.6199 8.13716C27.6269 8.23607 27.7145 8.31151 27.8122 8.30363C28.8502 8.22926 29.9086 8.56436 30.7152 9.2211C30.8968 9.36966 31.1292 9.09406 30.943 8.94264C30.0663 8.22837 28.9145 7.86496 27.7867 7.94506V7.94524Z" fill="black"/>
<path d="M29.4086 10.144C29.1247 10.0566 28.7717 10.3825 28.6203 10.8719C28.4689 11.3613 28.5767 11.829 28.8606 11.9164C29.1446 12.0039 29.4975 11.6779 29.6489 11.1885C29.8004 10.699 29.6926 10.2315 29.4086 10.144Z" fill="black"/>
<path d="M23.9219 10.6479C24.0733 10.1583 23.9655 9.6908 23.6816 9.60336C23.3976 9.51591 23.0447 9.84186 22.8933 10.3312C22.7419 10.8208 22.8496 11.2883 23.1336 11.3758C23.4176 11.4632 23.7705 11.1373 23.9219 10.6479Z" fill="black"/>
<path d="M24.8534 7.82788C25.0795 7.90206 25.1921 7.55998 24.9653 7.48615C23.9658 7.15984 22.7712 7.47343 22.061 8.24791C21.899 8.42424 22.1688 8.6631 22.3268 8.49054C22.9447 7.81695 23.9835 7.54457 24.8534 7.82788Z" fill="black"/>
<path d="M26.304 15.6291C26.6316 16.9764 25.7032 17.2757 25.3693 17.0012C25.1852 16.8497 24.9564 17.1277 25.1403 17.2787C25.7217 17.7557 27.0747 17.2714 26.654 15.5443C26.5978 15.313 26.2476 15.3981 26.304 15.6291Z" fill="black"/>
<path d="M10.7028 40.2867L8.21381 46.4191C8.12437 46.6395 8.45826 46.7746 8.54788 46.554L11.0369 40.4216C11.1262 40.2016 10.7925 40.0663 10.7028 40.2867Z" fill="black"/>
<path d="M46.4883 38.5645C47.298 40.2322 48.031 41.962 48.6666 43.7056C48.7482 43.929 49.0869 43.8072 49.0054 43.5826C48.3654 41.8276 47.6278 40.0866 46.8127 38.4079C46.7094 38.1941 46.3842 38.35 46.4883 38.5647V38.5645Z" fill="black"/>
<path d="M21.3063 30.6245C20.7598 31.4633 20.46 32.1399 20.2716 32.9599C20.2183 33.1914 20.569 33.2746 20.6229 33.0402C20.8013 32.2643 21.0869 31.621 21.6084 30.8203C21.7387 30.6203 21.4357 30.4252 21.3063 30.6243V30.6245Z" fill="black"/>
<path d="M38.4314 32.0626L38.553 32.9634C38.5852 33.1991 38.942 33.1512 38.9103 32.9152L38.7887 32.0148C38.7567 31.7775 38.3998 31.8281 38.4314 32.0626Z" fill="black"/>
<path d="M47.0385 21.574C46.9997 21.6295 46.9954 21.7023 47.0275 21.762C48.4296 24.3716 49.5624 27.5437 50.3034 30.9351C50.3309 31.0595 50.4739 31.1154 50.578 31.0473C52.4276 29.8415 54.114 29.1351 55.5906 28.9477C57.0831 28.7581 59.6195 28.8735 60.7872 27.1353C60.8222 27.0831 60.8276 27.0168 60.801 26.96C59.5788 24.3123 58.0501 21.286 56.8327 18.6488C56.7851 18.5447 56.6528 18.5123 56.5617 18.5797C55.0515 19.6975 53.1849 20.3454 51.3055 20.4046C50.1274 20.4411 48.028 20.1616 47.0381 21.574H47.0385ZM51.3169 20.7639C53.1957 20.7049 55.062 20.0793 56.5978 18.9977C57.7834 21.5525 59.2524 24.4708 60.4308 27.0167C59.3384 28.5059 57.0395 28.4013 55.5453 28.5911C54.0734 28.7778 52.4104 29.4555 50.5996 30.6056C49.8607 27.3206 48.757 24.2467 47.3991 21.693C48.2999 20.5639 50.089 20.8029 51.3169 20.7639Z" fill="black"/>
<path d="M50.6794 23.7369C52.0146 23.0223 53.5184 22.5786 55.0282 22.4537C55.1275 22.4454 55.201 22.3587 55.1929 22.2598C55.1845 22.1607 55.0981 22.0881 54.9986 22.0955C53.4399 22.2243 51.8874 22.6825 50.5091 23.4203C50.2989 23.5328 50.4694 23.8491 50.6794 23.7371V23.7369Z" fill="black"/>
<path d="M52.6295 25.4673L55.3488 24.6579C55.4441 24.6295 55.4984 24.5294 55.4698 24.4342C55.4414 24.3392 55.3416 24.2844 55.2457 24.3134L52.5264 25.1229C52.2976 25.191 52.4017 25.5363 52.6295 25.4673Z" fill="black"/>
</svg>
