<svg width="66" height="60" viewBox="0 0 66 60" fill="none" xmlns="http://www.w3.org/2000/svg">
<path d="M17.0541 30.5098H11.2641V32.6582C11.0998 32.6834 10.9341 32.6932 10.767 32.6764C10.056 32.5981 9.45685 31.9323 9.46252 31.2246L8.94414 31.2427C8.8719 30.4693 9.21466 29.6846 9.77128 29.1349C11.2811 27.6369 14.4041 27.5935 16.3063 29.5112C16.6009 29.8091 16.853 30.1448 17.0541 30.5098Z" fill="#007BD1"/>
<path d="M17.6037 33.9422C17.5697 33.4667 17.2921 33.0359 16.9097 32.7324H17.6929C17.7141 33.1366 17.683 33.545 17.6023 33.9422H17.6037Z" fill="#007BD1"/>
<path d="M0 28.774C0.0127471 24.5947 3.75613 22.8044 6.06052 24.343C6.75452 24.8059 7.24741 25.5738 7.31398 26.399C7.41879 27.7054 6.36361 29.0468 5.12715 28.7363C4.37507 28.5474 3.80287 27.9152 3.04655 27.7362C2.45452 27.5963 1.81858 27.7614 1.30587 28.0859C0.79315 28.4104 0.39091 28.8789 0.0481555 29.3741" fill="#007BD1"/>
<path d="M8.3762 24.3821C8.00087 23.7345 8.0122 22.9331 8.1156 22.1932C8.38187 20.2671 9.53477 19.3482 11.4539 19.0349C14.6364 18.5132 17.0187 19.9972 17.7226 22.0197C17.1858 21.6309 16.3785 21.733 15.7695 21.9987C13.8971 22.817 13.4424 25.3794 10.5319 25.4619C9.69906 25.4857 8.78977 25.0969 8.3762 24.3835V24.3821Z" fill="#007BD1"/>
<path d="M14.4041 40.649L12.332 57.5537L5.43586 57.5411L3.42749 40.628C3.67393 40.628 11.8264 40.6434 14.4055 40.649H14.4041Z" fill="#007BD1"/>
<path d="M31.1381 58.5803C28.634 59.4978 19.2097 59.2321 19.2097 58.2488C19.2097 57.3648 27.0477 57.0221 30.4781 57.7341C30.4866 58.1914 30.6665 58.4992 31.1381 58.5789V58.5803Z" fill="#007BD1"/>
<path d="M26.6739 38.902L25.1017 57.148C25.0493 57.7564 25.4785 58.2488 26.0592 58.2488C26.6399 58.2488 27.154 57.7564 27.2064 57.148L28.7786 38.902C28.831 38.2935 28.4018 37.8012 27.8211 37.8012C27.2404 37.8012 26.7263 38.2935 26.6739 38.902Z" fill="#007BD1"/>
<path d="M33.2556 37.3005L32.8944 39.2097C25.773 39.4475 16.9436 38.4866 16.9818 37.418C17.0031 36.8711 19.4746 36.4836 23.0551 36.3843C23.0777 36.4221 23.1061 36.4613 23.1344 36.4934C25.3935 39.1915 33.2527 37.3005 33.2527 37.3005H33.2556Z" fill="#007BD1"/>
<path d="M47.7405 29.7139V30.5098H54.6522V28.946H48.518C48.0889 28.946 47.7405 29.2901 47.7405 29.7139Z" fill="#007BD1"/>
<path d="M43.3171 11.3952L39.3726 27.0858H62.0567L65.9983 11.3952H43.3156H43.3171ZM53.9878 17.7425C53.8433 18.4432 53.145 19.0125 52.4227 19.0125C51.7004 19.0125 51.2401 18.4418 51.3831 17.7425C51.5276 17.0404 52.2287 16.4697 52.9453 16.4697C53.662 16.4697 54.1308 17.0404 53.9864 17.7425H53.9878Z" fill="#007BD1"/>
<path d="M43.3171 11.3952L39.3726 27.0858H37.8132C37.9152 26.683 40.136 17.8376 39.9944 18.4041C40.0015 18.3789 40.2635 17.3299 40.2465 17.3956H40.2493C42.3059 9.21182 41.609 11.984 41.7577 11.3952H43.3171Z" fill="#FFB400"/>
<path d="M49.6907 21.2882L53.1423 30.5098H58.0655L54.6139 21.2882H49.6907Z" fill="#FFB400"/>
<path d="M48.5081 21.2882L51.9597 30.5098H53.1423L49.6907 21.2882H48.5081Z" fill="#007BD1"/>
<path d="M6.98959 27.7138C7.54479 28.8398 7.47256 30.1727 7.46264 31.4399C7.45273 33.0904 7.57737 35.499 8.74868 37.4683C8.70761 38.5341 8.61696 39.5972 8.42292 40.6378H8.55181C9.14242 37.4306 8.75576 34.1129 8.97954 32.6134C9.78119 35.1926 10.0234 37.9523 9.70896 40.6406H9.83501C10.1735 37.7075 9.8251 34.7129 9.02487 32.3463C9.11976 31.8651 9.28831 31.4218 9.57724 31.0357C10.0871 30.3504 10.9922 29.8958 11.9978 29.8188C12.8221 29.7545 13.6988 29.9112 14.7639 30.307C14.795 30.3168 14.8304 30.3014 14.8432 30.2692C14.8559 30.2385 14.8375 30.2035 14.8078 30.1909C13.7243 29.7881 12.8277 29.6314 11.9893 29.6972C10.9454 29.7755 10.0064 30.2496 9.47243 30.963C9.21466 31.3099 9.04894 31.6959 8.94697 32.1141C8.29545 30.1405 7.20487 27.8201 7.75299 25.543C8.38043 22.9261 11.1295 20.9581 14.5146 21.3245C14.5486 21.3273 14.5783 21.3022 14.5812 21.2686C14.5868 21.235 14.5599 21.2057 14.5273 21.2001C11.1239 20.8322 8.28695 22.7876 7.62836 25.5151C7.0604 27.8886 8.22605 30.2734 8.89173 32.3505C8.67078 33.4764 8.83366 34.6667 8.75151 37.2306C7.69068 35.3199 7.57454 33.0289 7.58445 31.4427C7.59295 30.1629 7.67085 28.8188 7.09865 27.6621C6.31683 26.0773 4.29571 25.2171 2.59185 25.7458C2.55928 25.7556 2.54087 25.7906 2.55078 25.8242C2.56069 25.8563 2.59752 25.8759 2.63009 25.8647C4.27446 25.3542 6.23043 26.185 6.98675 27.7166L6.98959 27.7138Z" fill="black"/>
<path d="M30.09 39.0405C29.9682 39.0405 28.2205 39.1048 25.8396 39.0475C25.7815 39.0531 25.7121 39.1006 25.7107 39.1691C25.7093 39.2377 25.7645 39.295 25.8339 39.2964C27.1837 39.3286 28.6595 39.3286 30.0943 39.2894C30.1637 39.288 30.2189 39.2307 30.2161 39.1622C30.2147 39.095 30.158 39.0419 30.09 39.0419V39.0405Z" fill="black"/>
<path d="M28.1892 8.34603C28.3918 8.4831 28.4159 8.51527 28.4428 8.56703C28.5051 8.68312 28.4612 8.83837 28.3904 8.94048C28.3011 9.06776 28.1637 9.16287 28.0292 9.25379C27.9725 9.29295 27.957 9.36988 27.9966 9.42583C28.0349 9.48177 28.1142 9.49716 28.1708 9.458C28.3167 9.35869 28.4824 9.24679 28.5971 9.08035C28.7345 8.88033 28.7614 8.63416 28.6651 8.45093C28.5901 8.31106 28.4626 8.22854 28.3323 8.14042C27.9329 7.86768 27.6128 7.46765 27.4301 7.01447C27.4046 6.95013 27.3309 6.92076 27.2672 6.94453C27.202 6.96971 27.1709 7.04244 27.1964 7.10538C27.3975 7.60332 27.7502 8.04391 28.1892 8.34323V8.34603Z" fill="black"/>
<path d="M27.7077 11.2161C27.7771 11.2092 27.8267 11.1476 27.8196 11.0791C27.8125 11.0105 27.7488 10.9616 27.6808 10.9686C27.2828 11.0077 26.8706 10.7616 26.7134 10.3881C26.6865 10.3252 26.6129 10.2944 26.5491 10.321C26.4854 10.3476 26.4542 10.4203 26.4811 10.4832C26.6851 10.9686 27.2077 11.2693 27.7077 11.2147V11.2161Z" fill="black"/>
<path d="M26.6823 9.22717C26.8665 9.19221 26.9642 8.8803 26.9005 8.53202C26.8367 8.18375 26.6356 7.92918 26.4515 7.96415C26.2673 7.99912 26.1696 8.31103 26.2334 8.6593C26.2971 9.00758 26.4982 9.26214 26.6823 9.22717Z" fill="black"/>
<path d="M29.1652 8.01734C29.229 8.36561 29.4301 8.62017 29.6142 8.58521C29.7983 8.55024 29.8961 8.23833 29.8323 7.89005C29.7686 7.54178 29.5675 7.28721 29.3834 7.32218C29.1992 7.35715 29.1015 7.66906 29.1652 8.01734Z" fill="black"/>
<path d="M22.0891 9.75451C21.9234 9.77689 21.8016 9.56709 21.9121 9.42023C21.9531 9.36568 21.9418 9.28735 21.8866 9.24679C21.8313 9.20622 21.752 9.21741 21.7109 9.27196C21.4815 9.57688 21.7095 10.0357 22.116 10.0007C22.2761 9.9839 22.2619 9.74193 22.0905 9.75312L22.0891 9.75451Z" fill="black"/>
<path d="M28.423 6.27875C28.6963 6.03677 29.0745 5.92627 29.43 5.98502C29.5985 6.0074 29.6311 5.76682 29.4711 5.74025C29.0391 5.67031 28.5844 5.80319 28.2558 6.09412C28.1326 6.20461 28.2998 6.38784 28.423 6.27875Z" fill="black"/>
<path d="M26.4047 6.76126C26.569 6.79343 26.6171 6.55006 26.4542 6.51789C25.9571 6.41858 25.4231 6.63118 25.1257 7.0466C25.028 7.18227 25.2376 7.32074 25.3311 7.19066C25.569 6.85917 26.0109 6.68293 26.4047 6.76126Z" fill="black"/>
<path d="M44.9234 10.6441C44.6288 10.7406 44.4277 11.0763 44.5806 11.3952H44.8512C44.8512 11.335 44.7988 11.3029 44.7818 11.2091C44.7591 11.0749 44.8568 10.9266 45.0041 10.8776C45.1401 10.8315 45.3129 10.8595 45.4814 10.9588C45.6486 11.0567 45.9262 11.3462 45.9616 11.3938H46.2505C46.2505 11.3658 46.2406 11.3406 46.2222 11.3168C46.1075 11.1756 46.0437 11.1126 45.9771 11.0469C46.0296 10.6021 46.0465 10.2804 46.1414 9.87618C46.2817 9.28733 46.7618 9.29292 46.9417 9.6342C46.7179 9.93492 46.6046 10.3266 46.5196 10.6734C46.5026 10.7406 46.5451 10.8077 46.6117 10.8231C46.6768 10.8385 46.7462 10.8007 46.7632 10.7322C46.8468 10.3867 47.0706 9.60623 47.4374 9.56567C47.6909 9.5363 47.7986 9.80764 47.8269 10.0566C47.5705 10.237 47.4176 10.8357 47.3071 11.3057C47.3014 11.3364 47.3071 11.3672 47.3227 11.3924H47.5422C47.5634 11.3644 47.5195 11.4525 47.7093 10.7867C47.7759 10.5629 47.8538 10.3084 48.0181 10.2314C48.2178 10.1224 48.3948 10.3517 48.4302 10.5783C48.494 10.9979 48.3325 11.3084 48.3325 11.3924H48.5974C48.6951 11.2063 48.7702 11.1728 48.7985 11.1658C48.8325 11.1602 48.8707 11.1812 48.9175 11.2245C48.9585 11.2651 48.9798 11.3266 49.0025 11.3924H49.2574C49.2574 11.1644 49.0081 10.8762 48.7518 10.921C48.7291 10.9266 48.7078 10.9336 48.6852 10.942C48.7617 10.2594 48.4019 9.92374 48.0747 9.9615C48.0719 9.9615 48.0691 9.9615 48.0677 9.9643C47.9572 9.30411 47.4671 9.17403 47.1216 9.44258C46.8057 8.995 46.089 9.02157 45.895 9.82023C45.8143 10.1699 45.7859 10.4664 45.7463 10.8413C45.5352 10.6595 45.2038 10.5462 44.9248 10.6427L44.9234 10.6441Z" fill="black"/>
<path d="M37.6716 26.5235C37.6787 26.5235 37.6901 26.5207 37.6971 26.5207C37.785 26.4997 37.877 26.4829 37.9677 26.4675L38.0328 26.2186C37.9889 26.2046 37.741 26.2577 37.6461 26.2773C37.4988 26.3095 37.5215 26.5249 37.6716 26.5249V26.5235Z" fill="black"/>
<path d="M49.5095 21.2896C49.5095 21.221 49.4528 21.1651 49.3834 21.1651H48.5081C48.4203 21.1651 48.3594 21.2518 48.3906 21.3315L50.5604 27.1278C50.5845 27.1921 50.6567 27.2243 50.7219 27.2005C50.787 27.1767 50.8196 27.1054 50.7955 27.041L48.6894 21.4127H49.3834C49.4528 21.4127 49.5095 21.3567 49.5095 21.2882V21.2896Z" fill="black"/>
<path d="M41.9745 16.106L39.6205 25.5752C39.6035 25.6423 39.6446 25.7094 39.7126 25.7248C39.7778 25.7416 39.8471 25.7011 39.8641 25.6339L42.2181 16.1647C42.2351 16.0976 42.194 16.0304 42.126 16.0151C42.0581 15.9983 41.9901 16.0402 41.9745 16.106Z" fill="black"/>
<path d="M63.9166 30.3867H38.2454L37.9565 29.2244C38.4919 28.9531 38.5315 28.5418 38.3318 28.3586C38.9876 28.125 39.1278 27.6634 38.9479 27.3753C39.023 27.3222 39.2057 27.1781 39.2057 27.0872H38.9097C38.8672 27.1263 38.8176 27.1641 38.7638 27.1977C38.5471 27.076 38.2582 27.1208 38.0132 27.1599C37.8772 27.1823 37.8248 27.1795 37.4183 27.2676C37.3503 27.2816 37.3078 27.3487 37.322 27.4159C37.3362 27.483 37.4056 27.5264 37.4721 27.511C37.6279 27.4774 37.7922 27.4439 37.9353 27.4229C38.1803 27.3907 38.5953 27.2788 38.7383 27.511C38.8375 27.6746 38.6873 27.8816 38.5485 27.9768C38.3602 28.104 38.1364 28.181 37.8248 28.2243C37.6024 28.2243 37.3815 28.2607 37.1662 28.2971C37.0982 28.3082 37.0529 28.3698 37.0628 28.4369C37.0727 28.5041 37.1379 28.5516 37.203 28.5418C37.3432 28.5236 37.8319 28.4747 37.8517 28.4719C38.0896 28.4747 38.1576 28.532 38.176 28.5558C38.2808 28.6985 37.9834 28.9558 37.7639 29.0454C37.1209 29.3153 36.0232 29.1573 35.6011 29.181C35.5898 29.181 35.5785 29.1838 35.5671 29.188C35.4935 29.2132 28.2149 31.6609 24.8766 29.3181C23.5481 28.3852 23.4872 26.3892 23.4886 26.0396C24.6684 24.9821 26.1131 24.7835 27.0422 24.9402C27.113 25.385 27.3269 26.441 27.7036 26.6983C28.9033 27.5194 33.488 26.8508 34.9624 26.6088L34.9595 26.613C34.9227 26.6704 34.9397 26.7473 34.9992 26.7837C35.0587 26.82 35.1352 26.8032 35.172 26.7445C35.5657 26.1375 35.9538 25.557 36.2158 24.971C36.2682 24.8521 36.315 24.757 36.3886 24.7038C36.5048 24.6199 36.6818 24.666 36.7739 24.7625C37.0288 25.0297 36.8716 25.4745 36.7512 25.7878C36.5827 25.8395 36.6365 26.0368 36.7724 26.0368C36.8603 26.0368 38.0202 25.5864 38.193 25.5864L38.2554 25.3346C38.1137 25.2996 37.1945 25.6409 37.0557 25.6885C37.1889 25.308 37.237 24.8842 36.958 24.5919C36.907 24.5374 36.8461 24.4968 36.7809 24.466L36.4651 23.1946C37.5939 24.4492 37.533 24.4954 37.7044 24.438C37.72 24.4325 38.0911 24.308 38.5967 23.9877C39.2709 21.305 38.6859 23.6352 38.9579 22.5512C38.8984 22.5204 38.8516 22.4981 38.8191 22.4799C38.8375 21.7623 39.0825 20.9958 39.5612 20.1482C39.5683 20.1231 40.0286 18.288 39.9989 18.4041L40.03 18.2838C39.9861 18.274 39.9366 18.2838 39.9068 18.3187C38.4636 19.8447 37.5868 21.6141 37.5373 24.0296L36.3334 22.6645L35.5402 19.7146C35.5218 19.6489 35.4538 19.6097 35.3859 19.6265C35.3193 19.6447 35.2782 19.7118 35.2966 19.779L36.0969 22.7568L36.5076 24.4087C36.2187 24.4227 36.0898 24.6339 35.985 24.8688C35.7612 25.3696 35.4482 25.8535 35.1437 26.3221C34.308 26.4648 29.052 27.3166 27.8453 26.4899C27.732 26.413 27.6257 26.1948 27.5365 25.9291C28.3424 25.385 28.8565 24.8339 28.9854 24.6898C29.0449 24.6618 29.0746 24.5919 29.0477 24.5304C29.0378 24.508 28.0733 22.2127 26.7349 18.8824C26.7094 18.8195 26.6357 18.7873 26.572 18.8125C26.5082 18.8377 26.4757 18.9104 26.5012 18.9733C27.5875 21.6756 28.4288 23.6967 28.7121 24.3765C25.912 23.5681 23.2691 24.3625 21.3103 26.42C21.2904 21.9064 21.3131 22.1889 21.2819 22.1316C21.18 19.7482 21.5808 17.9747 22.4759 16.8627C23.3229 15.8081 25.6004 15.1507 26.936 14.8444C26.9643 14.8737 26.9969 14.9003 27.0309 14.9185C27.7999 15.3395 28.654 15.706 29.4089 15.271C29.5803 15.1703 29.9358 14.9619 30.0208 14.6458C30.0491 14.5395 30.042 14.4709 30.0264 14.3772C33.1268 14.3464 37.5387 16.2641 40.2269 17.3844C40.234 17.3872 40.2425 17.39 40.2481 17.3942H40.251C40.2581 17.3676 40.319 17.1159 40.3133 17.1424L40.0782 17.0487C38.0061 16.1214 33.0007 14.0471 29.957 14.1296C29.889 13.9436 29.8296 13.8373 29.7842 13.7002H29.7828C29.7658 13.6429 29.7106 13.475 29.5364 12.9561C30.5151 11.9533 30.8309 10.03 30.6199 8.45092C30.5363 7.83829 30.4839 7.56135 30.4244 7.27181C31.2402 6.23258 30.7743 4.80171 29.6653 4.37371C30.3182 4.31496 30.8437 3.66037 30.8252 2.9918C30.8068 2.32462 30.2941 1.72178 29.6596 1.54834C29.0279 1.3749 28.3212 1.60708 27.858 2.07984C28.2758 1.44064 28.0025 0.450359 27.3198 0.127259C26.6371 -0.193043 25.7165 0.232162 25.5069 0.970675C25.2746 0.28811 24.4885 -0.139892 23.8059 0.0433372C23.1232 0.223769 22.643 0.990256 22.7691 1.7008C22.5779 1.23783 21.9802 1.00564 21.5369 1.21964C21.0936 1.43364 20.8896 2.05187 21.1191 2.49526C20.8117 2.1316 20.1701 2.31762 19.9378 2.73164C19.7027 3.14985 19.7735 3.67156 19.9038 4.12894C18.7694 4.02264 17.8969 5.60596 19.0243 7.02424C19.4209 7.52638 19.9676 7.88025 20.5228 8.18796C19.935 8.3656 19.6432 9.12929 19.85 9.72094C20.0398 10.2566 20.5426 10.6217 21.0879 10.756C21.2352 10.8958 21.4165 11.0259 21.6077 11.1056C21.9986 11.2735 22.5099 11.2595 22.8512 11.0721C22.9207 11.0329 22.9816 10.9742 23.041 10.9168C23.0864 10.8735 23.1728 10.7853 23.2025 10.7867C23.3045 10.8301 23.6019 11.3294 23.6897 11.4287C24.2492 12.0749 25.3256 12.9659 26.5465 13.3995C26.5479 13.4345 26.8085 14.5954 26.8142 14.6206C25.1783 15.001 23.1204 15.6654 22.2805 16.7116C21.3032 17.9271 20.8896 19.8713 21.0497 22.4911C21.0681 28.8873 21.0582 25.7193 21.061 26.6354C21.061 26.7319 21.129 26.7417 21.2225 26.7753C21.2395 26.7809 21.4236 26.8466 21.7309 26.9221C22.1176 28.5978 22.5524 29.9307 22.7068 30.3867H11.267C11.1976 30.3867 11.141 30.4427 11.141 30.5112V32.7337C11.141 32.8023 11.1976 32.8582 11.267 32.8582H15.2668L8.1199 57.4557C5.40195 57.4432 3.02392 57.425 2.97859 57.425C2.90919 57.425 2.85396 57.4795 2.85254 57.5481C2.85254 57.6166 2.90778 57.6725 2.97718 57.6725C3.0225 57.6725 5.35804 57.6907 8.04767 57.7033L7.4259 59.8419C7.40607 59.9077 7.44573 59.9762 7.5123 59.9958C7.57886 60.014 7.64826 59.9776 7.66809 59.9105L8.30969 57.7047C9.99514 57.7117 13.1946 57.7243 14.8872 57.7089C14.9566 57.7089 15.0132 57.6516 15.0118 57.5844C15.0118 57.5159 14.9566 57.4627 14.8858 57.4613C13.3958 57.4739 10.7826 57.4683 8.38193 57.4571L15.5288 32.8582H22.4816C22.4249 33.8513 22.3909 35.8165 23.0439 36.5732C25.1556 39.0978 31.8578 37.7425 33.1013 37.4655L30.7388 49.9741C30.5915 50.707 30.9754 51.4343 31.6708 51.7435C31.8393 51.819 32.0065 51.8889 32.1708 51.9561C32.0178 52.3239 31.9456 52.7785 32.022 53.1939C31.8535 53.2554 31.7204 53.3478 31.6311 53.4708C31.4201 53.7576 31.4328 54.2653 31.5249 54.6178C30.9428 55.2612 30.2545 55.9116 30.4881 56.7354C30.2856 57.6306 30.1992 58.5467 31.1184 58.7034C31.9824 58.8698 31.6722 58.3971 34.2967 59.3454C36.3815 60.0993 38.1321 60.4895 39.6589 58.895C39.8587 58.6866 40.0782 58.4041 40.2326 58.067C42.0002 58.4544 43.4519 59.6363 45.279 59.6363C46.9942 59.6363 48.4105 58.2656 48.5026 57.0935C48.5394 56.6221 48.1712 56.12 48.038 55.9535C47.9162 55.4836 47.5749 55.1479 47.0947 55.0332C46.5282 54.8989 46.2336 55.222 45.6076 55.3885C45.7761 55.1773 45.888 54.9185 45.9687 54.7283C46.2138 54.152 45.8611 53.6639 45.3909 53.7995C45 53.9142 44.864 54.3674 44.8073 54.7674C44.745 54.6514 44.6728 54.5367 44.5921 54.4192C44.1785 53.8317 43.4207 54.3157 43.9561 55.0164C44.1218 55.2374 44.2975 55.485 44.5297 55.6332C44.0156 55.6976 43.5695 55.6458 43.2239 55.2192C43.0482 54.9996 43.1077 54.864 43.095 54.8052C43.3329 54.4485 43.6629 53.9352 43.51 53.5044C43.4264 53.268 43.2239 53.068 42.9208 52.9016C43.0412 52.682 43.1431 52.412 43.1644 52.0833C43.5326 52.0749 43.891 52.0274 44.2521 51.9365C44.7691 51.8078 45.194 51.4008 45.3625 50.8749C46.1472 48.3866 48.2306 37.7495 45.711 33.6191C45.5424 33.3422 45.3371 33.0862 45.0991 32.8554H57.4298L62.7495 59.8979C62.7807 60.0601 63.0285 60.0126 62.996 59.8503L57.6861 32.8554H63.9223C63.9917 32.8554 64.0483 32.7995 64.0483 32.7309V30.5084C64.0483 30.4399 63.9917 30.3839 63.9223 30.3839L63.9166 30.3867ZM23.8781 11.2665C23.7322 11.1001 23.4674 10.5392 23.2053 10.5392C22.9985 10.5392 22.8513 10.7853 22.7266 10.8553C22.4533 11.0049 22.0241 11.0147 21.704 10.8777C21.0794 10.6175 20.5341 9.71534 20.6177 9.02299C20.6687 8.59778 20.9732 8.19915 21.4392 8.20475C22.7011 8.34322 22.9022 9.77269 23.296 10.1266C23.456 10.2706 23.7166 10.328 23.8823 10.1909C23.9971 10.0958 24.0396 9.93354 24.0268 9.78388C23.9631 9.04676 23.5141 8.36979 24.0339 7.67044C24.1047 7.57533 24.1925 7.47183 24.1727 7.35434C24.1543 7.24664 24.0509 7.1795 23.9645 7.11236C23.6373 6.8564 23.5127 6.56687 23.5183 6.27594C23.6118 6.25636 26.3213 6.52351 28.5917 4.28C28.6214 4.25062 28.6512 4.21985 28.6809 4.18908C28.722 4.21706 28.7616 4.24643 28.7999 4.2772C29.4514 4.93739 29.9103 5.96963 30.1978 7.41868C30.5122 9.02718 30.61 10.6329 29.8154 12.1449C29.6723 12.4176 29.501 12.6512 29.3055 12.8386C27.8509 14.2261 25.1769 12.7687 23.8781 11.2679V11.2665ZM29.3338 13.1436C29.5718 13.8569 29.5364 13.7534 29.5449 13.7786C29.6284 14.0317 29.8338 14.3674 29.7771 14.5842C29.7177 14.8024 29.4216 14.9758 29.28 15.0584C28.6483 15.4234 27.8835 15.1031 27.1498 14.7017C27.1102 14.6807 27.0677 14.6178 27.0592 14.5758C27.0535 14.5506 26.7943 13.4149 26.8099 13.4876C27.9246 13.8135 28.7645 13.6023 29.3324 13.1422L29.3338 13.1436ZM35.6309 29.4272C36.0303 29.4104 37.0203 29.5461 37.7214 29.3209L37.9863 30.3867H31.5617C33.6692 30.0748 35.3958 29.5069 35.6295 29.4272H35.6309ZM21.9986 26.9823C22.3569 27.0564 22.8187 27.1263 23.3441 27.1473C23.4985 27.9264 23.8639 28.9125 24.7279 29.5195C25.3398 29.9489 26.0706 30.2217 26.8595 30.3867H22.9688C22.8498 30.0412 22.4037 28.7069 22 26.9837L21.9986 26.9823ZM30.981 50.0203L33.3789 37.3243C33.3959 37.2347 33.3137 37.1592 33.2259 37.1802C33.148 37.1998 25.4162 39.0223 23.2322 36.4137C22.6317 35.7088 22.677 33.7772 22.7294 32.8582H38.8035C39.0967 33.1072 39.3403 33.3869 39.5258 33.6918C41.6588 37.1956 38.9904 46.5179 37.7738 50.4217C36.9622 50.7434 36.0912 50.5112 35.264 50.286L32.6863 49.5825C32.6183 49.5643 32.5503 49.6034 32.5319 49.6692C32.5135 49.7349 32.5532 49.8035 32.6197 49.8216L35.1975 50.5252C36.0232 50.7504 36.8518 50.9672 37.6803 50.7196C37.6166 50.9224 37.5585 51.1056 37.4863 51.3322C37.3475 51.7756 36.9906 52.1183 36.5572 52.226C35.1663 52.5687 33.5998 52.3365 31.7699 51.5183C31.1807 51.2567 30.8564 50.6427 30.981 50.0217V50.0203ZM39.5966 51.1672C39.9167 51.3099 40.217 51.4329 40.5045 51.542C40.3954 51.854 40.3445 52.1757 40.3813 52.5029C40.2085 52.5547 40.0697 52.6372 39.972 52.7533C39.7425 53.0261 39.7213 53.5338 39.7907 53.8919C39.3601 54.3101 38.8488 54.7535 38.6661 55.2696C38.2086 55.2808 37.9664 55.5465 37.4211 55.7325C37.5741 55.5116 37.669 55.2472 37.737 55.0528C37.8234 54.8052 37.8149 54.5912 37.7129 54.3968C37.4679 53.9352 36.7951 54.0737 36.6436 54.7563C36.6124 54.8975 36.5912 55.0332 36.5812 55.1661C36.5118 55.0542 36.4325 54.9437 36.3433 54.8332C35.8929 54.2765 35.1663 54.801 35.747 55.471C35.9311 55.6906 36.1351 55.9256 36.3645 56.0501C36.2385 56.0738 36.111 56.092 35.9793 56.099C35.5969 56.12 35.2725 55.9857 35.0289 55.72C34.8448 55.5185 34.8887 55.3703 34.8731 55.3171C35.087 54.9465 35.3816 54.4122 35.2003 53.9926C35.0998 53.759 34.8802 53.5702 34.5587 53.4233C34.6409 53.1995 34.6876 52.9351 34.7046 52.5995C35.3306 52.654 35.9496 52.6316 36.6195 52.4666C37.1379 52.3379 37.5628 51.9309 37.7271 51.4064C37.812 51.1392 37.8786 50.9294 37.9792 50.6077C38.033 50.5755 38.0557 50.5098 38.0287 50.4511C38.2554 49.7209 38.5358 48.7936 38.8261 47.7502L38.6647 49.4006C38.5202 50.1308 38.904 50.8581 39.5966 51.17V51.1672ZM42.5398 53.0345C42.4704 53.1561 42.3358 53.2401 42.1899 53.2513C41.8953 53.275 40.9223 53.303 40.6915 52.7086C40.5612 52.3813 40.6221 51.9631 40.7396 51.626C41.554 51.9155 42.2523 52.0638 42.9052 52.0819C42.8684 52.5771 42.6233 52.875 42.5398 53.0345ZM36.8872 54.8108C36.9877 54.3604 37.356 54.2625 37.4891 54.5129C37.5585 54.6444 37.5628 54.7912 37.499 54.9717C37.3971 55.264 37.2299 55.7409 36.8928 55.8682C36.7979 55.5116 36.805 55.1745 36.8872 54.8094V54.8108ZM36.6379 55.892C36.5133 55.8668 36.3872 55.836 35.9368 55.3101C35.5841 54.9059 35.9014 54.6891 36.145 54.9898C36.3801 55.2808 36.5387 55.5703 36.6379 55.8934V55.892ZM34.4539 52.5729C34.4312 53.0149 34.3193 53.759 33.8718 53.8233C33.1863 53.9226 32.386 53.8387 32.2628 53.138C32.1991 52.8163 32.2529 52.3966 32.4002 52.0428C33.1225 52.3141 33.8052 52.4932 34.4525 52.5743L34.4539 52.5729ZM31.8294 53.6135C31.8875 53.5352 31.9739 53.4722 32.0872 53.4275C32.3747 54.0835 33.1919 54.1716 33.9072 54.0681C34.1324 54.0359 34.3335 53.9044 34.4482 53.6583C34.4511 53.6527 34.4539 53.6471 34.4567 53.6429C35.2301 53.994 35.0743 54.4625 34.6564 55.1871C33.6055 55.3871 32.6693 55.2192 31.7997 54.6765C31.675 54.3604 31.6595 53.8429 31.828 53.6135H31.8294ZM31.6326 54.8654C32.6027 55.4822 33.5758 55.6248 34.6324 55.4402C34.6465 55.5955 34.7173 55.7507 34.842 55.8864C35.1167 56.1857 35.4765 56.3438 35.8915 56.348C35.5332 56.734 35.349 57.1215 35.3179 57.5523C35.3122 57.6208 35.3646 57.6795 35.434 57.6851C35.4368 57.6851 35.4397 57.6851 35.4439 57.6851C35.5091 57.6851 35.5643 57.6348 35.5686 57.5704C35.5997 57.1368 35.815 56.748 36.2456 56.3466C36.2541 56.3382 36.2597 56.327 36.2668 56.3172C36.5189 56.2808 36.7597 56.2179 36.992 56.1424C36.6776 56.5354 36.5189 56.955 36.5246 57.3928C36.5246 57.4613 36.5812 57.5145 36.6506 57.5145H36.6521C36.7215 57.5145 36.7767 57.4571 36.7753 57.3886C36.7696 56.9648 36.9339 56.5704 37.2795 56.1857C37.3163 56.1438 37.3192 56.085 37.2908 56.0403C38.2667 55.7018 38.3772 55.4486 38.8389 55.5283C39.251 55.5983 39.5513 55.871 39.6632 56.278C39.9309 57.2543 39.0995 58.6013 38.1463 58.951C36.9679 59.3818 35.9552 58.9104 34.8533 58.3901C32.9115 57.4725 33.1282 57.783 31.828 57.5523C31.4895 57.4907 31.1977 57.4376 30.998 57.1816C30.2984 56.2822 30.8762 55.6906 31.6311 54.8667L31.6326 54.8654ZM39.472 58.723C37.2866 61.007 34.529 58.8237 32.2062 58.495C31.4541 58.3873 30.3437 58.8796 30.6595 57.1284C31.0108 57.7005 31.3238 57.6963 31.9725 57.8306C32.9073 58.0222 32.7203 57.6544 34.7457 58.6125C35.9212 59.1677 36.975 59.6433 38.2341 59.1831C39.2185 58.8237 39.9805 57.6082 39.9677 56.6641C40.0867 56.8557 40.1731 57.0627 40.1717 57.2459C40.1632 57.8754 39.7878 58.3985 39.4734 58.7258L39.472 58.723ZM45.1062 59.3831C43.3499 59.2824 42.0681 58.2306 40.319 57.8334C40.3841 57.6362 40.4266 57.425 40.4181 57.204C41.139 57.3159 41.2877 57.2795 42.7423 58.0866C43.8527 58.7006 44.8937 59.2601 46.1869 58.8824C47.201 58.5817 48.0323 57.4152 48.0833 56.4781C48.1896 56.6767 48.2632 56.8893 48.2476 57.0725C48.1627 58.1509 46.769 59.4727 45.1062 59.3817V59.3831ZM45.4574 54.0373C45.5877 53.9982 45.6968 54.0485 45.7535 54.1744C45.8144 54.3101 45.8073 54.4555 45.7322 54.6332C45.6104 54.9185 45.4135 55.3843 45.0679 55.4892C44.9716 55.078 45.0495 54.1562 45.456 54.0373H45.4574ZM44.1502 54.8667C44.0907 54.7884 44.0269 54.6975 44.0199 54.6052C44.0114 54.4765 44.0326 54.4415 44.0992 54.4122C44.1884 54.3702 44.3187 54.4751 44.3782 54.5604C44.5935 54.8653 44.7323 55.1647 44.8102 55.4934C44.687 55.4598 44.5637 55.4206 44.1487 54.8667H44.1502ZM44.0383 55.899C43.6544 56.2613 43.4448 56.6361 43.3853 57.0641C43.3754 57.1326 43.4236 57.1942 43.493 57.204C43.4986 57.204 43.5043 57.204 43.51 57.204C43.5723 57.204 43.6261 57.1592 43.6346 57.0977C43.7352 56.3773 44.3683 55.9619 44.415 55.892C44.67 55.871 44.9136 55.8249 45.1487 55.7661C44.8088 56.1382 44.6232 56.5466 44.5991 56.9844C44.5963 57.0529 44.6487 57.1117 44.7181 57.1145H44.7252C44.7918 57.1145 44.847 57.0627 44.8513 56.997C44.8739 56.5732 45.0637 56.1913 45.4334 55.8291C45.473 55.7899 45.4787 55.7325 45.4546 55.685C45.8455 55.5773 45.8597 55.5885 46.2237 55.4262C46.4956 55.3059 46.7307 55.201 47.0324 55.2724C47.4332 55.3689 47.7052 55.6402 47.7987 56.0375C48.0352 57.0124 47.116 58.3467 46.116 58.6432C44.9093 58.9971 43.9292 58.4572 42.867 57.8684C41.2566 56.976 41.139 57.0753 40.3742 56.9438C40.2651 56.5816 39.9946 56.2585 39.8813 56.1354C39.7312 55.6892 39.3884 55.3857 38.9253 55.292C39.0967 54.8793 39.5343 54.4849 39.8884 54.145C40.7991 54.8122 41.7665 55.0304 42.8429 54.9129C42.8471 55.0668 42.908 55.2262 43.0228 55.3703C43.2777 55.6864 43.6289 55.8654 44.0397 55.8962L44.0383 55.899ZM42.8825 54.6625C41.8189 54.794 40.8982 54.5674 40.0669 53.9688C39.9635 53.6443 39.9819 53.1282 40.166 52.91C40.2283 52.8344 40.319 52.7785 40.4365 52.7407C40.6716 53.4121 41.4945 53.552 42.2098 53.4974C42.435 53.4792 42.6418 53.3631 42.7706 53.1324C42.7763 53.124 42.7806 53.117 42.7862 53.1086C43.5298 53.5058 43.3499 53.9604 42.8825 54.6611V54.6625ZM45.4886 33.7492C47.5876 37.19 46.371 45.9836 45.3739 49.8804C45.347 49.8734 45.3172 49.8734 45.2903 49.886C44.466 50.2622 43.5114 50.0049 42.6927 49.7825L40.115 49.0789C39.9521 49.037 39.8898 49.2748 40.0484 49.3181C43.18 50.1601 44.1884 50.5951 45.3045 50.1461C45.2393 50.3881 45.1756 50.6077 45.1147 50.8021C44.9731 51.2455 44.6161 51.5882 44.1827 51.6973C42.629 52.0833 41.1943 51.6078 39.7 50.9406C39.1122 50.6763 38.7879 50.0622 38.9125 49.4328C38.9437 49.1069 38.7978 50.6119 39.2241 46.2508C40.843 39.9258 41.0172 35.657 39.7411 33.5618C39.5867 33.31 39.3969 33.0736 39.176 32.8568H44.7209C45.0283 33.1184 45.2875 33.4177 45.4886 33.7492ZM63.7905 32.6092H11.3902V30.6343C15.1308 30.6343 20.7763 30.6399 63.7905 30.6343V32.6092Z" fill="black"/>
<path d="M48.6937 7.41447L51.9045 1.60847C51.9838 1.4644 51.7643 1.34412 51.6836 1.48958L48.4727 7.29558C48.3934 7.43965 48.6144 7.55714 48.6937 7.41447Z" fill="black"/>
<path d="M46.6485 6.92213C46.7165 6.90954 46.7618 6.8452 46.7491 6.77806L46.1854 3.69813C46.1726 3.63099 46.106 3.58483 46.0395 3.59882C45.9715 3.61141 45.9262 3.67575 45.9389 3.74288L46.5026 6.82282C46.5154 6.89275 46.5848 6.93612 46.6485 6.92213Z" fill="black"/>
<path d="M44.8966 6.70532C44.9631 6.85498 45.194 6.75567 45.126 6.60601C44.4391 5.05905 43.391 3.66035 42.0908 2.56097C42.0384 2.51621 41.9591 2.52181 41.9138 2.57496C41.8684 2.62671 41.8741 2.70504 41.9279 2.7498C43.1984 3.8254 44.2252 5.19332 44.8966 6.70532Z" fill="black"/>
<path d="M4.01961 43.789C3.95021 43.789 3.89355 43.845 3.89355 43.9135C3.89355 43.9821 3.95021 44.038 4.01961 44.038L10.7019 44.0324C10.7713 44.0324 10.828 43.9765 10.828 43.9079C10.828 43.8394 10.7713 43.7834 10.7019 43.7834L4.01961 43.789Z" fill="black"/>
<path d="M48.9785 37.1187C48.9105 37.1313 48.8666 37.197 48.8793 37.2642C49.3269 39.5189 49.1159 41.9442 48.2873 44.0912C48.2562 44.1723 48.3171 44.259 48.4049 44.259C48.4559 44.259 48.504 44.2283 48.5224 44.1793C49.368 41.989 49.5833 39.5161 49.1272 37.2166C49.1145 37.1495 49.0465 37.1061 48.9799 37.1187H48.9785Z" fill="black"/>
<path d="M50.5039 39.2111C50.5421 40.1958 50.443 41.1804 50.2079 42.1386C50.1909 42.2057 50.2334 42.2728 50.2999 42.2882C50.3651 42.3036 50.4345 42.2658 50.4515 42.1973C50.6922 41.2182 50.7942 40.2098 50.7546 39.2027C50.7475 39.0348 50.4968 39.0502 50.5039 39.2125V39.2111Z" fill="black"/>
<path d="M30.3493 15.5004C29.7545 16.0277 28.8282 16.1718 28.0973 15.8515C28.035 15.8235 27.96 15.8515 27.9316 15.9144C27.9033 15.9773 27.9316 16.0501 27.9954 16.078C28.8069 16.4347 29.8465 16.2795 30.5179 15.685C30.5689 15.6389 30.5745 15.5605 30.5278 15.5102C30.481 15.4584 30.4017 15.4556 30.3507 15.5004H30.3493Z" fill="black"/>
</svg>
