<svg width="154" height="154" viewBox="0 0 154 154" fill="none" xmlns="http://www.w3.org/2000/svg">
<path d="M95.1467 88.8425V92.1532C95.1467 92.847 95.5838 93.4643 96.2338 93.6993L100.178 95.1032C100.56 96.4746 101.101 97.7746 101.79 98.982L99.9923 102.768C99.6919 103.391 99.8231 104.139 100.315 104.631C101.303 105.614 101.669 105.98 102.653 106.969C103.144 107.46 103.893 107.592 104.516 107.291L108.301 105.494C109.509 106.188 110.814 106.729 112.186 107.106L113.584 111.044C113.819 111.7 114.437 112.137 115.13 112.137H118.441C119.135 112.137 119.752 111.7 119.987 111.05L121.391 107.1C122.757 106.723 124.057 106.182 125.264 105.494L129.045 107.291C129.668 107.586 130.416 107.461 130.908 106.969L133.251 104.625C133.743 104.134 133.874 103.385 133.574 102.762L131.776 98.9766C132.465 97.7693 133.011 96.469 133.388 95.1034L137.332 93.6995C137.982 93.4645 138.419 92.8473 138.419 92.1533V88.8427C138.419 88.1489 137.982 87.5316 137.327 87.2966L133.388 85.898C133.011 84.5268 132.464 83.2267 131.781 82.0137L133.573 78.2388C133.874 77.616 133.743 76.8676 133.251 76.376L130.907 74.0323C130.416 73.5407 129.667 73.4149 129.044 73.71L125.264 75.5073C124.057 74.8189 122.756 74.2781 121.391 73.9013L119.987 69.9515C119.752 69.3013 119.135 68.8644 118.441 68.8644H115.13C114.436 68.8644 113.819 69.3013 113.584 69.957L112.185 73.8959C110.814 74.2729 109.509 74.8136 108.301 75.5019L104.521 73.71C103.892 73.4095 103.149 73.5407 102.658 74.0323L100.314 76.376C99.8225 76.8676 99.6913 77.6162 99.9919 78.2388L101.784 82.0137C101.101 83.2266 100.555 84.5268 100.178 85.898L96.2389 87.2966C95.5838 87.5315 95.1467 88.1487 95.1467 88.8425ZM108.576 90.498C108.576 85.9664 112.249 82.2932 116.78 82.2932C121.317 82.2932 124.99 85.9664 124.99 90.498C124.99 95.0348 121.317 98.708 116.78 98.708C112.249 98.708 108.576 95.0348 108.576 90.498Z" fill="#E5E3E3"/>
<path d="M56.4803 18.9921L60.2928 59.69C60.4849 61.7399 58.9758 63.542 56.9221 63.7153L23.4756 66.5369C21.422 66.7101 19.6016 65.1888 19.4095 63.1389L15.5968 22.441C15.4048 20.3911 16.914 18.5888 18.9675 18.4157L52.414 15.5941C54.4678 15.4209 56.2882 16.9422 56.4803 18.9921Z" fill="white"/>
<path d="M23.1584 66.7303C21.1486 66.7303 19.4208 65.1893 19.2305 63.1561L15.4178 22.458C15.3204 21.419 15.6341 20.408 16.301 19.6106C16.9687 18.8124 17.9104 18.3245 18.9525 18.2366L52.399 15.415C54.5469 15.2348 56.4586 16.8306 56.6593 18.9752L57.0933 23.607C57.1025 23.706 57.0298 23.7938 56.9309 23.8031C56.8331 23.8125 56.7443 23.7396 56.7351 23.6408L56.3011 19.0089C56.1184 17.06 54.3816 15.6104 52.4292 15.7735L18.9827 18.5951C18.0372 18.675 17.1828 19.1176 16.5769 19.8416C15.9722 20.5643 15.6877 21.4817 15.776 22.4242L19.5887 63.1224C19.7714 65.0712 21.5066 66.5177 23.4606 66.3577L47.3848 64.3396C47.4821 64.3323 47.5708 64.4046 47.5793 64.5036C47.5876 64.6028 47.514 64.6899 47.4151 64.6981L23.4909 66.7163C23.3794 66.7256 23.2682 66.7303 23.1584 66.7303Z" fill="#22363F"/>
<path d="M28.5934 61.5649C28.1472 61.6025 27.7499 61.2737 27.7047 60.8277C27.6592 60.3797 27.9865 59.9829 28.4352 59.9416L50.4147 58.0874C50.4167 58.0873 50.4189 58.0871 50.421 58.0868C50.8672 58.0492 51.2656 58.3902 51.3108 58.8362C51.3563 59.2842 51.028 59.6689 50.579 59.7101L28.5995 61.5643C28.5977 61.5646 28.5955 61.5648 28.5934 61.5649Z" fill="#E5E3E3"/>
<path d="M55.2713 55.0002L23.0933 57.7147C22.6441 57.7526 22.2458 57.4198 22.2038 56.9714C22.1618 56.5229 22.4919 56.1287 22.9412 56.0908L55.1192 53.3762C55.5684 53.3383 55.9666 53.6711 56.0087 54.1196C56.0507 54.5679 55.7205 54.9623 55.2713 55.0002Z" fill="#E5E3E3"/>
<path d="M50.3298 43.7977C49.9984 44.361 49.6323 44.9041 49.233 45.417C46.8093 48.5254 43.1392 50.6541 38.877 51.0137C34.5311 51.3804 30.4485 49.8331 27.4709 47.0776C30.6176 45.4865 33.6052 44.8229 33.6052 44.8229L41.6604 43.1942C41.6604 43.1942 45.9114 42.9897 50.3298 43.7977Z" fill="#A6B6BF"/>
<path d="M41.6615 43.1924C41.6615 43.1924 41.6733 41.3307 41.3739 40.0739C41.0744 38.8172 33.7619 36.7626 33.7619 36.7626C34.5082 40.4216 34.5918 43.7887 33.6045 44.8231C35.6311 50.1823 46.2132 48.0012 41.6615 43.1924Z" fill="white"/>
<path d="M38.7896 48.131C38.716 48.131 38.6424 48.1298 38.568 48.1278C36.6579 48.0707 34.3066 47.1892 33.4359 44.8867C33.4114 44.8217 33.4264 44.7487 33.4741 44.6988C34.3364 43.7956 34.38 40.6947 33.5855 36.7983C33.573 36.7369 33.5933 36.6734 33.6392 36.6308C33.6851 36.588 33.7498 36.5713 33.8103 36.5893C34.5694 36.8025 41.2339 38.7107 41.5488 40.0322C41.82 41.1701 41.8403 42.7606 41.8414 43.1214C43.1536 44.5356 43.0854 45.6054 42.7934 46.257C42.2848 47.3918 40.6915 48.1309 38.7896 48.131ZM33.8118 44.8596C34.6499 46.9217 36.8131 47.7152 38.5786 47.7679C40.4069 47.8264 42.0028 47.1405 42.4649 46.1098C42.8245 45.3077 42.5013 44.3415 41.5306 43.3161C41.4988 43.2823 41.4812 43.2375 41.4815 43.1912C41.4817 43.1728 41.4897 41.3362 41.1988 40.1156C41.0052 39.3031 36.7945 37.8216 33.9957 37.0164C34.59 40.0696 34.8307 43.6124 33.8118 44.8596Z" fill="#22363F"/>
<path d="M37.9739 39.3142C41.6516 42.3693 44.869 39.2562 44.7293 37.0481C44.5896 34.8401 43.9246 34.8699 43.4147 31.4961C42.905 28.1223 39.8108 27.2688 39.8108 27.2688C34.9717 27.1515 32.342 29.1368 33.2218 34.4623L34.317 37.429L37.9739 39.3142Z" fill="white"/>
<path d="M41.5577 29.1979C41.5391 29.6388 41.739 30.0551 42.0602 30.3617C42.3815 30.6683 42.8055 30.8531 43.2407 30.937C43.4954 30.9862 43.7721 30.9994 43.9997 30.8784C44.2812 30.7287 44.4274 30.402 44.461 30.0848C44.5236 29.4934 44.4967 28.3656 43.6776 27.776C43.1915 27.4263 42.5081 27.3823 41.9759 27.6467C41.9052 26.4935 41.0788 25.9448 40.1197 25.5601C39.3894 25.2672 38.3125 25.2039 37.5303 25.2604C36.7483 25.317 35.9671 25.4513 35.2265 25.7034C34.2762 26.0268 33.8102 26.5459 33.7954 26.8773C32.4208 26.5468 31.0329 27.4164 30.5273 28.2748C29.6971 29.6841 30.0367 32.5855 30.5226 34.0853C30.8204 35.005 31.2568 35.9322 31.9793 36.5791C32.6519 36.4062 33.3161 35.9969 33.7749 35.4788C34.2337 34.9608 34.5583 34.3337 34.7808 33.6778C35.2368 32.3343 35.2699 30.848 34.8746 29.478C35.1135 29.6729 35.36 29.8102 35.6557 29.8955C37.6184 30.4613 39.7886 30.1921 41.5577 29.1979Z" fill="#22363F"/>
<path d="M31.9793 36.7586C31.9354 36.7586 31.8926 36.7427 31.8592 36.7127C31.2198 36.1401 30.7265 35.2986 30.3514 34.1403C29.8523 32.5995 29.5138 29.6405 30.3723 28.1831C30.9222 27.2492 32.3118 26.435 33.6594 26.6656C33.8011 26.286 34.2858 25.833 35.1685 25.5327C35.8681 25.2947 36.6584 25.1427 37.5174 25.0807C38.2921 25.0247 39.4001 25.0772 40.1867 25.3929C41.0046 25.7211 41.9449 26.2427 42.1287 27.39C42.6803 27.2092 43.318 27.2953 43.7826 27.6299C44.7214 28.3054 44.6949 29.5849 44.6399 30.1036C44.595 30.527 44.3872 30.8761 44.0842 31.037C43.8562 31.1584 43.5689 31.1832 43.2067 31.1137C42.6991 31.0159 42.2596 30.8009 41.936 30.4922C41.6411 30.2105 41.4525 29.8568 41.3952 29.4901C39.6125 30.4076 37.5188 30.6198 35.606 30.068C35.4502 30.0231 35.3046 29.9642 35.164 29.8888C35.4398 31.1605 35.3675 32.5092 34.9513 33.7352C34.7008 34.4738 34.3503 35.1005 33.9098 35.5977C33.4283 36.1415 32.7234 36.5733 32.0243 36.753C32.0093 36.7566 31.9944 36.7586 31.9793 36.7586ZM33.1893 26.9856C32.0803 26.9856 31.0625 27.7206 30.6826 28.3659C29.9151 29.6687 30.196 32.4923 30.6939 34.0292C31.0344 35.081 31.4714 35.8509 32.0281 36.3788C32.6293 36.2031 33.2261 35.8269 33.6405 35.3592C34.0491 34.8978 34.3755 34.3126 34.6105 33.6196C35.0541 32.3132 35.0864 30.8598 34.7019 29.5277C34.6802 29.452 34.71 29.3709 34.7756 29.3276C34.8411 29.2845 34.9276 29.2886 34.9885 29.3384C35.2176 29.5253 35.4454 29.6475 35.7058 29.7225C37.6171 30.2739 39.7181 30.0261 41.4697 29.0413C41.5264 29.0097 41.5961 29.0108 41.652 29.0449C41.7075 29.0791 41.7403 29.1407 41.7377 29.2058C41.7223 29.572 41.885 29.9459 42.1846 30.232C42.4581 30.4931 42.8351 30.6759 43.2747 30.7606C43.553 30.8137 43.7626 30.8005 43.9154 30.7196C44.1128 30.6146 44.2499 30.3703 44.2824 30.0659C44.3306 29.6097 44.3583 28.4874 43.5727 27.922C43.1462 27.6151 42.5371 27.5692 42.0561 27.8079C42.0022 27.8344 41.9383 27.8326 41.886 27.8025C41.8338 27.7724 41.8 27.718 41.7965 27.6578C41.7283 26.5456 40.8768 26.0576 40.0529 25.7272C39.3223 25.4342 38.2445 25.3889 37.5436 25.44C36.7151 25.4996 35.9553 25.6455 35.2848 25.8737C34.3993 26.1749 33.9862 26.6466 33.9754 26.8852C33.9731 26.9388 33.9468 26.9887 33.904 27.021C33.861 27.053 33.806 27.0644 33.7537 27.0521C33.5646 27.0064 33.3755 26.9856 33.1893 26.9856Z" fill="#22363F"/>
<path d="M41.0589 40.7719C40.1697 40.7719 39.0735 40.4617 37.8589 39.4528C37.7824 39.3894 37.7719 39.2759 37.8354 39.1994C37.8988 39.1228 38.0126 39.1125 38.0887 39.176C40.1452 40.8844 41.811 40.4485 42.6212 40.0365C43.7902 39.4421 44.6192 38.1623 44.5495 37.0595C44.4825 36.0005 44.2937 35.4736 44.0543 34.8065C43.8069 34.1163 43.4987 33.2571 43.2366 31.5231C42.7732 28.4559 40.0571 27.5339 39.7844 27.4489C37.0375 27.4559 35.199 28.069 34.1643 29.323C33.2238 30.4626 32.966 32.1805 33.3982 34.4284C33.4169 34.5261 33.353 34.6203 33.2554 34.6391C33.1573 34.6594 33.0635 34.5941 33.0447 34.4965C32.5914 32.1382 32.8746 30.3206 33.8865 29.094C34.9971 27.7482 36.9348 27.0922 39.8103 27.0891H39.8106C39.8267 27.0891 39.8428 27.0913 39.8583 27.0957C39.8905 27.1044 43.0711 28.02 43.5923 31.4693C43.8491 33.1689 44.138 33.9745 44.3928 34.6853C44.6318 35.3517 44.8382 35.927 44.9084 37.0372C44.988 38.2946 44.0945 39.6914 42.7842 40.3574C42.383 40.5615 41.7912 40.7719 41.0589 40.7719Z" fill="#22363F"/>
<path d="M34.8494 35.4677C34.8494 35.4677 33.6128 33.3538 31.8992 34.1942C30.1858 35.0345 31.2811 37.2181 32.1054 37.8424C32.8542 38.4095 33.5918 38.6865 34.3215 38.6066" fill="white"/>
<path d="M34.0776 38.8C33.4094 38.8 32.7109 38.5271 31.9968 37.9861C31.441 37.5652 30.7238 36.4368 30.8227 35.413C30.8817 34.8011 31.2265 34.3238 31.8201 34.0326C33.6623 33.1282 34.9915 35.3542 35.0049 35.377C35.0551 35.4628 35.0261 35.5729 34.9405 35.6231C34.8547 35.6739 34.7445 35.6447 34.6944 35.5589C34.6473 35.4788 33.5203 33.6002 31.9786 34.356C31.4964 34.5924 31.228 34.9598 31.1809 35.4479C31.096 36.3293 31.7379 37.3387 32.2141 37.6995C32.9574 38.262 33.6412 38.5008 34.3019 38.4282C34.4012 38.4128 34.4896 38.4887 34.5004 38.5873C34.5111 38.6862 34.4398 38.775 34.341 38.7858C34.2538 38.795 34.1659 38.8 34.0776 38.8Z" fill="#22363F"/>
<path d="M34.1038 36.9298C34.0337 36.9298 33.967 36.8885 33.9381 36.8201C33.6275 36.0872 32.8281 36.1753 32.7945 36.1798C32.6969 36.1929 32.6061 36.1219 32.594 36.0235C32.5815 35.9252 32.6508 35.8356 32.7491 35.8227C33.1294 35.7731 33.9346 35.89 34.2693 36.6795C34.3082 36.7712 34.2655 36.8768 34.1739 36.9155C34.1509 36.9253 34.1272 36.9298 34.1038 36.9298Z" fill="#22363F"/>
<path d="M38.9308 32.6782C38.1126 32.8841 37.3888 33.1765 36.6174 33.5113C36.5348 33.5472 36.4531 33.4592 36.5006 33.385C36.9867 32.6256 38.071 32.2117 38.9403 32.5089C39.025 32.5377 39.0181 32.6563 38.9308 32.6782Z" fill="#22363F"/>
<path d="M42.871 31.715C42.2863 31.7127 41.7437 31.8085 41.1596 31.9303C41.0972 31.9436 41.0634 31.8466 41.112 31.7908C41.6074 31.2235 42.4156 31.1021 42.9166 31.566C42.9662 31.6103 42.9332 31.7146 42.871 31.715Z" fill="#22363F"/>
<path d="M41.4017 37.0108C41.307 37.0108 41.2276 36.9371 41.2223 36.8411C41.2166 36.742 41.2923 36.6569 41.3915 36.6511C41.6752 36.6349 41.9454 36.4515 42.064 36.1949C42.1828 35.9382 42.1475 35.6117 41.9764 35.3829C41.8478 35.2107 41.6501 35.0958 41.4405 34.974C41.309 34.8977 41.173 34.8186 41.0476 34.7215C40.6866 34.4415 40.4496 34.0596 40.302 33.52C40.1741 33.0532 40.1801 32.531 40.3183 32.0868C40.348 31.992 40.4487 31.9385 40.5436 31.9686C40.6384 31.9981 40.6916 32.0989 40.662 32.1937C40.5437 32.5743 40.539 33.0229 40.6491 33.4249C40.777 33.8922 40.968 34.2042 41.2682 34.437C41.3746 34.5196 41.4944 34.589 41.6213 34.663C41.8529 34.7974 42.0924 34.9366 42.2647 35.1675C42.5165 35.5046 42.5659 35.9672 42.3907 36.346C42.2154 36.7256 41.8313 36.9867 41.4121 37.0107C41.4086 37.0108 41.4052 37.0108 41.4017 37.0108Z" fill="#22363F"/>
<path d="M42.5094 33.3454C42.5692 33.62 42.4731 33.8749 42.2966 33.9117C42.1199 33.9483 41.9279 33.7534 41.8681 33.4788C41.8081 33.2025 41.9028 32.9496 42.0794 32.913C42.2559 32.876 42.4493 33.069 42.5094 33.3454Z" fill="#22363F"/>
<path d="M38.9504 34.8131C39.0345 35.1045 38.9498 35.3859 38.7626 35.4382C38.5753 35.4906 38.3546 35.2945 38.2704 35.0032C38.1857 34.7099 38.2693 34.4309 38.4566 34.3785C38.6438 34.3262 38.8657 34.5199 38.9504 34.8131Z" fill="#22363F"/>
<path d="M41.2314 37.9277C40.4855 37.9277 40.0195 37.5179 39.9951 37.4959C39.9213 37.4294 39.9153 37.3154 39.9817 37.2416C40.0482 37.168 40.1615 37.1622 40.2354 37.2278C40.2627 37.252 40.8655 37.7689 41.7867 37.4787C41.8812 37.4475 41.9824 37.5011 42.0125 37.5958C42.0425 37.6907 41.99 37.7917 41.8953 37.8218C41.6555 37.8977 41.4333 37.9277 41.2314 37.9277Z" fill="#22363F"/>
<path d="M37.6358 51.2458C33.8498 51.2458 30.1584 49.8101 27.3486 47.2098C27.234 47.1077 27.1213 46.9982 27.0088 46.889C24.4675 44.3937 22.8861 41.0739 22.5552 37.5406C22.1822 33.5594 23.384 29.6846 25.9391 26.6301C28.498 23.5712 32.1069 21.7011 36.1008 21.3641C44.3372 20.6671 51.6673 26.7934 52.4378 35.0164C52.7299 38.1349 52.0546 41.2027 50.4851 43.8888C50.1446 44.4675 49.7713 45.0188 49.375 45.5276C46.8391 48.78 43.0182 50.8448 38.8921 51.193C38.4731 51.2282 38.0536 51.2458 37.6358 51.2458ZM37.3752 21.6701C36.9631 21.6701 36.5488 21.6875 36.131 21.7226C32.2334 22.0514 28.7121 23.8763 26.2151 26.861C23.722 29.8415 22.5495 33.6223 22.9134 37.507C23.2366 40.9561 24.7803 44.1966 27.2603 46.6317C27.3686 46.7368 27.4775 46.8425 27.5905 46.9435C30.6388 49.7642 34.7458 51.1813 38.8618 50.8345C42.8884 50.4947 46.6167 48.4798 49.0912 45.3065C49.4777 44.8098 49.8424 44.2716 50.1747 43.7067C51.7058 41.0866 52.3648 38.093 52.0797 35.0502C51.3666 27.4396 44.8979 21.6701 37.3752 21.6701Z" fill="#22363F"/>
<path d="M87.7647 27.1472L91.5774 67.845C91.7694 69.8949 90.2604 71.6972 88.2066 71.8704L54.7602 74.692C52.7066 74.8653 50.886 73.3439 50.6939 71.294L46.8812 30.5961C46.6892 28.5462 48.1984 26.744 50.252 26.5707L83.6985 23.7491C85.752 23.576 87.5726 25.0973 87.7647 27.1472Z" fill="white"/>
<path d="M54.4427 74.8853C52.4328 74.8853 50.7051 73.3444 50.5148 71.3111L46.7022 30.6131C46.6049 29.574 46.9186 28.563 47.5854 27.7656C48.2531 26.9673 49.1948 26.4796 50.237 26.3916L83.6835 23.57C85.8319 23.3897 87.743 24.9859 87.9439 27.1304L91.7564 67.8281C91.8538 68.867 91.5402 69.8782 90.8734 70.6753C90.2057 71.4736 89.264 71.9616 88.2217 72.0494L54.7752 74.871C54.6637 74.8805 54.5525 74.8853 54.4427 74.8853ZM84.0158 23.9159C83.9157 23.9159 83.815 23.9201 83.7135 23.9286L50.267 26.7501C49.3214 26.8301 48.467 27.2727 47.8612 27.9966C47.2564 28.7193 46.972 29.6367 47.0602 30.5792L50.8728 71.2772C51.0553 73.2261 52.7912 74.674 54.7448 74.5126L88.1913 71.691C89.1371 71.6111 89.9914 71.1685 90.5971 70.4446C91.2019 69.7215 91.4863 68.8043 91.3979 67.862L87.5854 27.1641C87.4123 25.3166 85.8419 23.9159 84.0158 23.9159Z" fill="#22363F"/>
<path d="M57.3186 48.6005C57.3186 48.6005 56.5315 45.1939 58.8289 43.8673C61.1093 42.5505 59.7082 40.6997 60.5167 39.6613C61.3251 38.623 63.2168 39.2193 63.3988 37.3972C63.5822 35.5626 66.2708 33.4981 67.9039 33.8752C69.5193 34.2483 69.7392 34.4196 70.1825 33.6862C70.6262 32.9524 72.9873 33.2486 74.397 35.0205C75.7846 36.7644 77.9357 38.1174 78.3025 41.3394C78.6633 44.5081 77.0574 44.0082 78.7939 47.122C80.4882 50.1601 80.4839 50.2439 80.4839 50.2439C80.4839 50.2439 77.4863 49.369 74.9806 50.033C72.4439 50.7052 69.7071 51.9981 67.5159 51.1409C65.2872 50.2688 63.7848 49.4481 61.8898 49.6271C59.9753 49.8079 57.3186 48.6005 57.3186 48.6005Z" fill="#22363F"/>
<path d="M69.1382 51.6041C68.5528 51.6041 67.9865 51.5184 67.4502 51.3085C67.0578 51.1551 66.688 51.0032 66.3344 50.8579C64.7086 50.1901 63.4234 49.6625 61.9066 49.8063C59.9675 49.9891 57.3544 48.8146 57.244 48.7644C57.193 48.7411 57.1557 48.6957 57.1431 48.6412C57.1098 48.4969 56.3535 45.089 58.7388 43.7116C60.0742 42.9406 60.0612 42.0053 60.0486 41.1009C60.0406 40.5294 60.0332 39.9893 60.3746 39.5507C60.7331 39.0901 61.2638 38.9262 61.777 38.7681C62.4989 38.5451 63.1224 38.3527 63.2198 37.3795C63.3157 36.4188 64.0677 35.3259 65.1822 34.5266C66.1495 33.8328 67.182 33.5241 67.9443 33.7001C68.1442 33.7463 68.3229 33.7894 68.4832 33.8281C69.6154 34.1008 69.7078 34.1233 70.0284 33.5932C70.1881 33.329 70.5309 33.1671 70.994 33.1372C71.9748 33.0767 73.4984 33.602 74.5377 34.9085C74.8679 35.3234 75.2386 35.7124 75.6306 36.1238C76.8332 37.3855 78.196 38.8157 78.481 41.3191C78.631 42.637 78.447 43.3457 78.2991 43.9151C78.0911 44.7163 77.9536 45.2459 78.9509 47.0342C80.6704 50.1176 80.6666 50.1927 80.6635 50.2533C80.6607 50.3081 80.6329 50.3587 80.5881 50.3906C80.5432 50.4225 80.486 50.4324 80.4334 50.4166C80.4039 50.4082 77.4532 49.5641 75.0265 50.2069C74.4726 50.3538 73.8966 50.5342 73.3396 50.7088C71.928 51.1512 70.4829 51.6041 69.1382 51.6041ZM62.4139 49.4223C63.786 49.4223 64.9908 49.9171 66.4712 50.5251C66.8229 50.6694 67.191 50.8204 67.5814 50.9732C69.2315 51.6186 71.2652 50.9817 73.2319 50.3654C73.7926 50.1897 74.3726 50.0078 74.9344 49.859C76.9567 49.3225 79.2518 49.758 80.1493 49.9714C79.9567 49.6026 79.5395 48.8283 78.6366 47.2093C77.569 45.2951 77.7292 44.6781 77.951 43.8244C78.0986 43.2555 78.266 42.611 78.1236 41.3596C77.8522 38.9761 76.5905 37.6524 75.3702 36.3718C74.9723 35.9544 74.5964 35.5598 74.2562 35.1321C73.2972 33.9265 71.9048 33.4425 71.0171 33.4961C70.68 33.5178 70.4319 33.6209 70.3363 33.7788C69.8797 34.5345 69.5362 34.4518 68.3988 34.1773C68.2394 34.139 68.062 34.096 67.8633 34.0501C67.2002 33.8978 66.2764 34.1841 65.3919 34.8186C64.3746 35.5483 63.6625 36.5671 63.5778 37.4146C63.4568 38.6256 62.6207 38.8839 61.8832 39.1114C61.4021 39.26 60.9477 39.4003 60.6586 39.7714C60.3948 40.1102 60.4011 40.5668 60.4085 41.0953C60.4211 42.0089 60.4372 43.1462 58.9189 44.0226C56.9632 45.1518 57.3779 47.944 57.4763 48.4729C57.9383 48.6714 60.2132 49.6048 61.8727 49.4472C62.0566 49.4306 62.2368 49.4223 62.4139 49.4223Z" fill="#22363F"/>
<path d="M80.5181 53.5726C78.094 56.682 74.423 58.8092 70.161 59.1688C65.6505 59.5494 61.4241 57.8702 58.4182 54.9172C61.4979 52.2487 64.8457 52.0614 64.8457 52.0614L74.0746 51.5032C74.0746 51.5032 77.671 52.0607 80.5181 53.5726Z" fill="#D1BBBC"/>
<path d="M66.3544 47.1062C66.3544 47.1062 67.0429 51.3335 64.8459 52.0606C64.8459 52.0606 66.0097 56.69 69.9658 56.3563C73.9219 56.0226 74.3648 52.9928 74.0755 51.5036L72.7323 51.2792C72.7323 51.2792 72.6893 48.9466 72.9938 48.1923C73.2982 47.4382 65.7248 44.9874 65.7248 44.9874L66.3544 47.1062Z" fill="white"/>
<path d="M72.7322 51.2792C72.7322 51.2792 72.7417 51.9554 72.8053 52.3011L72.7322 51.2792Z" fill="#0D1029"/>
<path d="M72.8051 52.481C72.72 52.481 72.6444 52.4203 72.6283 52.3336C72.5627 51.9772 72.5527 51.3096 72.5523 51.2816C72.5509 51.1823 72.6303 51.1005 72.7297 51.0991C72.7306 51.0991 72.7314 51.0991 72.7323 51.0991C72.8305 51.0991 72.9108 51.1781 72.9123 51.2765C72.9125 51.2832 72.9223 51.942 72.9825 52.2686C73.0004 52.3662 72.9359 52.4603 72.8381 52.478C72.8268 52.48 72.8159 52.481 72.8051 52.481Z" fill="#0D1029"/>
<path d="M69.565 56.5534C65.8338 56.5539 64.6828 52.1505 64.6712 52.1043C64.6483 52.013 64.6997 51.9192 64.7892 51.8897C66.7636 51.2359 66.2137 47.3787 66.1783 47.1457L65.5523 45.0388C65.5332 44.9746 65.5512 44.9055 65.5991 44.8586C65.6468 44.812 65.7164 44.7957 65.7802 44.8163C66.9373 45.1907 72.7308 47.1038 73.1471 47.9945C73.2005 48.1088 73.1839 48.2018 73.1606 48.2596C72.9165 48.8648 72.9078 50.6048 72.9108 51.1266L74.1051 51.3262C74.1792 51.3383 74.2379 51.3955 74.2522 51.4694C74.4308 52.3895 74.3301 53.7584 73.5111 54.8417C72.7628 55.8311 71.5752 56.4011 69.981 56.5357C69.8392 56.5475 69.7001 56.5534 69.565 56.5534ZM65.0635 52.1706C65.3025 52.9677 66.55 56.4647 69.9506 56.177C71.4387 56.0515 72.54 55.529 73.2241 54.6245C73.9363 53.6824 74.0526 52.4995 73.9203 51.66L72.7028 51.4565C72.6173 51.4424 72.5542 51.3691 72.5525 51.2824C72.5508 51.1863 72.5131 48.9372 72.8201 48.1422C72.653 47.6822 69.29 46.3466 65.995 45.2649L66.5268 47.055C66.5289 47.0625 66.5308 47.0698 66.532 47.0775C66.5603 47.2515 67.1873 51.2655 65.0635 52.1706Z" fill="#22363F"/>
<path d="M68.9783 47.9054C68.9783 47.9054 70.285 49.5974 72.3952 49.593C74.507 49.5885 75.764 48.4213 75.7387 46.1452C75.7135 43.8675 74.7254 42.9275 74.473 40.3948C74.4442 40.1079 74.4066 39.8391 74.3616 39.5882C74.3342 39.4305 74.304 39.2803 74.2708 39.1362C74.2665 39.1194 74.2622 39.1028 74.2579 39.0863C73.9713 38.0032 73.2642 37.0765 72.3093 36.4832C71.6885 36.0976 70.8597 35.6646 70.1009 35.5349C70.1009 35.5349 71.2382 41.2974 66.2529 43.3597C66.2631 45.8403 67.0907 47.4425 68.9783 47.9054Z" fill="white"/>
<path d="M73.9874 45.3644C74.0073 46.0885 73.6241 46.6851 73.1322 46.6943C72.639 46.7037 72.2247 46.1222 72.2048 45.3981L73.9874 45.3644Z" fill="white"/>
<path d="M73.1199 46.8743C72.5273 46.8743 72.0476 46.2321 72.025 45.403C72.0236 45.3549 72.0415 45.3086 72.0747 45.2739C72.1078 45.2393 72.1534 45.2191 72.2015 45.2182L73.9842 45.1844C73.9854 45.1844 73.9865 45.1844 73.9877 45.1844C74.0849 45.1844 74.1648 45.2618 74.1674 45.3595C74.1808 45.842 74.0268 46.2996 73.7558 46.5835C73.5782 46.7696 73.3639 46.8701 73.1358 46.8746C73.1302 46.8743 73.125 46.8743 73.1199 46.8743ZM72.399 45.5742C72.4696 46.1017 72.776 46.5144 73.1204 46.5144C73.1232 46.5144 73.1258 46.5144 73.1285 46.5144C73.2927 46.5113 73.4185 46.4151 73.4951 46.3347C73.6692 46.1522 73.7797 45.8664 73.8032 45.5477L72.399 45.5742Z" fill="#22363F"/>
<path d="M72.3865 49.7727C70.218 49.7727 68.8915 48.0872 68.836 48.0153C68.7754 47.9368 68.7898 47.8239 68.8684 47.7632C68.9469 47.7025 69.0599 47.7168 69.1208 47.7952C69.1332 47.8114 70.3987 49.4128 72.3868 49.4128C72.3896 49.4128 72.3923 49.4128 72.3951 49.4128C73.4175 49.4107 74.2099 49.1321 74.7496 48.5853C75.2986 48.029 75.5708 47.2088 75.5592 46.147C75.5463 44.9772 75.2695 44.1582 74.9765 43.2912C74.701 42.4761 74.4159 41.6329 74.2942 40.4126C74.267 40.1399 74.2302 39.873 74.1849 39.6198C74.158 39.4648 74.1284 39.3178 74.0957 39.1768L74.0871 39.143C73.8187 38.1096 73.1537 37.2197 72.2148 36.6361C71.7117 36.3236 70.9973 35.936 70.3175 35.7647C70.4653 36.9381 70.7664 41.6877 66.322 43.526C66.2302 43.5638 66.125 43.5202 66.087 43.4286C66.0489 43.3368 66.0927 43.2313 66.1845 43.1934C70.9726 41.2128 69.9698 35.7994 69.9248 35.5698C69.9134 35.5119 69.9313 35.452 69.9725 35.4095C70.0138 35.3668 70.0726 35.348 70.1316 35.3577C70.9381 35.4956 71.813 35.9626 72.4048 36.3305C73.4226 36.9629 74.1438 37.9294 74.4353 39.0519L74.4458 39.0927C74.4806 39.2428 74.5114 39.3964 74.5394 39.5573C74.5862 39.8191 74.6243 40.0951 74.6525 40.377C74.7701 41.5565 75.0484 42.3798 75.3176 43.176C75.62 44.071 75.9057 44.916 75.9193 46.1434C75.9322 47.3046 75.6248 48.2113 75.006 48.8383C74.3963 49.4561 73.5182 49.7706 72.396 49.7729C72.3927 49.7727 72.3896 49.7727 72.3865 49.7727Z" fill="#22363F"/>
<path d="M67.4996 43.9377C67.4996 43.9377 65.2748 41.8011 64.5037 43.5986C63.888 45.0339 65.838 46.6063 67.0869 46.4801" fill="white"/>
<path d="M66.9423 46.6672C66.1605 46.6675 65.2014 46.1378 64.6456 45.3807C64.197 44.7695 64.0878 44.1113 64.3382 43.5276C64.5328 43.0741 64.8316 42.8037 65.2261 42.7236C66.2615 42.5125 67.5691 43.7552 67.6242 43.8079C67.696 43.8767 67.6982 43.9907 67.6293 44.0623C67.5606 44.1342 67.4464 44.1364 67.3751 44.0674C67.3629 44.0557 66.1488 42.9041 65.2974 43.0761C65.0218 43.1323 64.8164 43.3263 64.6691 43.6696C64.4018 44.2925 64.7215 44.8756 64.9359 45.1677C65.4527 45.8718 66.3899 46.3702 67.0688 46.3013C67.1689 46.2913 67.256 46.3632 67.2659 46.4622C67.2759 46.5611 67.204 46.6492 67.1051 46.6594C67.0518 46.6646 66.9975 46.6672 66.9423 46.6672Z" fill="#22363F"/>
<path d="M71.2248 40.0043C70.5527 40.2286 69.9663 40.5231 69.3431 40.857C69.2764 40.8927 69.2012 40.8208 69.2357 40.7535C69.5881 40.0659 70.4685 39.6459 71.2205 39.8564C71.2936 39.8769 71.2965 39.9802 71.2248 40.0043Z" fill="#22363F"/>
<path d="M74.3619 39.5883C74.0205 39.6356 73.6792 39.6965 73.3307 39.7859C73.2571 39.8041 73.2033 39.7155 73.254 39.6584C73.5113 39.3678 73.8816 39.1913 74.271 39.1364C74.3041 39.2805 74.3345 39.4306 74.3619 39.5883Z" fill="#22363F"/>
<path d="M73.7903 44.5252C73.7234 44.5252 73.6594 44.4879 73.6281 44.4235C73.5848 44.3342 73.6223 44.2266 73.7117 44.1834C73.8919 44.0963 74.0973 43.9139 74.0835 43.6873C74.0712 43.4844 73.8248 43.2522 73.5394 42.9832C73.2332 42.6946 72.8864 42.3676 72.6323 41.9187C72.2449 41.2339 72.2828 40.187 72.2845 40.1429C72.2885 40.0438 72.3713 39.9601 72.4716 39.9705C72.5707 39.9745 72.6481 40.0581 72.6442 40.1574C72.6437 40.1673 72.6091 41.1466 72.9456 41.7415C73.1729 42.1428 73.4987 42.45 73.7863 42.7211C74.1274 43.0425 74.422 43.3201 74.4428 43.6652C74.4674 44.0692 74.1622 44.365 73.8685 44.507C73.8432 44.5193 73.8166 44.5252 73.7903 44.5252Z" fill="#22363F"/>
<path d="M74.1493 41.6846C74.2034 41.8987 74.1536 42.0955 74.0386 42.1234C73.9234 42.1514 73.7871 41.9999 73.7331 41.7857C73.6785 41.5702 73.7271 41.3739 73.8421 41.3458C73.9573 41.318 74.095 41.469 74.1493 41.6846Z" fill="#22363F"/>
<path d="M71.3754 42.1788C71.4424 42.4441 71.3589 42.6933 71.1894 42.7346C71.0198 42.7758 70.8292 42.5932 70.7622 42.3278C70.6947 42.0608 70.7763 41.8121 70.9459 41.771C71.1155 41.7297 71.308 41.9117 71.3754 42.1788Z" fill="#22363F"/>
<path d="M66.7522 45.3132C66.6745 45.3132 66.6026 45.2624 66.5795 45.1842C66.4095 44.6064 65.7793 44.5506 65.7524 44.5485C65.6537 44.5408 65.5793 44.4545 65.5867 44.3557C65.5941 44.2568 65.6825 44.184 65.7784 44.1895C65.8152 44.1921 66.6833 44.2623 66.9248 45.0824C66.9528 45.1777 66.8981 45.2778 66.803 45.3059C66.7862 45.3109 66.7689 45.3132 66.7522 45.3132Z" fill="#22363F"/>
<path d="M59.8776 69.7199C59.4314 69.7576 59.0341 69.4287 58.9888 68.9827C58.9434 68.5347 59.2706 68.1379 59.7194 68.0966L81.6989 66.2424C81.7009 66.2423 81.7029 66.2421 81.7052 66.242C82.1514 66.2044 82.5497 66.5453 82.595 66.9913C82.6405 67.4393 82.3121 67.824 81.8632 67.8653L59.8837 69.7194C59.8819 69.7194 59.8799 69.7196 59.8776 69.7199Z" fill="#E5E3E3"/>
<path d="M86.5555 63.1551L54.3775 65.8696C53.9283 65.9075 53.53 65.5747 53.488 65.1263C53.4459 64.678 53.7761 64.2836 54.2253 64.2457L86.4033 61.5311C86.8526 61.4933 87.2508 61.826 87.2928 62.2745C87.3349 62.7229 87.0045 63.1172 86.5555 63.1551Z" fill="#E5E3E3"/>
<path d="M68.9072 59.4013C64.9589 59.4017 61.1476 57.8507 58.2921 55.0456C55.7516 52.5503 54.1703 49.2306 53.8393 45.6977C53.4664 41.716 54.668 37.8412 57.2233 34.7868C59.782 31.728 63.3909 29.8581 67.3852 29.5212C75.6222 28.827 82.9518 34.9506 83.7221 43.1734C84.0771 46.9615 82.9895 50.6942 80.6601 53.6833C78.1248 56.9353 74.3036 59.0002 70.1761 59.3482C69.7523 59.3836 69.3288 59.4013 68.9072 59.4013ZM68.6594 29.8269C68.2473 29.8269 67.8332 29.8443 67.4154 29.8794C63.5175 30.208 59.9959 32.0331 57.4991 35.0176C55.0062 37.9978 53.8335 41.7787 54.1974 45.6638C54.5205 49.1125 56.0642 52.3529 58.544 54.7887C61.6297 57.8196 65.8569 59.3496 70.1456 58.9894C74.1733 58.6497 77.9021 56.6349 80.376 53.4619C82.6489 50.5453 83.7099 46.9032 83.3636 43.2069C82.6509 35.5965 76.1823 29.8269 68.6594 29.8269Z" fill="#22363F"/>
<path d="M17.5958 95.34C16.3853 95.34 15.4006 94.3554 15.4006 93.1449C15.4006 91.9354 16.3855 90.9517 17.5958 90.9517C18.8062 90.9517 19.791 91.9354 19.791 93.1449C19.791 94.3554 18.8063 95.34 17.5958 95.34ZM17.5958 91.3116C16.5838 91.3116 15.7605 92.1339 15.7605 93.1449C15.7605 94.1569 16.5838 94.9802 17.5958 94.9802C18.6078 94.9802 19.4311 94.1569 19.4311 93.1449C19.4311 92.1339 18.6078 91.3116 17.5958 91.3116Z" fill="#007BD1"/>
<path d="M121.204 19.7892C119.993 19.7892 119.009 18.8044 119.009 17.5938C119.009 16.3843 119.993 15.4005 121.204 15.4005C122.414 15.4005 123.399 16.3843 123.399 17.5938C123.399 18.8045 122.414 19.7892 121.204 19.7892ZM121.204 15.7606C120.192 15.7606 119.368 16.5829 119.368 17.5939C119.368 18.6062 120.192 19.4295 121.204 19.4295C122.216 19.4295 123.039 18.6062 123.039 17.5939C123.039 16.5829 122.216 15.7606 121.204 15.7606Z" fill="#D1BBBC"/>
<path d="M65.8022 138.599C64.3011 138.599 62.7852 138.323 61.2961 137.777C59.0165 136.941 53.5706 133.904 52.2391 123.764C52.2262 123.665 52.2956 123.575 52.394 123.562C52.4927 123.547 52.583 123.618 52.5959 123.717C53.9018 133.662 59.2019 136.626 61.4201 137.439C62.8693 137.97 64.3437 138.24 65.8023 138.24C65.803 138.24 65.8036 138.24 65.8042 138.24C65.9035 138.24 65.9842 138.32 65.9842 138.42C65.9841 138.519 65.8984 138.591 65.8022 138.599Z" fill="#22363F"/>
<path d="M55.8727 101.995C55.8727 101.995 51.5478 130.417 62.5196 134.438C73.3739 138.416 79.1775 121.695 79.1775 121.695L64.6231 115.022L66.0138 111.635L60.9382 98.1034" fill="white"/>
<path d="M65.8082 135.229C64.7074 135.229 63.5886 135.022 62.4577 134.607C57.8324 132.912 55.2903 126.892 54.9019 116.715C54.6142 109.177 55.6839 102.039 55.6947 101.967C55.7098 101.869 55.802 101.804 55.8997 101.817C55.9979 101.832 56.0654 101.923 56.0506 102.022C56.0075 102.304 51.8729 130.344 62.5816 134.269C64.9755 135.146 67.3127 135.059 69.528 134.009C75.2271 131.308 78.4921 123.022 78.9515 121.789L64.548 115.186C64.4602 115.145 64.4199 115.043 64.4565 114.954L65.8202 111.632L60.7696 98.1664C60.7346 98.0734 60.7818 97.9696 60.8749 97.9347C60.9678 97.9005 61.0717 97.9471 61.1065 98.0398L66.1819 111.572C66.1978 111.614 66.1972 111.661 66.1799 111.703L64.8549 114.93L79.2522 121.531C79.3366 121.569 79.3777 121.666 79.3472 121.753C79.314 121.849 75.952 131.361 69.683 134.333C68.4251 134.93 67.1296 135.229 65.8082 135.229Z" fill="#22363F"/>
<path d="M62.5336 122.153C62.5236 122.153 62.5136 122.152 62.5036 122.15C62.4056 122.133 62.3396 122.041 62.356 121.943C62.8572 118.965 64.4403 114.995 64.4561 114.955C64.4931 114.863 64.5981 114.819 64.6901 114.855C64.7823 114.892 64.8271 114.997 64.7902 115.089C64.7743 115.129 63.2055 119.063 62.7108 122.002C62.6959 122.091 62.6198 122.153 62.5336 122.153Z" fill="#22363F"/>
<path d="M60.2169 78.8678L53.1437 91.9616C52.2159 93.6792 52.9518 95.8229 54.7388 96.6086C56.5259 97.3943 58.603 96.4872 59.2413 94.6425L64.1077 80.5784L60.2169 78.8678Z" fill="#22363F"/>
<path d="M56.0836 97.0701C55.6001 97.0701 55.1165 96.9712 54.6664 96.7732C53.7687 96.3785 53.0712 95.6202 52.7529 94.693C52.4346 93.7654 52.5193 92.7387 52.9853 91.876L60.0585 78.7822C60.1029 78.6995 60.2031 78.6648 60.2892 78.703L64.1802 80.4136C64.2661 80.4514 64.3085 80.5485 64.2778 80.6371L59.4114 94.7013C59.0908 95.6279 58.3915 96.3845 57.493 96.7769C57.045 96.9725 56.5643 97.0701 56.0836 97.0701ZM60.2961 79.0991L53.3018 92.0471C52.8773 92.8331 52.8031 93.7312 53.0933 94.5761C53.3834 95.4209 53.9934 96.0842 54.8111 96.4439C55.6289 96.8031 56.5302 96.8045 57.3489 96.447C58.1676 96.0894 58.7791 95.4279 59.0712 94.5836L63.8833 80.6762L60.2961 79.0991Z" fill="#22363F"/>
<path d="M53.9751 63.4607C51.404 70.0892 54.4695 77.4596 60.8221 79.9238C67.1746 82.3879 74.4081 79.0122 76.979 72.3838C79.5511 65.7522 76.4869 58.3785 70.1344 55.9144C63.7821 53.4504 56.5473 56.8291 53.9751 63.4607ZM57.1297 64.6808C58.9962 59.8688 64.2465 57.416 68.8582 59.2049C73.4699 60.9938 75.6932 66.3454 73.8267 71.1576C71.9603 75.9697 66.7101 78.4223 62.0982 76.6334C57.4866 74.8445 55.2634 69.4929 57.1297 64.6808Z" fill="#22363F"/>
<path d="M65.1281 80.9133C63.6475 80.9133 62.1713 80.6401 60.7571 80.0916C54.3222 77.5956 51.2046 70.1059 53.8074 63.3955C55.0682 60.1449 57.4668 57.5588 60.5609 56.1136C63.6582 54.6673 67.0813 54.5373 70.1995 55.7467C76.6344 58.2427 79.7509 65.7353 77.1469 72.449C75.8865 75.6983 73.4886 78.2829 70.3947 79.7265C68.7026 80.5163 66.9123 80.9133 65.1281 80.9133ZM65.8308 55.2856C64.0972 55.2856 62.3583 55.6715 60.7132 56.4398C57.7035 57.8454 55.37 60.3619 54.1428 63.5258C51.6118 70.051 54.6373 77.3318 60.8871 79.756C63.9137 80.9303 67.2359 80.8038 70.2426 79.4003C73.2519 77.996 75.5849 75.481 76.8113 72.3188C79.3435 65.7901 76.319 58.5065 70.0693 56.0822C68.6986 55.5505 67.2665 55.2856 65.8308 55.2856ZM65.2231 77.4008C64.1428 77.4008 63.0653 77.2013 62.0333 76.8012C57.3374 74.9796 55.0624 69.5132 56.9621 64.6157C57.8818 62.2448 59.6312 60.3585 61.8884 59.3047C64.1485 58.249 66.6468 58.1543 68.9233 59.0373C73.6192 60.8587 75.8942 66.3251 73.9945 71.2229C73.0748 73.5937 71.3254 75.4801 69.0682 76.5339C67.8326 77.1109 66.526 77.4008 65.2231 77.4008ZM65.7339 58.7977C64.4828 58.7977 63.2277 59.0763 62.0407 59.6304C59.8679 60.6451 58.1835 62.4617 57.2977 64.7458C55.4697 69.4582 57.6525 74.7158 62.1634 76.4655C64.3476 77.3127 66.7459 77.2209 68.916 76.2077C71.0888 75.193 72.7733 73.3764 73.6591 71.0923C75.4869 66.3796 73.3041 61.1223 68.7933 59.3726C67.8037 58.989 66.7702 58.7977 65.7339 58.7977Z" fill="#22363F"/>
<path d="M56.1164 64.4829C53.5454 71.1113 56.6109 78.4818 62.9634 80.9459C69.3159 83.4101 76.5494 80.0344 79.1203 73.4059C81.6924 66.7744 78.6283 59.4007 72.2758 56.9365C65.9234 54.4724 58.6887 57.8513 56.1164 64.4829ZM59.2711 65.7028C61.1376 60.8908 66.3879 58.438 70.9996 60.2269C75.6113 62.0158 77.8346 67.3674 75.9681 72.1796C74.1016 76.9917 68.8513 79.4443 64.2396 77.6554C59.6279 75.8665 57.4048 70.5149 59.2711 65.7028Z" fill="white"/>
<path d="M67.2696 81.9353C65.789 81.9356 64.3125 81.6624 62.8983 81.1135C56.4637 78.6176 53.346 71.1279 55.9487 64.4178C57.2095 61.1671 59.6081 58.581 62.7024 57.1359C65.7995 55.6898 69.2226 55.5595 72.341 56.7689C78.7757 59.2649 81.8922 66.7575 79.2882 73.471C78.0279 76.7202 75.6301 79.3049 72.5361 80.7487C70.8439 81.5384 69.054 81.9353 67.2696 81.9353ZM67.9723 56.3078C66.2386 56.3078 64.4998 56.6937 62.8547 57.4621C59.8449 58.8676 57.5114 61.3841 56.2843 64.5481C53.7535 71.073 56.779 78.3537 63.0286 80.778C66.0552 81.9522 69.3774 81.8255 72.3841 80.4225C75.3934 79.0182 77.7264 76.5032 78.9528 73.3407C81.485 66.8122 78.4606 59.5286 72.211 57.1043C70.8401 56.5727 69.408 56.3078 67.9723 56.3078ZM67.3646 78.423C66.2841 78.423 65.2068 78.2236 64.1747 77.8232C59.4789 76.0018 57.204 70.5354 59.1036 65.6379C60.0231 63.2671 61.7727 61.3807 64.0299 60.3266C66.29 59.2714 68.7883 59.1764 71.0648 60.0593C73.3414 60.9423 75.1222 62.6973 76.0795 65.0005C77.0355 67.3011 77.0555 69.8737 76.136 72.2447C75.2165 74.6155 73.4669 76.5018 71.2097 77.556C69.9741 78.1329 68.6671 78.423 67.3646 78.423ZM67.8754 59.8198C66.6243 59.8198 65.3692 60.0984 64.182 60.6528C62.0093 61.6675 60.3248 63.4841 59.439 65.7682C57.6113 70.4806 59.794 75.738 64.3048 77.4877C66.489 78.3347 68.8871 78.2436 71.0574 77.2301C73.2302 76.2154 74.9146 74.3988 75.8004 72.1147C76.6864 69.8307 76.6674 67.3533 75.7471 65.139C74.8279 62.9269 73.1187 61.2421 70.9346 60.395C69.9452 60.0109 68.9115 59.8198 67.8754 59.8198Z" fill="#22363F"/>
<path d="M55.8726 101.995C52.569 99.6478 51.448 98.5681 50.3477 97.0832C49.6105 96.0884 48.9291 94.8287 49.3381 92.2342C49.747 89.6398 51.7085 88.8584 51.7085 88.8584L62.6104 97.6644L63.096 101.182" fill="white"/>
<path d="M55.8726 102.175C55.8365 102.175 55.8 102.164 55.7685 102.141C52.3424 99.7075 51.2827 98.6471 50.2032 97.1904C49.4201 96.1335 48.7519 94.798 49.1605 92.2062C49.5804 89.541 51.5581 88.7245 51.642 88.6913C51.7021 88.6671 51.7709 88.6772 51.8216 88.7185L62.7236 97.5249C62.7591 97.5535 62.7825 97.5946 62.7889 97.6402L63.2744 101.157C63.288 101.256 63.2191 101.347 63.1207 101.36C63.0229 101.373 62.9315 101.305 62.9178 101.207L62.442 97.76L51.6818 89.0682C51.2948 89.2574 49.8572 90.0968 49.5159 92.2627C49.1087 94.846 49.8065 96.0503 50.4923 96.9765C51.5482 98.4013 52.5907 99.4426 55.977 101.848C56.058 101.906 56.0769 102.018 56.0193 102.099C55.9844 102.148 55.9288 102.175 55.8726 102.175Z" fill="#22363F"/>
<path d="M52.4887 87.0673C52.4887 87.0673 50.4841 87.7301 49.9209 90.2954C49.3577 92.8607 50.6391 95.196 50.6391 95.196" fill="white"/>
<path d="M50.6391 95.3762C50.5755 95.3762 50.5141 95.3425 50.4813 95.2827C50.4277 95.1851 49.174 92.8583 49.7453 90.2568C50.3239 87.6217 52.3465 86.9248 52.4323 86.8965C52.5264 86.8646 52.6279 86.9164 52.6593 87.0106C52.6905 87.1046 52.6396 87.2065 52.5455 87.2381C52.4676 87.2641 50.6297 87.9063 50.0966 90.3341C49.5551 92.8003 50.7843 95.087 50.7968 95.1098C50.8445 95.197 50.8125 95.3063 50.7255 95.3539C50.6979 95.3691 50.6682 95.3762 50.6391 95.3762Z" fill="#22363F"/>
<path d="M53.6067 85.2358C53.6067 85.2358 51.5308 85.9222 50.9475 88.579C50.3643 91.2357 51.6911 93.6541 51.6911 93.6541" fill="white"/>
<path d="M51.6914 93.8342C51.6278 93.8342 51.5664 93.8004 51.5336 93.7407C51.4781 93.6397 50.1808 91.2323 50.7719 88.5404C51.3703 85.8151 53.4617 85.0943 53.5504 85.0651C53.6446 85.0332 53.7459 85.085 53.7773 85.1792C53.8086 85.2735 53.7576 85.3751 53.6635 85.4067C53.5827 85.4336 51.6762 86.0995 51.1232 88.6177C50.5618 91.1741 51.8362 93.544 51.849 93.5677C51.8967 93.6549 51.8648 93.7642 51.7777 93.8118C51.7504 93.8271 51.7207 93.8342 51.6914 93.8342Z" fill="#22363F"/>
<path d="M52.1741 91.0389C52.1741 91.0389 51.7591 86.3427 53.6157 84.4642C55.4724 82.5857 57.8523 83.245 57.8523 83.245C57.8523 83.245 56.5456 85.664 56.0528 86.5761C55.5797 87.4518 56.702 90.1726 57.1662 91.5653C57.6304 92.9577 59.4027 93.232 59.677 91.2066C59.9513 89.181 61.0906 86.0374 62.5887 86.5227C64.0867 87.0079 64.1078 89.8774 64.1078 92.6414C64.1078 95.4054 63.0961 102.732 63.0961 102.732C63.0961 102.732 65.987 108.879 66.4279 113.074" fill="white"/>
<path d="M66.4278 113.254C66.3369 113.254 66.2587 113.185 66.249 113.093C65.8164 108.977 62.9621 102.869 62.9333 102.808C62.9184 102.777 62.9132 102.741 62.9179 102.707C62.9281 102.634 63.928 95.3612 63.928 92.6412C63.928 90.0651 63.928 87.1456 62.5334 86.6939C62.283 86.6121 62.0401 86.65 61.7905 86.8071C60.8764 87.3821 60.089 89.5078 59.8555 91.2309C59.7274 92.1774 59.2517 92.7801 58.5831 92.8428C57.9092 92.9056 57.2563 92.4039 56.9957 91.622C56.9193 91.3929 56.8251 91.1277 56.7231 90.8406C56.0331 88.8993 55.4945 87.2318 55.8948 86.4908L57.5789 83.3732C56.9581 83.2717 55.1768 83.141 53.744 84.5906C51.9678 86.3879 52.3495 90.9771 52.3537 91.0231C52.3623 91.122 52.2893 91.2093 52.1903 91.2181C52.0905 91.2297 52.0041 91.1537 51.9952 91.0549C51.9779 90.8597 51.5945 86.2534 53.4881 84.3375C55.3966 82.4062 57.7991 83.0433 57.9005 83.0717C57.9533 83.0861 57.9966 83.1242 58.018 83.1745C58.0394 83.2249 58.0368 83.2823 58.0107 83.3305L56.2112 86.6617C55.8546 87.3222 56.5811 89.3672 57.0621 90.7202C57.1651 91.0097 57.2601 91.2771 57.337 91.5082C57.5412 92.1207 58.0514 92.5317 58.5494 92.4846C59.0472 92.4378 59.393 91.9633 59.4988 91.1827C59.6987 89.7066 60.4228 87.2423 61.5988 86.5026C61.9397 86.2879 62.2916 86.2374 62.6443 86.3515C64.2879 86.8841 64.2879 89.9428 64.2879 92.6415C64.2879 95.2628 63.3727 102.037 63.2817 102.704C63.5544 103.294 66.1889 109.076 66.607 113.055C66.6173 113.154 66.5456 113.243 66.4468 113.253C66.4404 113.254 66.4341 113.254 66.4278 113.254Z" fill="#22363F"/>
<path d="M135.462 114.138C135.462 114.138 139.525 121.18 138.126 128.648C136.518 137.237 128.531 137.729 123.544 133.583C115.371 126.789 119.171 119.49 119.171 119.49L135.462 114.138Z" fill="white"/>
<path d="M130.216 136.285C127.895 136.285 125.431 135.387 123.429 133.722C115.24 126.913 118.973 119.481 119.011 119.407C119.033 119.366 119.07 119.334 119.115 119.319L135.406 113.967C135.487 113.94 135.575 113.974 135.618 114.048C135.659 114.119 139.698 121.233 138.303 128.681C137.628 132.287 135.728 134.824 132.954 135.824C132.093 136.135 131.166 136.285 130.216 136.285ZM119.3 119.638C118.96 120.368 116.101 127.161 123.659 133.445C126.385 135.711 129.985 136.513 132.832 135.486C134.706 134.81 137.115 133.069 137.949 128.615C139.218 121.844 135.907 115.34 135.376 114.355L119.3 119.638Z" fill="#22363F"/>
<path d="M101.425 90.3916L106.158 88.627C106.158 88.627 117.287 89.6383 124.376 96.4846C130.328 102.233 135.462 114.138 135.462 114.138L117.372 121.515L107.277 105.872" fill="#007BD1"/>
<path d="M117.372 121.695C117.312 121.695 117.254 121.665 117.22 121.612L107.125 105.97C107.071 105.886 107.095 105.775 107.179 105.721C107.262 105.667 107.373 105.691 107.428 105.775L117.442 121.292L135.223 114.041C134.571 112.573 129.726 101.901 124.251 96.6138C117.5 90.0941 106.92 88.8867 106.182 88.81L101.488 90.5602C101.395 90.5947 101.291 90.5476 101.257 90.4543C101.222 90.3613 101.269 90.2578 101.362 90.2228L106.095 88.4581C106.121 88.4487 106.148 88.4452 106.175 88.4477C106.286 88.458 117.448 89.5437 124.501 96.3551C130.41 102.062 135.576 113.947 135.627 114.067C135.646 114.111 135.647 114.162 135.628 114.206C135.61 114.251 135.574 114.286 135.53 114.305L117.44 121.681C117.418 121.691 117.394 121.695 117.372 121.695Z" fill="#22363F"/>
<path d="M90.2739 89.1002C90.2739 89.1002 79.4321 91.8143 74.0249 96.6274C69.375 100.766 64.623 115.022 64.623 115.022L79.1774 121.695C82.4299 115.509 82.1723 113.85 84.1419 106.643" fill="#007BD1"/>
<path d="M79.1773 121.875C79.1522 121.875 79.1267 121.869 79.1025 121.858L64.5481 115.186C64.4647 115.148 64.4234 115.052 64.4523 114.965C64.647 114.381 69.2728 100.616 73.9052 96.4928C79.2833 91.7058 90.1214 88.9527 90.2301 88.9256C90.3265 88.9003 90.4241 88.9602 90.4483 89.0563C90.4725 89.1529 90.4138 89.2505 90.3174 89.2747C90.2094 89.3017 79.4559 92.0338 74.1442 96.7619C69.8405 100.593 65.3746 113.378 64.8453 114.926L79.097 121.46C81.3925 117.069 81.9039 114.935 82.7448 111.426C83.0683 110.075 83.4351 108.545 83.968 106.595C83.9942 106.499 84.093 106.443 84.189 106.468C84.2848 106.495 84.3413 106.594 84.3151 106.689C83.7836 108.634 83.4174 110.162 83.0945 111.51C82.2376 115.086 81.7203 117.244 79.3361 121.778C79.3047 121.839 79.2422 121.875 79.1773 121.875Z" fill="#22363F"/>
<path d="M124.804 138.318C123.044 121.515 119.196 105.071 119.196 105.071C119.196 105.071 107.842 84.6911 90.2739 89.1003C81.9701 91.1844 81.1079 105.071 81.1079 105.071C81.1079 105.071 77.26 121.515 75.499 138.318H124.804Z" fill="#007BD1"/>
<path d="M75.4993 138.498C75.493 138.498 75.4867 138.498 75.4804 138.497C75.3815 138.487 75.3098 138.398 75.3201 138.3C77.062 121.677 80.8943 105.194 80.9326 105.03C80.9554 104.933 81.0517 104.872 81.1488 104.896C81.2455 104.918 81.3058 105.015 81.2831 105.112C81.2446 105.276 77.4174 121.738 75.678 138.337C75.6684 138.43 75.5902 138.498 75.4993 138.498Z" fill="#22363F"/>
<path d="M93.1591 83.7235C93.1591 83.7235 93.2139 86.5346 92.6663 87.2466C92.6663 87.2466 94.3914 89.6382 97.8025 89.6382C101.214 89.6382 103.396 86.9261 103.396 86.9261C103.396 86.9261 102.209 82.4767 102.443 79.0231C102.676 75.5695 93.1591 83.7235 93.1591 83.7235Z" fill="white"/>
<path d="M97.8025 89.8182C94.339 89.8182 92.593 87.4525 92.5203 87.3518C92.4738 87.2874 92.4752 87.1999 92.5237 87.1369C92.941 86.5941 92.994 84.4915 92.9792 83.7269C92.9781 83.6733 93.0012 83.6217 93.042 83.5868C93.8034 82.9344 100.529 77.2401 102.212 78.0822C102.517 78.235 102.655 78.5557 102.622 79.0351C102.394 82.4201 103.558 86.8354 103.57 86.8796C103.585 86.935 103.572 86.9942 103.536 87.0387C103.445 87.1523 101.26 89.8182 97.8025 89.8182ZM92.8876 87.2359C93.2501 87.6718 94.9138 89.4583 97.8025 89.4583C100.787 89.4583 102.836 87.2925 103.198 86.8804C103.032 86.2222 102.049 82.1804 102.263 79.0108C102.296 78.5269 102.111 78.4344 102.051 78.4041C100.948 77.851 96.2623 81.3097 93.3403 83.8053C93.3463 84.316 93.342 86.4279 92.8876 87.2359Z" fill="#22363F"/>
<path d="M88.7804 73.3673C88.6067 74.104 88.0076 74.6518 87.4417 75.1543C86.8757 75.6568 86.2819 76.2142 86.1256 76.9547C85.9693 77.6953 86.3189 78.4955 86.9206 78.9547C87.5222 79.414 88.3372 79.5473 89.0781 79.3924" fill="white"/>
<path d="M88.4832 79.634C87.8655 79.634 87.2694 79.4472 86.8112 79.0975C86.1301 78.5781 85.7837 77.7018 85.9494 76.9173C86.1122 76.1461 86.6916 75.5795 87.3221 75.0197C87.8201 74.5774 88.4398 74.027 88.6052 73.326C88.628 73.229 88.7241 73.1691 88.8217 73.1922C88.9184 73.215 88.9783 73.3117 88.9555 73.4084C88.764 74.2205 88.0971 74.8128 87.5611 75.2886C86.9772 75.8071 86.4416 76.3272 86.3017 76.9917C86.1641 77.643 86.4566 78.3743 87.0298 78.8112C87.5612 79.217 88.3132 79.3692 89.0412 79.2161C89.138 79.1953 89.2338 79.2583 89.254 79.3554C89.2743 79.4526 89.2121 79.5481 89.1148 79.5684C88.9049 79.6125 88.6928 79.634 88.4832 79.634Z" fill="#22363F"/>
<path d="M97.2428 83.0314C94.3485 85.8753 88.0393 85.0473 87.5234 80.6795C87.0721 76.8662 88.8408 73.3936 88.5265 71.0177C88.512 70.881 88.4882 70.749 88.4544 70.6218C88.4304 70.5258 88.4089 70.4297 88.3873 70.3313C87.9073 68.0155 88.4544 65.3493 88.4544 65.3493C88.4544 65.3493 99.2585 62.1299 101.65 67.1209C105.955 76.1045 97.2428 83.0314 97.2428 83.0314Z" fill="white"/>
<path d="M92.8552 84.8776C92.0805 84.8776 91.3001 84.7524 90.5623 84.493C88.7258 83.8468 87.5531 82.4646 87.3447 80.7007C87.0914 78.5595 87.526 76.5348 87.9095 74.7486C88.2179 73.3116 88.4843 72.0709 88.348 71.0415C88.3342 70.9102 88.3115 70.7859 88.2806 70.6678C88.2555 70.5677 88.2335 70.47 88.2116 70.3698C87.7291 68.0425 88.2556 65.4236 88.2783 65.3132C88.2983 65.2155 88.3929 65.1518 88.4908 65.173C88.588 65.1929 88.6508 65.2881 88.6309 65.3853C88.6256 65.4117 88.097 68.0436 88.5636 70.2946C88.5844 70.3893 88.6057 70.4837 88.6292 70.5781C88.6645 70.7116 88.6902 70.8539 88.7056 70.9989C88.8493 72.085 88.5769 73.3543 88.2613 74.8238C87.8837 76.5826 87.4558 78.5763 87.702 80.6582C87.9644 82.8793 89.6815 83.8013 90.6816 84.1532C92.8844 84.928 95.5907 84.4021 97.1167 82.9027C97.1875 82.8331 97.3015 82.8344 97.3712 82.9051C97.4408 82.9757 97.4399 83.0899 97.3689 83.1595C96.2376 84.271 94.5607 84.8776 92.8552 84.8776Z" fill="#22363F"/>
<path d="M88.3872 70.3313C88.4088 70.4297 88.4305 70.5257 88.4543 70.6218C88.4879 70.749 88.5119 70.881 88.5264 71.0177C89.5511 71.037 90.5447 71.0969 91.5838 71.2721C91.7253 71.2962 91.8166 71.1186 91.711 71.0177C90.8615 70.2041 89.5176 69.9762 88.3872 70.3313Z" fill="#22363F"/>
<path d="M99.4671 79.7074C96.5649 77.4584 97.6811 74.5535 96.7593 72.055L95.342 70.7263C95.342 70.7263 92.8411 71.7251 91.7672 69.5469C91.7672 69.5469 89.2336 70.2315 89.6668 68.4175C89.6668 68.4175 86.675 68.6476 86.675 65.4799C86.675 62.3122 89.7075 62.5288 89.7075 62.5288C89.7075 62.5288 90.4285 60.1189 93.5116 60.1189C96.5947 60.1189 96.4154 61.1944 96.4154 61.1944C96.4154 61.1944 101.371 59.0797 104.398 62.3382C107.093 65.2391 106.955 71.9786 104.141 77.9576C103.514 79.2908 102.154 80.1252 100.681 80.1252C100.241 80.125 99.8142 79.9763 99.4671 79.7074Z" fill="#22363F"/>
<path d="M100.68 80.305C100.206 80.305 99.7359 80.1433 99.3569 79.8495C97.3714 78.3109 97.2078 76.4735 97.0497 74.6967C96.9705 73.8065 96.8955 72.9649 96.6049 72.1569L95.2984 70.932C94.7948 71.0943 92.7004 71.6339 91.6724 69.7543C91.2865 69.8383 90.2228 70.01 89.7134 69.5153C89.489 69.2974 89.4008 68.9903 89.4502 68.6004C89.0224 68.5903 88.0886 68.4865 87.3774 67.828C86.792 67.2857 86.4951 66.4957 86.4951 65.4798C86.4951 64.4711 86.7916 63.6837 87.376 63.1394C88.1534 62.4156 89.2009 62.3451 89.5788 62.3451C89.5805 62.3451 89.5822 62.3451 89.5839 62.3451C89.7966 61.824 90.7569 59.9388 93.5114 59.9388C95.0132 59.9388 95.9852 60.1872 96.4001 60.6771C96.4814 60.7729 96.5298 60.8659 96.5583 60.9471C97.5557 60.588 101.813 59.292 104.53 62.2153C107.261 65.1557 107.164 71.9564 104.304 78.034C103.655 79.4138 102.232 80.305 100.68 80.305ZM99.5773 79.5651C99.8936 79.8101 100.285 79.9451 100.68 79.9451C102.094 79.9451 103.388 79.1349 103.978 77.8809C106.78 71.9287 106.903 65.2991 104.266 62.4604C101.362 59.3342 96.5342 61.3396 96.4857 61.3596C96.425 61.3858 96.3553 61.3763 96.3038 61.3355C96.2522 61.295 96.2268 61.2294 96.2376 61.1647C96.2373 61.1647 96.2472 61.0438 96.1104 60.8927C95.9094 60.6708 95.3044 60.2987 93.5112 60.2987C90.606 60.2987 89.9078 62.4872 89.8794 62.5806C89.8549 62.6606 89.7762 62.7127 89.6946 62.7081C89.6821 62.7085 88.4466 62.6317 87.619 63.4049C87.112 63.8785 86.8549 64.5764 86.8549 65.4799C86.8549 66.3902 87.112 67.0908 87.6195 67.5618C88.4348 68.3191 89.6415 68.2396 89.653 68.2381C89.7097 68.2359 89.7664 68.257 89.8037 68.3009C89.8408 68.3448 89.8551 68.4035 89.8417 68.4592C89.7544 68.825 89.7955 69.0934 89.9637 69.2569C90.3528 69.6351 91.3637 69.4694 91.7203 69.3732C91.8027 69.3524 91.8905 69.3903 91.9287 69.4674C92.9149 71.4681 95.1796 70.5972 95.2756 70.559C95.3403 70.5334 95.4142 70.5473 95.4653 70.595L96.8824 71.9237C96.9027 71.9427 96.9185 71.9664 96.9282 71.9926C97.2474 72.8576 97.3292 73.7762 97.4082 74.6645C97.5663 76.4429 97.7159 78.1225 99.5773 79.5651Z" fill="#22363F"/>
<path d="M93.261 73.3511C93.261 73.3511 95.1997 70.2885 97.4832 71.3991C99.5145 72.3869 99.4461 76.6182 95.5313 77.3187" fill="white"/>
<path d="M95.5309 77.4987C95.4455 77.4987 95.3697 77.4376 95.354 77.3504C95.3366 77.2528 95.4016 77.1592 95.4994 77.1416C97.2272 76.8324 98.3832 75.7494 98.592 74.2446C98.7531 73.0829 98.2647 71.9792 97.4045 71.561C95.2933 70.5327 93.4316 73.4182 93.413 73.4475C93.3598 73.5315 93.2482 73.5557 93.1647 73.5032C93.0808 73.4501 93.0558 73.339 93.109 73.2548C93.1293 73.2229 95.1623 70.0707 97.562 71.2371C98.5606 71.7228 99.1308 72.9798 98.9487 74.294C98.7173 75.961 97.4519 77.1578 95.5631 77.496C95.5522 77.4978 95.5414 77.4987 95.5309 77.4987Z" fill="#22363F"/>
<path d="M94.707 75.2002C94.6946 75.2002 94.6819 75.199 94.6695 75.1962C94.5723 75.1756 94.5101 75.08 94.5309 74.9828C94.8048 73.6937 96.2915 73.1422 96.3547 73.1194C96.448 73.0857 96.551 73.1339 96.5851 73.2272C96.6189 73.3204 96.5707 73.4237 96.4774 73.4577C96.4639 73.4627 95.115 73.9656 94.8827 75.0578C94.8649 75.1423 94.79 75.2002 94.707 75.2002Z" fill="#22363F"/>
<path d="M92.666 87.2465C96.1124 89.1252 101.204 88.8142 103.201 86.1176C104.638 86.6316 105.549 87.5214 106.158 88.6268C106.158 88.6268 103.744 91.2545 98.299 91.2545C92.8542 91.2545 90.2739 89.1002 90.2739 89.1002C90.8348 88.3068 91.6073 87.6705 92.666 87.2465Z" fill="white"/>
<path d="M98.2991 91.4343C92.8518 91.4343 90.2661 89.328 90.1586 89.2384C90.0866 89.1782 90.0729 89.0727 90.1271 88.9963C90.7423 88.1263 91.551 87.4991 92.5992 87.0793C92.6491 87.0594 92.7053 87.0623 92.7523 87.0884C96.2965 89.0198 101.208 88.5061 103.056 86.0101C103.104 85.9462 103.187 85.9215 103.261 85.9477C104.625 86.435 105.624 87.2829 106.316 88.5395C106.354 88.6073 106.343 88.6914 106.291 88.7483C106.19 88.8583 103.76 91.4343 98.2991 91.4343ZM90.5244 89.0628C91.1184 89.4835 93.6715 91.0745 98.2991 91.0745C103.029 91.0745 105.449 89.0519 105.934 88.5957C105.311 87.5213 104.435 86.7791 103.263 86.3324C101.1 89.0805 95.944 89.1936 92.6554 87.4454C91.7684 87.8142 91.0689 88.3449 90.5244 89.0628Z" fill="#22363F"/>
<path d="M124.804 138.498C124.713 138.498 124.635 138.43 124.625 138.337C122.886 121.738 119.059 105.276 119.02 105.112C118.998 105.015 119.058 104.918 119.154 104.896C119.252 104.872 119.348 104.933 119.371 105.03C119.409 105.194 123.241 121.677 124.983 138.3C124.994 138.398 124.922 138.487 124.823 138.497C124.817 138.498 124.81 138.498 124.804 138.498Z" fill="#22363F"/>
<path d="M50.8034 104.944C50.7917 104.944 50.7797 104.943 50.768 104.94C44.5425 103.695 38.8953 99.6898 35.6621 94.2263C33.0011 89.7302 31.9928 84.2762 32.7803 79.1105C28.9739 79.6493 25.0005 78.9677 21.6065 77.1504C21.5189 77.1035 21.4859 76.9944 21.5328 76.9067C21.5796 76.8191 21.6886 76.7863 21.7762 76.8331C25.1362 78.6323 29.0749 79.2957 32.8402 78.7382C33.0071 77.7537 33.24 76.7812 33.5395 75.8287C33.8173 74.9454 34.1674 74.0319 34.8414 73.3335C35.4653 72.6868 36.5394 72.1929 37.5317 72.5454C38.1159 72.7533 38.5639 73.2289 38.7934 73.8846C39.0809 74.7061 38.9776 75.7023 38.5302 76.4222C37.8774 77.4728 36.7152 78.1917 34.8727 78.6847C34.3058 78.8362 33.7316 78.9591 33.1531 79.0535C32.3459 84.1711 33.3336 89.5851 35.9718 94.0431C39.1539 99.42 44.7115 103.362 50.8385 104.588C50.936 104.607 50.9993 104.702 50.9797 104.799C50.9626 104.885 50.8875 104.944 50.8034 104.944ZM36.8362 72.7872C36.1726 72.7872 35.5218 73.1464 35.1003 73.5831C34.478 74.2279 34.1474 75.0952 33.8828 75.9364C33.6004 76.8347 33.3783 77.751 33.2157 78.6783C33.7417 78.5886 34.2636 78.4751 34.7797 78.3369C36.5284 77.8691 37.6228 77.2004 38.2244 76.2325C38.6166 75.6013 38.7067 74.7262 38.4537 74.0034C38.2609 73.4524 37.8905 73.0549 37.4109 72.8846C37.222 72.8174 37.0286 72.7872 36.8362 72.7872Z" fill="#22363F"/>
<path d="M39.6251 116.335C40.2727 120.086 37.7595 123.653 34.0087 124.3C30.2579 124.948 26.6936 122.431 26.046 118.68C25.3984 114.93 27.912 111.366 31.6624 110.715C35.4132 110.068 38.9775 112.584 39.6251 116.335Z" fill="#D1BBBC"/>
<path d="M33.9318 115.437C34.0665 116.217 33.5442 116.957 32.7638 117.092C31.9834 117.227 31.2431 116.704 31.1083 115.924C30.9736 115.144 31.496 114.403 32.2763 114.269C33.0566 114.134 33.797 114.656 33.9318 115.437Z" fill="white"/>
<path d="M36.1577 119.823C36.4397 119.775 36.6146 119.48 36.5115 119.213C35.9389 117.732 34.3895 116.811 32.7639 117.092C31.1384 117.373 29.9876 118.76 29.9447 120.347C29.937 120.633 30.2005 120.852 30.4825 120.803L36.1577 119.823Z" fill="white"/>
<path d="M100.784 38.3883C98.0014 38.3883 95.2211 36.4772 94.3414 33.7676C93.9755 32.6409 93.9132 31.4454 93.8528 30.2895C93.8163 29.5917 93.7787 28.8705 93.6743 28.1763C93.1498 24.6893 90.7381 21.4899 87.5302 20.0258C84.3222 18.5613 80.3251 18.8351 77.3469 20.7245C77.2631 20.7772 77.1517 20.7529 77.0985 20.6688C77.0454 20.5849 77.0702 20.4738 77.1541 20.4204C80.2324 18.4684 84.3639 18.1852 87.6797 19.6983C90.9955 21.2116 93.4881 24.5185 94.0304 28.1229C94.1372 28.8342 94.1754 29.5644 94.2122 30.2707C94.2714 31.4032 94.3325 32.5748 94.6838 33.6565C95.6386 36.5972 98.9571 38.5436 101.93 37.9089C103.053 37.6689 104.065 37.0579 104.861 36.232C103.252 34.9441 102.235 33.0502 102.294 31.1596C102.332 29.9351 102.993 28.5938 104.183 28.3996C105.537 28.178 106.633 29.5253 106.911 30.9555C107.267 32.7903 106.62 34.7399 105.387 36.1807C106.003 36.6215 106.698 36.9722 107.447 37.1999C109.823 37.923 112.707 37.5589 115.569 36.1754C115.658 36.1319 115.766 36.1697 115.809 36.259C115.852 36.3485 115.815 36.4561 115.725 36.4991C112.782 37.9225 109.805 38.2932 107.342 37.5443C106.542 37.3011 105.801 36.9236 105.145 36.4482C104.296 37.3416 103.211 38.003 102.005 38.2608C101.602 38.3471 101.193 38.3883 100.784 38.3883ZM104.466 28.7362C104.392 28.7362 104.317 28.7422 104.241 28.7547C103.243 28.9175 102.687 30.0934 102.654 31.1708C102.598 32.9575 103.568 34.7495 105.103 35.9672C106.277 34.6073 106.895 32.7609 106.558 31.0239C106.334 29.8734 105.49 28.7362 104.466 28.7362Z" fill="#22363F"/>
<path d="M138.419 44.0282V58.9524C138.419 60.3179 137.312 61.4247 135.947 61.4247H114.803C113.438 61.4247 112.331 60.3177 112.331 58.9524V44.0282C112.331 42.6629 113.438 41.5559 114.803 41.5559H135.947C137.312 41.5558 138.419 42.6627 138.419 44.0282Z" fill="white"/>
<path d="M135.947 61.6043H114.803C113.341 61.6043 112.151 60.4145 112.151 58.9522V44.0282C112.151 42.5656 113.341 41.376 114.803 41.376H135.947C137.41 41.376 138.599 42.5658 138.599 44.0282V58.9522C138.599 60.4147 137.409 61.6043 135.947 61.6043ZM114.803 41.7359C113.539 41.7359 112.511 42.7641 112.511 44.0282V58.9522C112.511 60.2162 113.539 61.2444 114.803 61.2444H135.947C137.211 61.2444 138.239 60.2162 138.239 58.9522V44.0282C138.239 42.7641 137.211 41.7359 135.947 41.7359H114.803Z" fill="#22363F"/>
<path d="M116.781 51.0439H119.544C119.953 51.0439 120.285 51.376 120.285 51.7856V56.9745C120.285 57.3841 119.953 57.7161 119.544 57.7161H116.781C116.372 57.7161 116.04 57.3841 116.04 56.9745V51.7856C116.04 51.376 116.372 51.0439 116.781 51.0439Z" fill="#A6B6BF"/>
<path d="M123.994 48.1539H126.757C127.166 48.1539 127.498 48.486 127.498 48.8956V56.9743C127.498 57.3839 127.166 57.7159 126.757 57.7159H123.994C123.584 57.7159 123.252 57.3839 123.252 56.9743V48.8956C123.252 48.4861 123.584 48.1539 123.994 48.1539Z" fill="#A6B6BF"/>
<path d="M131.207 45.2642H133.969C134.379 45.2642 134.711 45.5962 134.711 46.0058V56.9743C134.711 57.384 134.379 57.716 133.969 57.716H131.207C130.797 57.716 130.465 57.384 130.465 56.9743V46.0058C130.465 45.5962 130.797 45.2642 131.207 45.2642Z" fill="#A6B6BF"/>
</svg>
