<svg width="60" height="60" viewBox="0 0 60 60" fill="none" xmlns="http://www.w3.org/2000/svg">
<path d="M4.27515 19.9167C4.27515 24.6769 8.13323 28.5366 12.8927 28.5366C17.6138 28.5366 21.5114 24.7115 21.5114 19.9167C21.5114 15.158 17.6526 11.2992 12.8927 11.2992C8.13279 11.2992 4.27515 15.158 4.27515 19.9167Z" fill="white"/>
<path d="M6.19434 25.3398C9.66265 29.6215 16.157 29.5822 19.5909 25.3398C16.3052 20.7493 9.48394 20.7449 6.19434 25.3398Z" fill="#007BD1"/>
<path d="M12.2073 20.5118V21.8958C12.2073 22.3118 12.5445 22.649 12.9605 22.649C13.3765 22.649 13.7137 22.3118 13.7137 21.8958V20.5118H12.2073Z" fill="white"/>
<path d="M13.1794 20.9214C14.8776 20.9214 16.2543 19.5447 16.2543 17.8465C16.2543 16.1483 14.8776 14.7716 13.1794 14.7716C11.4812 14.7716 10.1045 16.1483 10.1045 17.8465C10.1045 19.5447 11.4812 20.9214 13.1794 20.9214Z" fill="white"/>
<path d="M11.4478 18.0681C11.1534 18.1652 10.8356 18.0055 10.7383 17.7106C10.6412 17.4162 10.8015 17.0982 11.0959 17.0011C11.3908 16.9038 11.7082 17.0642 11.8053 17.3586" fill="white"/>
<path d="M53.9886 46.4392C53.9886 46.4392 51.0833 51.7826 49.1569 50.7952C48.4858 50.4526 47.3558 49.6927 46.224 48.7789C45.9908 49.103 45.6973 49.3203 45.3285 49.3361C44.6204 49.3678 44.2701 48.907 44.1283 48.2361C43.8666 48.611 43.5345 48.8384 43.1133 48.8514C41.4001 48.9043 41.7133 45.3605 42.1463 43.5927C41.0526 44.2411 39.8825 44.6524 39.5929 43.6889C39.0962 42.0355 42.2197 38.2014 46.6497 38.8729C51.0797 39.5444 53.9886 46.4392 53.9886 46.4392Z" fill="white"/>
<path d="M42.1462 43.5927C42.1462 43.5927 43.9233 40.9459 46.5687 42.1884L42.1462 43.5927Z" fill="white"/>
<path d="M6.93506 43.2951C6.93506 48.0553 10.7931 51.915 15.5526 51.915C20.2976 51.915 24.1713 48.0702 24.1713 43.2951C24.1713 38.5364 20.3125 34.6776 15.5526 34.6776C10.7927 34.6776 6.93506 38.5364 6.93506 43.2951Z" fill="white"/>
<path d="M8.85425 48.7182C12.3226 52.9999 18.8169 52.9606 22.2508 48.7182C18.9651 44.1277 12.1439 44.1233 8.85425 48.7182Z" fill="#FF5B5B"/>
<path d="M16.5098 44.3416V45.1277C16.5098 45.6229 16.1091 46.0235 15.6153 46.0235C15.1289 46.0235 14.7195 45.6318 14.7195 45.1277V44.4146C15.2939 44.5582 15.9192 44.5415 16.5098 44.3416Z" fill="white"/>
<path d="M15.4899 44.5089C17.2523 44.5089 18.681 43.0802 18.681 41.3178C18.681 39.5554 17.2523 38.1267 15.4899 38.1267C13.7275 38.1267 12.2988 39.5554 12.2988 41.3178C12.2988 43.0802 13.7275 44.5089 15.4899 44.5089Z" fill="white"/>
<path d="M12.7564 42.193C12.3789 42.135 12.1193 41.7813 12.1773 41.4038C12.2352 41.0264 12.589 40.7668 12.9664 40.8247C13.3439 40.8827 13.6028 41.2363 13.5448 41.6138" fill="white"/>
<path d="M22.2451 30.1968C22.2451 31.8801 22.7777 33.4389 23.6827 34.7129C26.8124 39.1085 33.3368 39.0925 36.4192 34.714C37.3253 33.4399 37.8578 31.8801 37.8578 30.1968C37.8578 25.8863 34.3625 22.391 30.0509 22.391C25.7394 22.391 22.2451 25.8863 22.2451 30.1968Z" fill="white"/>
<path d="M24.0498 35.1391C27.1914 39.0175 33.0741 38.9819 36.1845 35.1391C33.2083 30.981 27.0296 30.977 24.0498 35.1391Z" fill="#FF8E2D"/>
<path d="M29.4963 30.7659V32.0195C29.4963 32.3963 29.8018 32.7017 30.1786 32.7017C30.5554 32.7017 30.8608 32.3963 30.8608 32.0195V30.7659H29.4963Z" fill="white"/>
<path d="M30.3768 31.1369C31.9151 31.1369 33.162 29.8899 33.162 28.3517C33.162 26.8134 31.9151 25.5664 30.3768 25.5664C28.8386 25.5664 27.5916 26.8134 27.5916 28.3517C27.5916 29.8899 28.8386 31.1369 30.3768 31.1369Z" fill="white"/>
<path d="M28.7457 28.5809C28.4791 28.6688 28.1912 28.5242 28.1031 28.257C28.0151 27.9904 28.1603 27.7023 28.427 27.6144C28.6941 27.5263 28.9817 27.6716 29.0696 27.9382" fill="white"/>
<path d="M32.5371 17.6791C25.6062 16.306 18.8743 20.8115 17.5019 27.742C16.129 34.6718 20.6346 41.4037 27.5648 42.7773C34.4946 44.1502 41.2265 39.6446 42.5994 32.7148C43.9725 25.7838 39.4669 19.052 32.5371 17.6791ZM39.4488 32.09C38.421 37.2807 33.3796 40.6549 28.1896 39.6267C22.9985 38.5983 19.6231 33.5565 20.652 28.3661C21.6804 23.175 26.7224 19.8015 31.9131 20.8292C37.103 21.8574 40.4772 26.8989 39.4488 32.09Z" fill="#007BD1"/>
<path d="M40.2612 37.9398L50.2943 47.9027C50.9837 48.5921 50.9827 49.7112 50.2934 50.4005C49.6112 51.0828 48.4918 51.0958 47.7965 50.4005L37.7615 40.4357C38.7009 39.7264 39.5433 38.8878 40.2612 37.9398Z" fill="#007BD1"/>
<path d="M49.6085 45.7211C46.9485 45.776 44.2499 42.0655 42.8711 43.7228C41.4888 45.3653 47.216 49.8026 49.1565 50.7958C49.1565 50.7958 51.2782 51.1514 52.0865 49.147" fill="white"/>
<path d="M54.0149 44.978L48.9256 51.3119C48.7894 51.4814 48.828 51.7313 49.0091 51.8518L51.7234 53.6573C51.9106 53.7818 52.1647 53.712 52.262 53.5093L55.6877 46.3725C55.757 46.2281 55.7255 46.0554 55.6095 45.9447L54.5588 44.9421C54.4019 44.7924 54.1506 44.809 54.0149 44.978Z" fill="#FFB400"/>
<path d="M29.6898 51.344C28.7405 51.6002 27.6187 51.276 26.9456 50.5116C26.2117 49.6782 26.0187 48.4003 26.4654 47.3317C26.7543 46.6408 27.2771 46.0661 27.9377 45.7137C28.011 45.6743 28.1025 45.7021 28.1417 45.7757C28.1809 45.8491 28.153 45.9404 28.0796 45.9796C27.4889 46.2949 27.0019 46.8301 26.7435 47.448C26.3404 48.4125 26.5125 49.5636 27.1719 50.3124C27.742 50.9598 28.6718 51.2527 29.4856 51.0835C29.1066 50.4995 29.0948 49.7127 29.4582 49.1179C29.8503 48.4764 30.7438 47.8033 31.3216 48.2817C32.2622 49.0603 31.111 50.7568 30.0061 51.2338C30.9261 52.0827 32.6781 52.1031 33.759 51.115C33.371 50.6298 33.211 49.9562 33.35 49.3512C33.5193 48.6129 34.0798 47.5483 34.7668 47.88C35.0556 48.0194 35.234 48.2658 35.2827 48.5924C35.3995 49.375 34.7654 50.4792 34.1775 51.1213C34.631 51.5347 35.3185 51.7452 36.2235 51.7472C36.3068 51.7474 36.3742 51.815 36.374 51.8983C36.3738 51.9814 36.3064 52.0486 36.2232 52.0486C36.2231 52.0486 36.223 52.0486 36.2229 52.0486C35.234 52.0464 34.4751 51.8065 33.9648 51.3353C32.725 52.471 30.6792 52.4059 29.6898 51.344ZM29.7155 49.2751C29.4055 49.7822 29.4221 50.4996 29.7912 50.9955C30.5652 50.7067 31.2754 49.8082 31.3592 49.1678C31.3955 48.8901 31.3182 48.6701 31.1294 48.5139C30.7239 48.1783 29.9894 48.8268 29.7155 49.2751ZM34.3753 48.1536C34.0649 48.3026 33.7597 48.9138 33.6438 49.4186C33.5275 49.9249 33.6563 50.4874 33.9731 50.8997C34.5563 50.2612 35.0778 49.2615 34.9846 48.6369C34.9503 48.407 34.8362 48.2482 34.6357 48.1514C34.5514 48.1107 34.4687 48.1087 34.3753 48.1536Z" fill="#FF8E2D"/>
<path d="M26.0455 13.3907C25.4604 12.5607 25.5617 10.9134 25.8726 9.84841C25.0954 9.61555 24.1611 9.76751 23.0932 10.3015C23.0188 10.3387 22.9282 10.3086 22.8909 10.2341C22.8537 10.1596 22.8839 10.0691 22.9583 10.0319C24.1008 9.46069 25.1119 9.30291 25.9665 9.56187C26.7505 7.47583 29.1547 6.43815 30.8465 7.08307C31.4615 6.51882 32.3192 6.19769 33.2142 6.20533C33.2975 6.20611 33.3643 6.27427 33.3635 6.35754C33.3627 6.44027 33.2954 6.5068 33.2128 6.5068C32.4308 6.52063 31.7371 6.72623 31.1461 7.22105C31.9291 7.6471 32.4198 8.54724 32.345 9.45035C32.2683 10.3753 31.6541 11.6556 30.7421 11.4458C30.3187 11.3486 30.0114 11.0584 29.8536 10.6064C29.5137 9.63273 29.9245 8.11024 30.614 7.32114C30.2894 7.21825 29.921 7.17875 29.5279 7.20633C28.0722 7.30791 26.7264 8.34951 26.2494 9.66609C26.9797 9.98717 27.5585 10.6663 27.7482 11.4407C27.9719 12.3544 27.9545 13.8769 27.0124 13.8922C26.6106 13.8977 26.2792 13.7223 26.0455 13.3907ZM26.1549 9.95391C25.8386 11.0372 25.8108 12.5346 26.2919 13.217C26.4664 13.4646 26.6973 13.596 27.0075 13.5907C27.1439 13.5885 27.2519 13.5331 27.3381 13.4215C27.616 13.0614 27.616 12.1681 27.4554 11.5124C27.2899 10.8363 26.789 10.2424 26.1549 9.95391ZM30.9134 7.43998C30.1608 8.23405 29.8599 9.70963 30.1382 10.5071C30.2619 10.8611 30.4878 11.0781 30.8096 11.152C31.4998 11.3106 31.9851 10.143 32.0445 9.42541C32.1082 8.65653 31.6758 7.81153 30.9134 7.43998Z" fill="#007BD1"/>
<path d="M51.3316 51.7492C51.6058 51.7492 51.828 51.5269 51.828 51.2527C51.828 50.9786 51.6058 50.7563 51.3316 50.7563C51.0575 50.7563 50.8352 50.9786 50.8352 51.2527C50.8352 51.5269 51.0575 51.7492 51.3316 51.7492Z" fill="white"/>
<path d="M14 19.8524C14.0344 19.875 14.0812 19.8657 14.1043 19.8306C14.1052 19.8292 14.1964 19.6956 14.3474 19.6775C14.4636 19.6634 14.5904 19.7197 14.7237 19.8444C14.754 19.8728 14.8018 19.8713 14.8303 19.8408C14.8587 19.8104 14.857 19.7627 14.8267 19.7343C14.6593 19.5778 14.4928 19.5081 14.3293 19.5278C14.107 19.5545 13.9833 19.7402 13.9781 19.7481C13.9553 19.7829 13.9651 19.8296 14 19.8524Z" fill="#00002D"/>
<path d="M15.2847 17.4779C15.1443 17.4779 15.031 17.5912 15.031 17.7316C15.031 17.8719 15.1443 17.9852 15.2847 17.9852C15.425 17.9852 15.5383 17.8719 15.5383 17.7316C15.5383 17.5912 15.425 17.4779 15.2847 17.4779Z" fill="#00002D"/>
<path d="M13.5034 17.6527C13.3631 17.6527 13.2498 17.766 13.2498 17.9064C13.2498 18.0467 13.3631 18.16 13.5034 18.16C13.6437 18.16 13.7571 18.0467 13.7571 17.9064C13.7571 17.766 13.6437 17.6527 13.5034 17.6527Z" fill="#00002D"/>
<path d="M14.6163 18.7494C14.6109 18.7653 14.5942 18.8136 14.4858 18.8348C14.4449 18.8428 14.4183 18.8824 14.4263 18.9232C14.4345 18.9651 14.4753 18.9907 14.5147 18.9827C14.6745 18.9515 14.7357 18.8655 14.7588 18.7989C14.8497 18.5366 14.5049 18.1248 14.4652 18.0788C14.4381 18.0471 14.3904 18.0436 14.359 18.0707C14.3275 18.0978 14.3238 18.1454 14.351 18.177C14.4788 18.3257 14.6638 18.6125 14.6163 18.7494Z" fill="#00002D"/>
<path d="M12.9723 17.4314C13.0083 17.452 13.0544 17.4396 13.0752 17.4034C13.1323 17.3034 13.2249 17.2315 13.336 17.2011C13.4469 17.1706 13.5632 17.1852 13.6631 17.2423C13.6991 17.2628 13.7452 17.2502 13.7659 17.2142C13.7865 17.1781 13.7739 17.132 13.7378 17.1114C13.4591 16.9523 13.1034 17.05 12.9442 17.3286C12.9236 17.3647 12.9362 17.4108 12.9723 17.4314Z" fill="#00002D"/>
<path d="M14.9386 17.2204C15.0107 17.1306 15.1135 17.0742 15.228 17.0616C15.342 17.0488 15.455 17.0817 15.5446 17.1538C15.577 17.1798 15.6244 17.1748 15.6505 17.1422C15.6765 17.1098 15.6714 17.0624 15.639 17.0363C15.5179 16.939 15.3661 16.8947 15.2115 16.9118C15.057 16.9288 14.9184 17.0049 14.821 17.126C14.795 17.1584 14.8001 17.2059 14.8326 17.232C14.865 17.2579 14.9124 17.253 14.9386 17.2204Z" fill="#00002D"/>
<path d="M16.8471 43.4063C17.0762 43.3782 17.2038 43.1873 17.2089 43.1782C17.232 43.1441 17.2219 43.0979 17.1878 43.0747C17.1526 43.0516 17.1064 43.0617 17.0832 43.0958C17.0822 43.0968 16.9868 43.2385 16.827 43.2566C16.7054 43.2707 16.5748 43.2124 16.4361 43.0828C16.405 43.0536 16.3577 43.0556 16.3296 43.0858C16.3005 43.1159 16.3025 43.1642 16.3326 43.1923C16.4807 43.3307 16.6512 43.427 16.8471 43.4063Z" fill="#00002D"/>
<path d="M17.9641 41.4321C17.9641 41.5777 18.0817 41.6953 18.2273 41.6953C18.373 41.6953 18.4906 41.5777 18.4906 41.4321C18.4906 41.2864 18.373 41.1688 18.2273 41.1688C18.0817 41.1688 17.9641 41.2864 17.9641 41.4321Z" fill="#00002D"/>
<path d="M15.9112 41.9213C16.0568 41.9213 16.1744 41.8038 16.1744 41.6581C16.1744 41.5125 16.0568 41.3949 15.9112 41.3949C15.7655 41.3949 15.6479 41.5125 15.6479 41.6581C15.6479 41.8038 15.7655 41.9213 15.9112 41.9213Z" fill="#00002D"/>
<path d="M17.1346 42.2558C17.1295 42.2729 17.1115 42.3241 16.9969 42.3462C16.9567 42.3543 16.9296 42.3934 16.9376 42.4346C16.9451 42.4734 16.9819 42.5028 17.026 42.4939C17.1908 42.4618 17.2531 42.3733 17.2773 42.305C17.3707 42.0347 17.014 41.6086 16.9728 41.5604C16.9457 41.5293 16.8984 41.5252 16.8673 41.5524C16.8351 41.5795 16.8321 41.6277 16.8592 41.6589C16.9919 41.8136 17.1848 42.1121 17.1346 42.2558Z" fill="#00002D"/>
<path d="M30.1175 22.3453C25.7714 22.3453 22.2363 25.8814 22.2363 30.2265C22.2363 31.8735 22.7377 33.4501 23.6873 34.7866C26.9218 39.3082 33.4963 39.1258 36.5466 34.7876C37.4972 33.4511 37.9996 31.8745 37.9996 30.2265C37.9996 25.8814 34.4635 22.3453 30.1175 22.3453ZM33.3129 37.2716C30.0876 38.7393 26.2655 37.7844 24.1446 35.1362C25.4522 33.3592 27.3523 32.3227 29.4292 32.1267C29.4814 32.4945 29.7969 32.7768 30.1788 32.7768C30.5556 32.7768 30.8691 32.5005 30.9264 32.1387C31.6308 32.1387 34.3273 32.7184 36.0894 35.1362C35.4222 35.9693 34.4396 36.7596 33.3129 37.2716ZM28.6343 28.68C28.6795 28.676 28.7247 28.6669 28.7699 28.6529C28.8091 28.6398 28.8302 28.5966 28.8172 28.5574C28.8041 28.5182 28.7619 28.4961 28.7227 28.5092C28.4793 28.5866 28.2455 28.4472 28.1751 28.2328C28.0964 27.9979 28.235 27.7523 28.4504 27.6862C28.676 27.611 28.9221 27.7316 28.998 27.9615C29.0111 28.0017 29.0543 28.0228 29.0935 28.0098C29.1327 27.9967 29.1548 27.9545 29.1417 27.9143C29.0945 27.7726 28.998 27.657 28.8674 27.5857C29.0181 27.4731 29.1156 27.2943 29.1156 27.0913C29.1156 27.0571 29.1126 27.024 29.1076 26.9918C29.3769 26.9144 29.602 26.7386 29.7366 26.5024C29.9215 26.825 30.2702 27.036 30.6772 27.036C30.9264 27.036 31.1565 26.9506 31.3414 26.8119C31.5454 27.0491 31.8288 27.1998 32.1443 27.1998C32.3589 27.1998 32.5746 27.1617 32.7646 27.0699C32.7648 27.0703 32.7651 27.0708 32.7653 27.0712C32.9753 27.4611 33.0868 27.9002 33.0868 28.3514C33.0868 29.8481 31.8689 31.0615 30.3767 31.0615C29.5059 31.0615 28.7005 30.6526 28.1952 29.9582C28.1951 29.9581 28.1951 29.9581 28.1951 29.958C28.4046 29.5233 28.5623 29.0956 28.6343 28.68ZM30.3767 31.2122C30.5154 31.2122 30.652 31.2022 30.7857 31.1821C30.7857 31.2049 30.7857 32.0369 30.7857 32.0192C30.7857 32.3535 30.5148 32.6261 30.1788 32.6261C29.8429 32.6261 29.5718 32.3526 29.5718 32.0192C29.5718 31.9954 29.5718 31.0562 29.5718 31.0977C29.8291 31.1731 30.0994 31.2122 30.3767 31.2122ZM36.1868 35.0147C35.1111 33.4859 33.141 32.2231 30.9364 31.989V31.157C32.8254 30.7818 33.8023 28.6739 32.8959 26.9958C32.8958 26.9956 32.8956 26.9954 32.8955 26.9951C33.1669 26.8118 33.3607 26.4892 33.3752 25.9618C33.4014 25.0173 32.7412 24.755 32.1443 24.755C31.8288 24.755 31.5454 24.9057 31.3414 25.1489C31.1565 25.0042 30.9264 24.9188 30.6772 24.9188C30.2702 24.9188 29.9215 25.1358 29.7366 25.4514C29.5467 25.1358 29.197 24.8896 28.7971 24.9188C26.8185 25.0605 26.9512 29.1081 28.1198 30.1109C28.4574 30.546 28.9076 30.8696 29.4211 31.0505V31.9759C27.3227 32.1637 25.3133 33.2796 24.0471 35.0157C22.9605 33.6365 22.3871 31.9692 22.3871 30.2265C22.3871 25.9639 25.8548 22.4961 30.1175 22.4961C34.3801 22.4961 37.8489 25.9639 37.8489 30.2265C37.8489 32.073 37.1868 33.7873 36.1868 35.0147Z" fill="#00002D"/>
<path d="M31.5623 30.184C31.7669 30.1593 31.8806 29.9885 31.8854 29.9813C31.9082 29.9464 31.8984 29.8997 31.8636 29.8769C31.8288 29.8542 31.7821 29.864 31.7592 29.8987C31.7585 29.9 31.6777 30.0182 31.5442 30.0343C31.441 30.0463 31.3282 29.9966 31.2089 29.885C31.1783 29.8565 31.1308 29.8581 31.1023 29.8885C31.0739 29.9189 31.0756 29.9666 31.1059 29.9951C31.2336 30.1144 31.3889 30.2045 31.5623 30.184Z" fill="#00002D"/>
<path d="M32.2798 28.0771C32.1527 28.0771 32.05 28.1798 32.05 28.3069C32.05 28.434 32.1527 28.5367 32.2798 28.5367C32.4069 28.5367 32.5096 28.434 32.5096 28.3069C32.5096 28.1798 32.4069 28.0771 32.2798 28.0771Z" fill="#00002D"/>
<path d="M30.6738 28.1742C30.5467 28.1742 30.4441 28.2768 30.4441 28.404C30.4441 28.5311 30.5467 28.6337 30.6738 28.6337C30.801 28.6337 30.9036 28.5311 30.9036 28.404C30.9036 28.2768 30.801 28.1742 30.6738 28.1742Z" fill="#00002D"/>
<path d="M31.6719 29.1673C31.6671 29.1807 31.653 29.2216 31.5589 29.24C31.518 29.2479 31.4914 29.2875 31.4993 29.3284C31.5076 29.3702 31.5483 29.3959 31.5878 29.3878C31.7359 29.359 31.7928 29.2788 31.8142 29.2167C31.898 28.9753 31.5832 28.5995 31.547 28.5575C31.5199 28.5259 31.4725 28.5224 31.4409 28.5494C31.4093 28.5765 31.4056 28.6241 31.4327 28.6557C31.556 28.7993 31.7116 29.0529 31.6719 29.1673Z" fill="#00002D"/>
<path d="M30.2641 27.8753H30.9718C31.0134 27.8753 31.0472 27.8416 31.0472 27.8C31.0472 27.7584 31.0134 27.7246 30.9718 27.7246H30.2641C30.2225 27.7246 30.1887 27.7584 30.1887 27.8C30.1887 27.8416 30.2225 27.8753 30.2641 27.8753Z" fill="#00002D"/>
<path d="M31.9721 27.8753H32.6798C32.7214 27.8753 32.7552 27.8416 32.7552 27.8C32.7552 27.7584 32.7214 27.7246 32.6798 27.7246H31.9721C31.9305 27.7246 31.8967 27.7584 31.8967 27.8C31.8967 27.8416 31.9305 27.8753 31.9721 27.8753Z" fill="#00002D"/>
<path d="M31.928 20.7557C26.7048 19.7217 21.6131 23.1292 20.5781 28.3515C20.0767 30.8817 20.5902 33.4552 22.0251 35.5986C24.9904 40.0299 30.9844 41.2238 35.422 38.2534C37.5653 36.8185 39.0214 34.6349 39.5228 32.1047C40.5578 26.8814 37.1503 21.7897 31.928 20.7557ZM35.3375 38.1278C30.9722 41.0498 25.0744 39.8819 22.1507 35.5152C20.7379 33.4049 20.2324 30.8717 20.7258 28.3806C21.7516 23.201 26.8016 19.8875 31.8979 20.9034C37.0306 21.9199 40.3927 26.921 39.3751 32.0755C38.8817 34.5656 37.4478 36.7149 35.3375 38.1278Z" fill="#00002D"/>
<path d="M55.662 45.8903L54.6109 44.8874C54.4216 44.7065 54.1206 44.7278 53.9558 44.9306L53.5749 45.4049C52.564 43.4565 50.0448 39.3104 46.6614 38.798C44.8969 38.5307 43.3394 38.9809 42.1416 39.7003L40.3579 37.9288C43.5148 33.7206 43.8883 27.7696 40.7448 23.0708C36.4202 16.6101 27.4078 15.428 21.564 20.5537C21.9273 15.4677 17.8925 11.2235 12.893 11.2235C8.09983 11.2235 4.19995 15.1234 4.19995 19.9166C4.19995 26.7529 11.7839 30.9179 17.5264 27.2772C16.9413 29.6829 17.0745 32.423 18.0992 34.9825C17.2933 34.7343 16.4382 34.6017 15.5529 34.6017C10.7597 34.6017 6.85982 38.5015 6.85982 43.2947C6.85982 48.084 10.7348 51.9898 15.5529 51.9898C20.3435 51.9898 24.247 48.1115 24.247 43.2947C24.247 42.727 24.1917 42.1713 24.0872 41.6327C28.3893 43.8852 33.7004 43.5561 37.7503 40.5304L39.6545 42.4215C39.4646 42.9029 39.4124 43.351 39.5209 43.7108C39.7626 44.5164 40.5632 44.4209 41.3387 44.0936L41.8683 44.6202C41.6552 46.036 41.6281 47.7684 42.2431 48.5271C42.4662 48.8034 42.7596 48.9391 43.1153 48.927C43.4921 48.9149 43.8197 48.7411 44.092 48.4085C44.283 49.1019 44.698 49.4395 45.332 49.4114C45.6596 49.3973 45.954 49.2345 46.2053 48.926L47.7437 50.4534C48.0904 50.8011 48.5516 50.992 49.041 50.992C49.0565 50.992 49.0723 50.9922 49.0862 50.991L48.8671 51.2643C48.7028 51.4687 48.7491 51.7695 48.9676 51.9145L51.6818 53.7202C51.9032 53.8688 52.2127 53.7875 52.3299 53.5424L55.7555 46.4048C55.8399 46.2309 55.8017 46.0239 55.662 45.8903ZM46.6383 38.9477C49.9926 39.4552 52.4957 43.6334 53.4714 45.5336L49.2922 50.7358C49.2419 50.7307 49.2037 50.7267 49.1837 50.7237C49.1827 50.7227 49.1806 50.7227 49.1796 50.7227C47.5889 49.9018 44.9081 47.7839 43.5628 46.0823C43.7848 45.893 43.944 45.6273 43.9954 45.317C44.1128 44.6072 43.6238 43.9232 42.881 43.8341C44.1437 42.0842 46.9192 45.8529 49.6097 45.7968C49.6519 45.7958 49.6851 45.7607 49.6841 45.7195C49.6831 45.6805 49.6519 45.6461 49.6067 45.6461C48.9244 45.6602 48.231 45.417 47.5608 45.0814L44.4769 42.0196C45.0738 41.8739 45.7691 41.896 46.5368 42.2567C46.575 42.2738 46.6192 42.2577 46.6373 42.2205C46.6544 42.1823 46.6383 42.1381 46.6012 42.12C45.7571 41.7241 44.9974 41.7181 44.3523 41.896L42.2511 39.8099C43.4178 39.1185 44.9281 38.6885 46.6383 38.9477ZM4.35068 19.9166C4.35068 15.2068 8.18222 11.3743 12.893 11.3743C17.8432 11.3743 21.8556 15.6202 21.4012 20.6974C20.2949 21.6972 19.3804 22.8709 18.6881 24.1742C17.207 22.776 15.4417 22.0324 13.7894 21.869V20.9375C15.2364 20.6522 16.3297 19.374 16.3297 17.8466C16.3297 17.2426 16.1578 16.6588 15.8383 16.1584C15.9287 16.086 16.0111 15.9805 16.0774 15.8298C16.6934 14.42 14.326 13.3337 12.1846 13.7306C9.76992 14.1778 10.8723 15.1555 10.8723 15.1555C8.96904 15.0551 9.09967 17.4034 9.582 18.4043C9.77292 18.8002 10.0211 18.9791 10.2613 19.0323C10.6211 19.9078 11.3103 20.5337 12.1323 20.82V21.854C9.64063 22.0814 7.47103 23.4413 6.19158 25.2162C4.97126 23.663 4.35068 21.8309 4.35068 19.9166ZM12.2831 21.8962C12.2831 21.603 12.2831 21.3624 12.2831 20.8682C12.5685 20.9526 12.8699 20.9968 13.1794 20.9968C13.3352 20.9968 13.4889 20.9858 13.6386 20.9637C13.6423 21.9953 13.6383 21.9549 13.6286 22.0037C13.5783 22.3263 13.298 22.5734 12.9604 22.5734C12.5802 22.5735 12.2831 22.2626 12.2831 21.8962ZM11.0802 18.7339C11.1456 18.6233 11.1948 18.3992 11.23 18.1701C11.2747 18.1765 11.3739 18.1714 11.4711 18.14C11.5113 18.1269 11.5324 18.0837 11.5194 18.0445C11.5063 18.0054 11.4641 17.9833 11.4239 17.9963C11.1708 18.0807 10.8942 17.9423 10.8099 17.6868C10.7265 17.4326 10.8652 17.1563 11.1194 17.0729C11.3612 16.9933 11.6388 17.1112 11.7344 17.3824C11.7465 17.4215 11.7897 17.4426 11.8289 17.4306C11.8691 17.4175 11.8902 17.3743 11.8771 17.3351C11.8671 17.304 11.854 17.2738 11.8399 17.2457C12.272 16.8859 11.9766 16.3202 11.9766 16.3202C15.0565 17.1954 14.7882 16.0901 14.7882 16.0901C14.7882 16.0901 15.2957 16.4257 15.7097 16.2378C16.0151 16.7151 16.1789 17.2718 16.1789 17.8466C16.1789 19.5055 14.8287 20.8461 13.1794 20.8461C11.9397 20.8461 10.888 20.1049 10.4331 19.0514C10.7316 19.0494 10.9928 18.8786 11.0802 18.7339ZM16.403 27.7103C16.403 27.7103 16.402 27.7113 16.401 27.7113C16.342 27.7408 16.0709 27.8556 15.9026 27.9163C15.9016 27.9173 15.9006 27.9183 15.8986 27.9183C12.5591 29.1884 8.61431 28.1984 6.28907 25.3368V25.3358C7.77713 23.3212 9.94993 22.2076 12.1404 22.0057C12.1936 22.4107 12.5413 22.7242 12.9603 22.7242C13.3754 22.7242 13.72 22.4177 13.7803 22.0198C15.4122 22.163 17.3091 23.0086 18.6147 24.3159C18.1686 25.1811 17.8199 26.1025 17.5767 27.0652C17.2538 27.2863 16.6758 27.5955 16.403 27.7103ZM8.94894 48.715V48.714C10.4039 46.7435 12.5246 45.6115 14.6817 45.3959C14.8011 45.81 15.1783 46.0983 15.6152 46.0983C16.0523 46.0983 16.4221 45.8079 16.5437 45.409C18.6599 45.6546 20.7738 46.8145 22.1559 48.715C18.7552 52.8656 12.3498 52.9003 8.94894 48.715ZM14.7952 44.5106C15.3719 44.634 15.993 44.5913 16.4342 44.4443C16.4314 45.138 16.4403 45.1366 16.4261 45.2442C16.3728 45.633 16.034 45.9476 15.6152 45.9476C15.2011 45.9476 14.8503 45.6392 14.8023 45.2311C14.7904 45.1507 14.7971 45.1372 14.7952 44.5106ZM12.7684 42.118C12.4323 42.0666 12.1998 41.7523 12.2519 41.4146C12.2674 41.3065 12.331 41.1737 12.3785 41.1262C12.3785 41.1252 12.3795 41.1242 12.3805 41.1232C12.7103 40.7034 13.4012 40.885 13.4718 41.4277C13.4799 41.484 13.4799 41.5433 13.4708 41.6025C13.4638 41.6438 13.4929 41.6819 13.5341 41.688C13.5743 41.695 13.6135 41.6659 13.6195 41.6247C13.6396 41.497 13.6266 41.3724 13.5864 41.2579C13.6115 41.2137 13.6346 41.1674 13.6547 41.1202L14.5782 41.4016C14.5812 41.9703 15.0454 42.4326 15.6162 42.4326C16.35 42.4326 16.8375 41.6937 16.5889 41.0368C16.7618 40.9795 17.0823 40.9132 17.2592 41.0479C17.1099 41.7618 17.7355 42.4047 18.4539 42.2788C17.5892 44.939 13.9348 45.1902 12.7011 42.7049C12.6167 42.5361 12.5484 42.3622 12.4971 42.1834C12.6386 42.2615 12.7463 42.2654 12.7564 42.2678C12.849 42.2678 12.8597 42.1336 12.7684 42.118ZM18.4087 40.2289C17.9461 40.1644 17.474 40.4346 17.3034 40.8971C17.0471 40.7464 16.6763 40.8479 16.5266 40.9001C16.3518 40.5766 16.0091 40.3575 15.6162 40.3575C15.0937 40.3575 14.6606 40.7444 14.5892 41.2478L13.706 40.9785C13.7822 40.7382 13.7861 40.4661 13.711 40.2108C13.7109 40.2105 13.7108 40.2102 13.7107 40.2098C13.982 40.2952 14.2774 40.3426 14.5869 40.3426C15.3865 40.3426 16.0938 40.0291 16.5264 39.5486C16.7612 39.7456 17.0843 39.8675 17.4412 39.8675C17.7012 39.8675 17.943 39.8021 18.1461 39.6908C18.1875 39.7661 18.2956 39.9241 18.4087 40.2289ZM18.674 42.0487C18.7283 41.8136 18.7564 41.5684 18.7564 41.3172C18.7564 41.1726 18.746 41.0621 18.7453 41.0504L19.1453 41.0863C19.2241 41.4876 19.0215 41.8738 18.674 42.0487ZM18.7283 40.8976C18.7183 40.835 18.7063 40.6892 18.6388 40.449C18.8477 40.5424 19.0144 40.716 19.0999 40.9309L18.7283 40.8976ZM18.5022 42.114C17.9414 42.2621 17.3888 41.8379 17.3888 41.2579C17.3888 40.6923 17.9126 40.2711 18.464 40.3907C18.6413 40.9552 18.6501 41.5552 18.5022 42.114ZM15.6162 40.5083C15.9689 40.5083 16.2754 40.7163 16.4181 41.0157C16.4181 41.0177 16.4191 41.0207 16.4201 41.0228C16.4201 41.0238 16.4211 41.0248 16.4221 41.0258C16.6904 41.615 16.2585 42.2818 15.6162 42.2818C15.1268 42.2818 14.7289 41.8839 14.7289 41.3956C14.7289 40.9057 15.1282 40.5083 15.6162 40.5083ZM22.2533 48.5944C21.1323 46.9643 18.9996 45.5615 16.5759 45.2613C16.5914 45.1473 16.5822 45.1328 16.5849 44.3951C17.5656 44.0454 18.3323 43.2385 18.6258 42.2326C19.1223 42.0554 19.4126 41.5268 19.2819 41.0107C19.2819 41.0097 19.2819 41.0087 19.2809 41.0077C19.2809 41.0009 19.2806 41.0008 19.2787 40.9944C19.2786 40.9942 19.2771 40.9891 19.2769 40.9886C19.1855 40.6449 18.9202 40.3706 18.5826 40.2661C18.5052 40.038 18.4017 39.8179 18.2751 39.6109C18.275 39.6109 18.275 39.6109 18.275 39.6108C18.5594 39.4092 18.7405 39.1068 18.7405 38.7684C18.7405 38.1615 18.1587 37.6694 17.4411 37.6694C17.2197 37.6694 17.0114 37.7165 16.829 37.7991C16.4965 37.0701 15.6182 36.5492 14.5868 36.5492C13.2699 36.5492 12.2023 37.3985 12.2023 38.4459C12.2023 38.7296 12.2811 38.9985 12.4215 39.2401C12.4208 39.2401 12.4206 39.2401 12.4197 39.2401C11.6761 39.2401 11.0722 39.844 11.0722 40.5876C11.0722 41.2619 11.5686 41.8206 12.2147 41.9201C12.236 41.9556 12.2685 41.999 12.3032 42.0336C12.5513 43.1589 13.4182 44.1493 14.6445 44.4744C14.6463 45.1274 14.6397 45.1547 14.6515 45.2472C14.6485 45.2472 14.6455 45.2482 14.6425 45.2482C12.1639 45.5354 10.0324 46.902 8.85246 48.5944C7.68992 47.1446 7.01056 45.2763 7.01056 43.2947C7.01056 38.585 10.8421 34.7524 15.5529 34.7524C16.4663 34.7524 17.3466 34.8961 18.1726 35.1634C19.292 37.8484 21.3057 40.1234 23.9144 41.5403C24.4375 44.0199 23.8263 46.6202 22.2533 48.5944ZM27.5791 42.7029C19.2336 41.0523 14.8262 31.7582 18.8006 24.2868V24.2858C19.7556 22.4702 21.1743 20.8646 22.9768 19.6594C28.832 15.7402 36.7176 17.3246 40.6192 23.1543C42.5083 25.9779 43.1856 29.3673 42.5254 32.7005C41.1628 39.5788 34.4584 44.0655 27.5791 42.7029ZM40.0555 44.1318C39.8646 44.0574 39.7369 43.9057 39.6656 43.6675C39.5721 43.3591 39.6153 42.9651 39.7741 42.5401L41.2221 43.9781C40.7187 44.182 40.3218 44.2353 40.0555 44.1318ZM37.8759 40.4429C38.7753 39.7546 39.5802 38.9517 40.2695 38.0534C41.3564 39.1326 46.1042 43.8474 47.1016 44.8382C45.3631 43.867 43.7971 42.4907 42.8138 43.6746C42.7817 43.7118 42.7556 43.7479 42.7335 43.7851C42.4682 44.2112 42.5566 44.794 42.9937 45.5245C41.0114 43.5568 41.1005 43.6444 37.8759 40.4429ZM43.1113 48.7763C41.6833 48.8135 41.7939 46.1825 42.0009 44.7518C42.2982 45.061 41.3063 44.0038 44.1945 47.0358C44.168 47.6415 44.0759 48.1175 44.0581 48.2042C44.058 48.2043 44.0579 48.2044 44.0579 48.2045V48.2052C44.0578 48.2053 44.0578 48.2055 44.0578 48.2056C43.7935 48.5773 43.484 48.7642 43.1113 48.7763ZM45.325 49.2606C44.7291 49.2878 44.3623 48.9531 44.2046 48.2387C44.2711 47.9015 44.3165 47.5296 44.3382 47.1826C44.5272 47.3753 44.7086 47.5703 46.0987 48.8195C45.8716 49.1008 45.6124 49.2486 45.325 49.2606ZM49.041 50.8413C48.5918 50.8413 48.1687 50.6664 47.8502 50.3469L46.8986 49.4013C47.5173 49.8683 48.3953 50.483 49.0802 50.8403C49.0683 50.8414 49.0546 50.8413 49.041 50.8413ZM55.6198 46.3395L52.1942 53.477C52.1165 53.6367 51.9149 53.6937 51.7652 53.5946L49.051 51.7888C48.9029 51.6901 48.8787 51.4888 48.9847 51.3587C48.9928 51.3487 49.3696 50.8794 49.3615 50.8895H49.3625C49.3706 50.8794 49.4449 50.7859 49.4369 50.796C49.4452 50.7857 54.2199 44.8438 54.0733 45.0251C54.1756 44.8973 54.3744 44.8712 54.5064 44.996L55.5575 45.9988C55.65 46.0873 55.6751 46.2239 55.6198 46.3395Z" fill="#00002D"/>
<path d="M41.1883 19.2801L48.2117 13.0558C48.2429 13.0282 48.2457 12.9805 48.2181 12.9493C48.1905 12.9182 48.1429 12.9153 48.1118 12.9429L41.0884 19.1672C41.0572 19.1949 41.0544 19.2425 41.0819 19.2737C41.1098 19.305 41.1574 19.3075 41.1883 19.2801Z" fill="#00002D"/>
<path d="M50.6876 10.8616L51.6886 9.97446C51.7198 9.94683 51.7227 9.89919 51.6951 9.86803C51.6674 9.83693 51.6198 9.83397 51.5887 9.8616L50.5877 10.7488C50.5565 10.7764 50.5536 10.824 50.5812 10.8552C50.6091 10.8866 50.6567 10.889 50.6876 10.8616Z" fill="#00002D"/>
<path d="M39.3423 17.6018C39.376 17.6018 39.4067 17.5789 39.4154 17.5447L40.6812 12.4975C40.6914 12.4571 40.6668 12.4162 40.6265 12.406C40.5863 12.3961 40.5452 12.4204 40.535 12.4608L39.2691 17.508C39.2573 17.5555 39.2931 17.6018 39.3423 17.6018Z" fill="#00002D"/>
<path d="M41.5388 9.27798C41.5717 9.27798 41.6019 9.25634 41.6113 9.22322L41.9364 8.07837C41.9478 8.03834 41.9246 7.99663 41.8845 7.98525C41.8445 7.97402 41.8028 7.99723 41.7914 8.03716L41.4663 9.18201C41.4526 9.23007 41.4888 9.27798 41.5388 9.27798Z" fill="#00002D"/>
<path d="M42.5904 21.2477C42.5489 21.251 42.518 21.2873 42.5212 21.3288C42.5244 21.369 42.5592 21.401 42.6024 21.3979L48.0245 20.9674C48.066 20.9641 48.0969 20.9278 48.0937 20.8863C48.0905 20.8447 48.0543 20.8147 48.0125 20.8172L42.5904 21.2477Z" fill="#00002D"/>
<path d="M50.9824 20.657C50.9856 20.6972 51.0204 20.7292 51.0636 20.7261L52.1254 20.6418C52.167 20.6385 52.1979 20.6022 52.1946 20.5607C52.1913 20.5192 52.1542 20.4892 52.1135 20.4916L51.0516 20.5759C51.0101 20.5792 50.9792 20.6155 50.9824 20.657Z" fill="#00002D"/>
<path d="M51.332 50.6815C51.0165 50.6815 50.7603 50.9378 50.7603 51.2533C50.7603 51.5678 51.0165 51.824 51.332 51.824C51.6465 51.824 51.9038 51.5678 51.9038 51.2533C51.9038 50.9378 51.6465 50.6815 51.332 50.6815ZM51.332 51.6733C51.0999 51.6733 50.911 51.4854 50.911 51.2533C50.911 51.0202 51.0999 50.8323 51.332 50.8323C51.5641 50.8323 51.753 51.0202 51.753 51.2533C51.753 51.4854 51.5641 51.6733 51.332 51.6733Z" fill="#00002D"/>
</svg>
