<svg width="60" height="60" viewBox="0 0 60 60" fill="none" xmlns="http://www.w3.org/2000/svg">
<path d="M46.6924 46.993C46.6151 48.2684 46.269 49.2967 46.1214 50.5651C45.4621 56.2655 45.5185 56.4772 45.1586 56.9588C44.8986 57.3021 44.4721 57.4914 44.0435 57.5498C43.5492 57.6198 43.1041 57.4984 42.624 57.4565C42.1062 57.4144 41.5581 57.4892 41.0332 57.4634C40.0986 57.419 39.1637 57.2882 38.2267 57.2882H35.015C36.342 56.6845 36.1905 55.5351 34.5276 55.2628C37.1554 54.7729 36.819 53.1417 34.4223 52.9128C36.9116 52.4783 36.4708 51.2444 35.8536 50.8525C34.4583 49.9678 31.1497 51.0751 31.5525 50.1073C31.7775 49.6087 33.1152 48.8158 32.9933 48.1567C32.7999 47.1028 30.066 47.0359 28.533 49.668C27.9592 50.6695 27.8053 50.6125 26.5183 50.7286C25.8082 50.8349 19.4815 51.1103 16.2879 50.8595C14.96 50.7894 14.3637 50.4081 14.1584 48.7874C13.5071 43.746 15.0401 43.0344 14.3834 43.0943C11.1705 43.4607 7.69281 44.4871 4.62629 44.0778C4.28057 44.0303 4.037 44.0707 4.12735 43.5873C5.11206 37.9783 11.194 31.127 19.9355 28.856C20.5164 28.7065 21.4489 28.2626 21.8962 28.8373C22.025 29.0032 22.1094 29.197 22.2124 29.3817C22.7325 30.3115 23.7749 30.9257 24.8432 30.9305C25.9114 30.9351 26.9608 30.3301 27.4879 29.405C27.6543 29.1153 27.7713 28.7976 27.9729 28.5336C28.439 27.9216 29.1441 28.127 29.8094 28.2042C33.1173 28.5896 36.397 29.5755 39.1565 31.4302C43.1061 34.0885 45.3856 38.5808 46.1821 43.162C46.3788 44.2996 46.7625 45.8365 46.6923 46.9926L46.6924 46.993Z" fill="#007BD1"/>
<path d="M4.4335 26.717C5.41087 27.4062 6.35851 28.1115 7.33417 28.8022C7.38029 28.8334 7.44434 28.8269 7.48226 28.7841C8.77716 27.3157 10.1197 25.9623 11.5132 24.6268L13.216 26.3248C13.3196 26.4299 13.4973 26.3774 13.5285 26.233C13.8749 24.6199 14.2604 22.9533 14.5091 21.2762C14.5286 21.1451 14.5491 21.0139 14.5667 20.8828C14.5831 20.7613 14.4762 20.6581 14.3544 20.6744C12.4557 20.932 10.8434 21.1551 8.8296 21.5423C8.68321 21.5702 8.62719 21.7507 8.73258 21.8557L9.0127 22.1347L10.3219 23.4389C10.2424 23.5142 10.1638 23.5888 10.0847 23.6635C9.09879 24.5975 8.15012 25.4993 7.04123 26.5414C7.00007 26.5808 6.9326 26.5825 6.8899 26.543L4.67042 24.5365C4.62925 24.4988 4.56349 24.4988 4.52233 24.5365L0.0372408 28.5397C-0.0548248 28.6235 0.0389489 28.7726 0.154074 28.725C0.15749 28.7237 0.161077 28.7221 0.164493 28.7208C1.56649 28.1492 3.03646 27.4632 4.31326 26.7104C4.35117 26.6891 4.39883 26.6908 4.43333 26.717H4.4335Z" fill="#FFB400"/>
<path d="M28.4509 14.4902C28.5623 15.5512 29.0846 16.6057 30.1262 17.4025C30.4473 17.6483 30.7507 17.8802 30.8065 18.2223C30.8719 18.6225 30.5628 19.0037 30.2188 19.3558C30.0565 19.5226 30.309 19.766 30.4707 19.6004C30.8786 19.1822 31.2438 18.7193 31.1534 18.1657C31.075 17.6866 30.6846 17.388 30.3401 17.1243C29.3914 16.3991 28.9044 15.4442 28.8004 14.4536C28.7765 14.2214 28.4267 14.2604 28.4509 14.49V14.4902Z" fill="#191919"/>
<path d="M25.6587 15.9327C25.4106 16.0529 25.3714 16.5113 25.571 16.9569C25.7705 17.4023 26.1335 17.666 26.3815 17.5459C26.6295 17.4258 26.6688 16.9673 26.4693 16.5217C26.2696 16.0763 25.9068 15.8126 25.6588 15.9327H25.6587Z" fill="#191919"/>
<path d="M25.782 14.9312C24.9403 14.7539 24.1267 15.371 24.0401 16.2586C24.0176 16.4897 24.3674 16.5223 24.3899 16.2923C24.4564 15.6112 25.0747 15.1395 25.7096 15.2741C25.804 15.293 25.8976 15.2335 25.9178 15.1388C25.9378 15.0441 25.877 14.9511 25.782 14.9312Z" fill="#191919"/>
<path d="M31.399 14.8999C31.1233 14.9018 30.8896 15.2985 30.877 15.7861C30.8644 16.274 31.0777 16.6679 31.3536 16.666C31.6292 16.6643 31.8629 16.2675 31.8755 15.7798C31.8882 15.2922 31.6748 14.8982 31.399 14.8999Z" fill="#191919"/>
<path d="M31.9433 14.0497C31.2639 13.5301 30.2624 13.7297 29.7978 14.498C29.6776 14.6968 29.9791 14.8772 30.0988 14.6789C30.4518 14.0945 31.2114 13.9319 31.7297 14.3275C31.9129 14.4687 32.1285 14.1909 31.9433 14.0497Z" fill="#191919"/>
<path d="M27.3902 20.8769C27.3522 20.6481 27.0055 20.7055 27.0434 20.9343C27.1893 21.8079 28.0042 22.5372 28.9269 22.5372C29.7196 22.5372 30.4869 22.0107 30.7539 21.262C30.7865 21.1707 30.7385 21.0705 30.6471 21.0382C30.5563 21.007 30.4555 21.0535 30.4227 21.1444C30.1941 21.7859 29.4815 22.2385 28.8024 22.1816C28.1224 22.1215 27.502 21.5483 27.39 20.877L27.3902 20.8769Z" fill="#191919"/>
<path d="M20.0636 20.0008C19.8444 20.0008 19.6225 19.8848 19.4979 19.7055C19.3655 19.515 19.0765 19.7145 19.209 19.9049C19.4003 20.1802 19.7276 20.351 20.0636 20.351C20.2976 20.3566 20.2988 20.0008 20.0649 20.0008C20.0648 20.0006 20.0641 20.0008 20.0637 20.0008H20.0636Z" fill="#191919"/>
<path d="M17.1497 14.145C16.4868 14.604 16.007 15.3284 15.8514 16.1186C15.4733 18.0361 17.0049 19.5778 17.7677 19.3415C17.4239 20.8407 19.0032 22.5267 21.4143 21.7493C21.3439 24.2996 21.4886 27.9155 21.5612 30.4258C21.5679 30.6588 21.9194 30.649 21.9124 30.4158C21.8388 27.8668 21.6852 24.0572 21.7734 21.5045C21.7776 21.3804 21.6534 21.2901 21.5346 21.335C21.0131 21.5359 20.2301 21.7249 19.4627 21.4843C18.7702 21.2671 18.2209 20.6866 18.0959 20.0395C17.9604 19.3391 18.3719 18.5798 18.9764 18.4148C19.7631 18.1996 20.5312 18.9021 21.0373 19.5287C21.255 19.7988 21.9467 20.007 22.2509 19.4732C22.7125 18.665 21.848 16.7568 22.1003 15.4837C22.5765 13.078 25.4924 12.8384 27.451 12.6939C29.7978 12.5614 30.5124 12.3979 31.6673 11.5803C32.7681 14.9549 33.628 18.2627 32.9164 21.7987C32.659 23.0782 32.2562 24.4991 31.2209 25.332C29.7414 26.5226 27.2507 26.8637 24.4484 25.2455C24.2463 25.1303 24.0716 25.4328 24.2723 25.5488C25.4338 26.2194 26.6966 26.6616 28.0227 26.6878C28.1141 27.6866 28.0881 28.1734 28.1899 29.1955C28.2128 29.4253 28.5626 29.3928 28.5396 29.161C28.441 28.1714 28.4637 27.6706 28.3756 26.6883C29.5308 26.6432 30.6258 26.2613 31.4418 25.6048C32.5642 24.7014 32.9914 23.2087 33.2612 21.8675C33.5405 20.4793 33.596 18.9704 33.4261 17.3827C33.1847 15.126 32.6187 13.3715 31.9663 11.3637C32.1857 11.2015 32.3211 11.1013 32.4376 11.0181C34.309 9.67519 35.1647 7.42906 34.7785 5.2773C34.144 1.74281 30.6193 1.32771 28.8089 4.04412C28.3642 4.71164 28.0017 5.52615 27.7643 6.12843C26.7452 3.74349 23.7264 3.21734 21.9436 4.90547C21.1508 5.65679 20.6696 6.97428 20.7362 8.09403C18.6184 6.45972 15.4369 8.11855 15.8029 11.333C15.9268 12.4212 16.5657 13.3947 17.1497 14.145ZM31.8852 4.32533C31.8172 4.25515 31.8196 4.14546 31.8898 4.07767C31.9602 4.01227 32.0726 4.01465 32.1382 4.08466C33.3629 5.36587 33.2904 7.35326 32.0796 8.55596C31.9165 8.71811 31.6661 8.47301 31.8312 8.3083C32.9442 7.20338 32.9405 5.43093 31.885 4.32533H31.8852Z" fill="#191919"/>
<path d="M48.2117 36.6292C49.7483 36.9286 50.718 38.4757 50.3111 39.985C50.2512 40.2086 50.5903 40.3001 50.6505 40.0761C51.1095 38.3721 50.0163 36.6239 48.2794 36.2854C48.0496 36.2425 47.9849 36.5854 48.2117 36.6293V36.6292Z" fill="#191919"/>
<path d="M45.4608 24.149C46.2829 23.8373 46.3091 22.8281 45.648 22.436C45.4386 22.3113 45.137 22.2625 45.0347 22.1098C44.9394 21.9673 44.9376 21.6617 44.6828 21.5239C44.4409 21.3929 44.0693 21.4852 43.8906 21.9702C43.5304 22.9487 44.2874 24.5944 45.4608 24.1488V24.149ZM44.3629 21.8632C44.411 21.8254 44.478 21.8116 44.5152 21.832C44.6093 21.8831 44.6218 22.124 44.7424 22.3049C44.9257 22.5777 45.2583 22.6128 45.4687 22.7373C45.669 22.8562 45.7907 23.1095 45.7575 23.3396C45.6912 23.8046 45.0369 24.0359 44.6845 23.7384C44.0426 23.1967 44.0433 22.1151 44.363 21.8632H44.3629Z" fill="#191919"/>
<path d="M56.4989 20.9506C56.4939 20.9471 56.488 20.9462 56.4828 20.9431C56.7635 19.6571 56.7185 18.3199 56.3945 17.1066C58.4357 14.8816 59.6544 12.9695 59.0432 12.2301C58.3908 11.4405 56.138 12.4948 54.3426 13.5323C51.0945 10.2097 45.7334 10.3189 42.5956 13.6464C42.5934 13.6456 42.592 13.6439 42.5898 13.6432C40.6861 13.0077 38.3163 12.4369 37.8386 13.3269C37.4316 14.0852 38.6569 15.4809 40.6761 17.0469C40.0246 19.3722 40.4356 21.8595 41.8287 23.8403C40.4981 25.3719 39.0747 27.334 39.7183 28.1128C40.5316 29.0975 43.8413 27.1683 44.9268 26.5114C45.8686 26.9733 46.9019 27.2521 47.9795 27.3221C47.9781 27.3465 48.2208 33.9844 48.1084 34.5785C48.0143 35.0576 47.7591 35.0843 47.5771 34.8597C47.4925 34.7587 47.4392 34.6202 47.3719 34.4596C46.8489 33.2308 45.7274 32.2165 45.0783 32.0947C44.7813 32.0385 44.4916 32.1266 44.3208 32.3218C43.5193 33.2356 45.7846 35.4701 45.9884 37.7674C46.1002 38.8346 46.1687 40.1342 47.1996 40.6267C47.4659 40.7534 47.4884 40.8527 47.4319 41.2678C47.4105 41.4451 46.6147 47.1409 46.4962 47.9891L40.9868 57.2262L35.5154 57.2024C36.2827 56.6492 36.351 55.7498 35.2266 55.2782C36.0424 55.0348 36.6819 54.5863 36.4784 53.7617C36.3908 53.4034 35.9343 53.0857 35.2847 52.8966C35.3275 52.8834 35.3702 52.8696 35.4129 52.8547C36.9159 52.3475 36.6204 51.1325 35.9476 50.7048C35.389 50.3507 34.6267 50.3983 33.9525 50.3507C32.6433 50.2586 32.5101 50.3945 31.9127 50.3465C31.4377 50.3099 31.7418 50.1135 32.7688 49.045C32.9929 48.8195 33.2471 48.564 33.166 48.1252C32.9873 47.1538 31.5079 47.1923 30.6266 47.5311C29.7624 47.8665 28.9439 48.6136 28.3801 49.5815C27.9594 50.2475 27.9736 50.4601 26.7777 50.5349C23.5179 50.7403 22.7769 50.7657 17.2743 50.8464C17.0032 48.8818 15.373 43.7992 14.779 41.3335C14.7696 41.7844 14.7626 42.2329 14.7532 42.6837C14.7462 43.0482 14.8492 43.4407 14.7907 43.8028C14.7424 44.1043 14.4339 44.2032 14.1533 44.2831C14.0974 44.0966 13.8311 44.1312 13.8103 44.3134C13.611 46.0748 13.5857 47.549 13.7331 48.8203C13.8072 49.4335 14.0038 51.0625 15.2791 51.1561C16.7202 51.2617 22.6958 51.1419 26.7998 50.8845C28.012 50.8084 28.2142 50.586 28.6846 49.7565C29.2008 48.8702 29.9744 48.1603 30.7535 47.858C31.3752 47.6187 32.692 47.4916 32.8202 48.1889C32.8754 48.4877 32.6786 48.6309 32.4347 48.8844C31.5156 49.8476 31.4722 49.858 31.3901 50.0406C31.3204 50.208 31.338 50.3884 31.4362 50.5117C31.564 50.671 31.7729 50.687 31.8847 50.696C32.1503 50.7176 32.4101 50.7009 32.6616 50.6846C33.6345 50.6226 34.0041 50.7423 34.721 50.7379C35.3796 50.7936 36.0379 50.9271 36.1375 51.5826C36.2549 52.353 35.1631 52.6062 34.3917 52.7408H32.1134C31.8811 52.7408 31.8808 53.091 32.1134 53.091C32.1379 53.091 34.4479 53.0905 34.4243 53.0905C35.5036 53.1978 36.0757 53.595 36.137 53.8455C36.3307 54.6292 35.3825 54.9149 34.5818 55.0734H32.3164C32.0841 55.0734 32.0837 55.4236 32.3164 55.4236H34.4624C34.4742 55.4284 34.4856 55.4342 34.4986 55.4364C35.2245 55.5555 35.6089 55.882 35.6811 56.061C35.9061 56.611 35.2317 56.9922 34.9716 57.1155C32.3047 57.2363 20.5791 57.1431 8.39671 57.1624C6.37144 55.8043 5.52901 53.5456 5.3611 51.1049C5.18808 48.5863 5.32933 46.8977 5.55053 44.5619C5.55993 44.463 5.48255 44.3618 5.36025 44.3749L5.38228 44.1366L4.05835 43.8951L5.13683 45.2097C4.96722 47.0453 4.8468 48.7474 5.01061 51.129C5.23385 54.3727 6.54019 56.3593 8.24691 57.4838C8.27561 57.5027 8.30926 57.5127 8.34376 57.5127H8.3441C25 57.4815 58.0818 57.6514 58.0563 57.6514C58.2883 57.6514 58.289 57.3017 58.057 57.3012L55.4156 57.2896C55.3429 55.8963 53.3017 42.3102 53.3058 41.4264C53.307 41.2012 53.3446 41.0903 53.4672 40.9513C53.8835 40.4807 54.3845 38.935 54.558 38.3385C55.127 37.9448 55.9737 36.542 56.1344 35.2969C56.2823 34.1956 55.5478 33.8036 54.8818 34.1307C54.9686 33.5899 54.9553 32.9932 54.5232 32.6435C54.1896 32.37 53.7174 32.3957 53.3646 32.5659C53.3664 32.1041 53.2342 31.7578 52.9649 31.5374C52.5664 31.2109 52.0085 31.3124 51.6594 31.5442C51.4011 31.7157 51.2146 31.9542 51.0593 32.2083C51.0576 32.1848 50.7078 27.4226 50.6311 27.0639C52.2106 26.6434 53.5769 25.7813 54.621 24.6064C55.8088 25.03 59.3247 26.2162 59.9181 25.1101C60.4418 24.1344 58.3479 22.3097 56.4989 20.951V20.9506ZM54.5115 24.1908C53.7601 23.9186 52.9442 23.5931 52.0756 23.2155C52.7148 22.3937 54.1781 23.2 54.4885 20.834C54.5583 20.3 54.5923 19.722 54.8817 19.2979C55.0581 19.0394 55.4081 18.7764 55.7193 18.7764C55.8438 18.7764 55.9757 18.8108 56.1241 18.8799C56.2017 18.9162 56.2499 18.9774 56.3163 19.0622C56.4077 20.6572 55.756 22.7011 54.5114 24.1904L54.5115 24.1908ZM53.0199 25.5664C52.3319 25.063 51.6307 24.3294 51.9094 23.524C52.7198 23.8776 53.5109 24.1985 54.2616 24.4758C53.9002 24.868 53.528 25.2082 53.0197 25.5664H53.0199ZM56.2864 18.5705C55.9701 18.4109 55.6211 18.3708 55.2894 18.5212C54.3407 18.952 54.2526 19.8632 54.14 20.7885C53.8479 23.0159 52.5267 21.929 51.7504 23.0736C51.3574 22.8994 50.9534 22.7139 50.5413 22.519C52.4489 20.9823 54.4603 19.1697 56.1052 17.4183C56.1937 17.7944 56.2548 18.1785 56.2864 18.5703V18.5705ZM41.3531 22.2679C42.5647 22.045 43.3654 20.7358 43.1825 19.5287C43.1425 19.2681 43.0689 18.9871 43.0585 18.7374C45.0602 20.0545 47.4146 21.3981 49.8871 22.5929C48.0649 24.037 46.3681 25.2189 44.9082 26.109C43.2826 25.2599 42.0389 23.8736 41.3531 22.2678V22.2679ZM40.9774 17.2773C41.5129 17.6817 42.0972 18.0952 42.7176 18.5112C42.672 18.8694 42.7869 19.2639 42.8349 19.5815C42.9977 20.6537 42.2613 21.7919 41.2182 21.9367C40.6738 20.4907 40.5574 18.8862 40.9774 17.2775V17.2773ZM43.788 13.046C44.0635 13.2807 44.3587 13.6025 44.6668 14.0041C45.1675 14.6662 45.4102 15.3916 45.3501 16.0477C45.278 16.7972 44.7599 17.4539 44.1185 17.6095C43.6616 17.721 43.1154 17.6679 42.8291 18.1644C42.1877 17.7307 41.6029 17.3112 41.0814 16.9123C41.5614 15.3799 42.5001 14.0278 43.788 13.0462V13.046ZM43.1229 18.362C43.3017 18.0065 43.768 18.0561 44.2019 17.9498C44.9967 17.7571 45.6124 16.9888 45.6999 16.0806C45.6949 16.0424 45.8748 15.0191 44.9464 13.7922C44.6451 13.3994 44.3544 13.0818 44.0777 12.8365C44.9871 12.2068 46.0176 11.7764 47.0926 11.5795C46.8858 12.1055 47.1439 12.8438 48.1324 13.2656C48.3568 13.3608 48.5071 13.4345 48.5464 13.5807C48.5973 13.7794 48.4024 13.9816 48.1501 14.255C47.5248 14.9317 47.3109 15.9363 47.6047 16.8149C48.0623 18.1663 49.6211 18.8581 50.5628 18.4511C50.9095 18.3029 51.1603 17.9876 51.2013 17.6474C51.2559 17.183 50.9316 16.7459 51.0757 16.4362C51.205 16.1605 51.6449 16.1424 51.9918 16.2647C52.7567 16.536 53.653 17.184 54.517 15.4599C54.6622 15.1767 54.7701 14.9258 54.8525 14.689C55.3692 15.4013 55.7554 16.1831 55.9996 17.0145C54.2661 18.891 52.1747 20.7592 50.1892 22.3519C47.8546 21.2295 45.3236 19.8242 43.1226 18.3618L43.1229 18.362ZM54.5945 14.3453C54.5155 14.6309 54.3904 14.9372 54.2036 15.3017C54.015 15.6779 53.7104 16.1862 53.2482 16.2557C52.8839 16.3092 52.5138 16.0768 52.1089 15.9344C51.6039 15.7554 50.9767 15.8198 50.7573 16.2884C50.5413 16.7529 50.8971 17.2277 50.8526 17.6062C50.8263 17.8239 50.6583 18.0291 50.4241 18.1293C49.7017 18.4419 48.3418 17.8956 47.9383 16.7033C47.6883 15.9564 47.8773 15.0678 48.4104 14.4907C48.6854 14.193 48.9886 13.8893 48.8866 13.4919C48.7167 12.8592 47.8133 13.0373 47.4623 12.2662C47.3296 11.9765 47.354 11.7289 47.5376 11.5105C50.1409 11.1632 52.8414 12.1688 54.5947 14.3454L54.5945 14.3453ZM58.772 12.4529C59.164 12.9271 58.237 14.5386 56.2739 16.7147C55.92 15.62 55.3596 14.6566 54.5891 13.7958C57.2296 12.2799 58.483 12.1032 58.772 12.4528V12.4529ZM38.1484 13.4923C38.3568 13.1046 39.5721 13.0227 42.3411 13.9314C41.6474 14.7399 41.1207 15.6772 40.7873 16.6841C38.8612 15.17 37.8859 13.9816 38.1484 13.4923ZM39.9899 27.8902C39.7054 27.5459 40.1032 26.3768 42.0413 24.132C42.7324 25.0409 43.59 25.7806 44.5589 26.3196C42.0977 27.7798 40.3766 28.3572 39.9899 27.8902ZM50.2388 22.7617C50.6916 22.977 51.143 23.185 51.5895 23.3833C51.2414 24.3279 51.9088 25.1531 52.709 25.7711C50.3617 27.2695 47.5564 27.3272 45.2836 26.2926C46.8544 25.3167 48.5812 24.0802 50.2388 22.7616V22.7617ZM55.6047 34.4597C55.9675 34.76 55.7506 35.52 55.6141 35.968C55.4283 36.5836 55.1234 37.1736 54.7329 37.6744C54.6046 37.8379 54.4613 38.0026 54.2833 38.1007C54.1144 38.1927 53.8772 38.2284 53.7731 38.1286C53.673 38.0319 53.6947 37.8239 53.713 37.6463C53.7443 37.3492 53.796 37.0528 53.8655 36.7645C54.2541 36.1489 54.5606 35.4528 54.765 34.6672C55.0735 34.3184 55.4312 34.3177 55.6049 34.4597H55.6047ZM54.3011 32.9144C54.5368 33.1051 54.621 33.4625 54.5517 33.9775C54.5131 34.2737 54.4302 34.5606 54.4362 34.5369C54.1262 35.7755 53.5772 36.5517 53.5422 36.6216C53.3201 36.9675 52.9466 37.5025 52.5821 37.6989C52.3517 37.8251 52.0212 37.8772 51.8637 37.7265C51.7151 37.5832 51.7458 37.2959 51.7709 37.0622C51.7969 36.8127 51.8384 36.5451 51.8954 36.2492C52.0201 36.0544 52.6873 35.2877 53.1066 33.9091C53.1886 33.6403 53.2766 33.3294 53.327 33.0077C53.6696 32.7238 54.0867 32.7384 54.3013 32.9144H54.3011ZM52.3566 31.6803C52.9331 31.6803 53.0738 32.262 52.9932 32.873C52.7737 34.5437 51.6216 36.2666 51.0236 36.5946C50.7937 36.7212 50.463 36.7737 50.3044 36.6204C50.1573 36.479 50.1877 36.1933 50.2128 35.9563C50.3348 34.8094 50.6653 33.7077 51.1953 32.6819C51.4518 32.186 51.7935 31.6803 52.3568 31.6803H52.3566ZM50.7532 32.7869C50.2798 33.7754 49.9793 34.8277 49.8625 35.9266C49.8319 36.216 49.7899 36.6124 50.0604 36.8726C50.3489 37.1501 50.8421 37.094 51.1931 36.9016C51.2913 36.8478 51.3789 36.7815 51.4623 36.7117C51.3975 37.168 51.3056 37.6761 51.6198 37.9787C51.9084 38.2554 52.4021 38.1976 52.7503 38.0065C53.0146 37.8643 53.2187 37.6452 53.3881 37.4349C53.3453 37.7641 53.2768 38.1365 53.5289 38.3807C53.6549 38.5016 53.8546 38.5718 54.1359 38.5187C53.9882 38.9949 53.5386 40.3407 53.2042 40.7195C52.9982 40.9525 52.9562 41.162 52.955 41.4243C52.9505 42.3422 54.9842 55.8762 55.0644 57.2879L45.5593 57.2462C46.8913 47.7016 47.7574 41.5028 47.7805 41.3124C47.8498 40.8038 47.7993 40.5234 47.3512 40.3104C46.4936 39.9046 46.4224 38.6227 46.3385 37.7364C46.1411 35.5096 44.0466 33.1673 44.5859 32.5522C44.674 32.4514 44.8416 32.4068 45.0136 32.4391C45.4421 32.5195 46.5175 33.3478 47.0489 34.5969C47.1229 34.7737 47.1871 34.9406 47.3058 35.082C47.6467 35.5047 48.2931 35.4635 48.4538 34.6447C48.584 33.9566 48.3295 27.3652 48.331 27.3383C48.9825 27.3545 49.6136 27.2995 50.2907 27.1503C50.3797 27.5774 50.7326 32.6703 50.7532 32.7869ZM59.6086 24.9445C59.323 25.4752 57.5401 25.2519 54.8641 24.3163C55.5793 23.4321 56.1006 22.4085 56.3945 21.3105C59.1134 23.3257 59.8423 24.509 59.6085 24.9445H59.6086Z" fill="#191919"/>
<path d="M10.0845 23.6636C10.1634 23.5888 10.2421 23.5144 10.3216 23.4391L9.01233 22.1349C8.99764 22.1378 8.98397 22.14 8.96928 22.1429C8.8229 22.1708 8.76687 22.3512 8.87226 22.4563L10.0845 23.6638V23.6636Z" fill="#191919"/>
<path d="M4.57348 27.3175C5.55084 28.0065 6.49849 28.712 7.47414 29.4027C7.52026 29.4338 7.58449 29.4274 7.62224 29.3846C8.91713 27.9162 10.2597 26.5626 11.6531 25.2272L13.3559 26.9252C13.4596 27.0303 13.6372 26.9777 13.6685 26.8334C14.0419 25.0944 14.4633 23.2928 14.7067 21.4832C14.7224 21.3669 14.6244 21.2701 14.5091 21.2763C14.2604 22.9532 13.8748 24.62 13.5284 26.233C13.4972 26.3775 13.3195 26.4299 13.2159 26.3248L11.5129 24.6268C10.1193 25.9624 8.77673 27.3158 7.482 28.7842C7.44425 28.827 7.38003 28.8334 7.33391 28.8023C6.35825 28.1116 5.41061 27.4061 4.43324 26.7169C4.39874 26.6907 4.35091 26.6892 4.31317 26.7103C3.0362 27.4631 1.56623 28.149 0.164403 28.7207C0.139465 28.9365 0.183362 29.3088 0.271158 29.2724C1.67623 28.6997 3.17319 28.0652 4.45323 27.3105C4.49115 27.2892 4.5388 27.2909 4.57331 27.3172L4.57348 27.3175Z" fill="#191919"/>
<path d="M14.7535 42.6833C14.7465 43.0478 14.8495 43.4403 14.7909 43.8024C14.7298 44.1838 14.2541 44.2454 13.8679 44.3677H13.8655C10.6914 45.2909 7.43132 45.1953 4.86271 44.4004C4.58156 44.3139 4.2162 44.258 4.09903 43.9635C4.01225 43.7256 4.08126 43.483 4.15522 43.2371C4.42698 42.333 4.70813 41.4219 5.18127 40.6043C5.24686 40.4898 5.31723 40.3754 5.41562 40.2842C5.55756 40.1546 5.10833 40.2733 11.6892 38.9831C14.9831 38.3399 14.6323 38.3916 14.6714 38.399C14.9689 38.4551 14.8236 39.0531 14.8166 39.3428C14.8152 39.4173 14.7563 42.5411 14.7534 42.6833H14.7535Z" fill="#007BD1"/>
<path d="M59.2239 15.4952C58.2633 16.1525 56.926 15.4692 56.926 14.2859C56.926 12.8977 58.6927 12.2924 59.5493 13.3801C60.0703 14.0357 59.9324 15.0113 59.2239 15.4952Z" fill="#FFB400"/>
<path d="M42.2721 29.1403C41.6782 29.1115 41.1804 28.7293 40.978 28.2131C40.6009 27.2579 41.3078 26.2129 42.346 26.2129C43.1524 26.2129 43.7948 26.8576 43.8136 27.6372C43.8872 28.3698 43.1874 29.1885 42.2721 29.1405V29.1403Z" fill="#007BD1"/>
<path d="M39.5591 16.0388C38.5985 16.6961 37.2612 16.0128 37.2612 14.8295C37.2612 13.4451 39.0245 12.8319 39.8845 13.9237C40.0744 14.1627 40.1903 14.4625 40.1981 14.789C40.2382 15.1891 40.0077 15.7324 39.5589 16.0388H39.5591Z" fill="#FFB400"/>
<path d="M58.3905 26.2568C57.7469 26.6971 56.8488 26.5596 56.3748 25.9093C55.6663 24.9528 56.3601 23.5826 57.5621 23.5826C58.9996 23.5826 59.5819 25.4431 58.3905 26.2568Z" fill="#007BD1"/>
</svg>
