<svg width="120" height="117" viewBox="0 0 120 117" fill="none" xmlns="http://www.w3.org/2000/svg">
<g clip-path="url(#clip0_1208_1145)">
<path d="M75.1965 104.216C78.9323 106.562 81.9507 110.804 87.2127 109.723C91.4322 108.856 93.6049 104.816 94.8721 101.853C95.0546 101.426 94.4088 101.15 94.2266 101.577C92.3113 106.056 90.0375 108.426 87.0716 109.036C82.1711 110.042 79.3778 106.012 75.5697 103.622C75.1763 103.375 74.8034 103.97 75.1965 104.216V104.216Z" fill="white"/>
<path d="M56.8239 66.1785C52.9523 68.3924 48.474 69.6889 43.727 69.6889C38.98 69.6889 34.423 68.3597 30.5653 66.0906C31.8792 65.6834 37.1231 64.2522 38.1882 64.1689C39.9934 63.9846 40.4694 65.0798 41.5873 65.5813C42.3699 65.9194 43.5186 65.9843 44.3519 65.9701C46.6175 65.9506 47.8778 64.9274 48.6541 64.6966C49.0524 64.5814 49.4838 64.6034 49.9045 64.669C52.259 65.0096 54.6125 65.4409 56.8235 66.1789L56.8239 66.1785Z" fill="#0062A7"/>
<path d="M76.5671 116.614H21.3698C22.4572 111.389 23.9348 106.612 24.6501 101.715H74.8966C75.4676 104.125 75.9355 106.577 76.2722 109.043C76.3704 109.768 76.6277 114.022 76.5671 116.614V116.614Z" fill="#0062A7"/>
<path d="M107.78 64.9603V21.3449C107.78 18.3209 105.334 15.8756 102.315 15.8756H13.44C10.4251 15.8756 7.97986 18.3209 7.97986 21.3449V96.2529C7.97986 99.2752 10.4273 101.713 13.44 101.713H102.315C105.335 101.713 107.78 99.2724 107.78 96.2529V82.656C105.946 82.5355 103.459 82.1881 103.422 80.1505C103.404 79.2335 103.983 78.4371 104.895 78.3396C105.46 78.284 106.025 78.284 106.581 78.3166C104.732 78.1192 103.95 78.0717 103.251 77.7424C102.686 77.483 102.191 76.9921 102.084 76.3856C101.852 75.0841 103.321 74.1349 104.432 73.9542C105.221 73.8167 105.765 73.9843 107.78 74.2182V74.1764C106.465 73.9634 105.159 73.6993 103.862 73.3984C103.163 73.2411 102.417 73.0326 101.996 72.4535C101.449 71.6939 101.732 70.5594 102.417 69.9203C103.311 69.0775 104.58 68.985 105.816 69.0775C104.943 68.9081 104.103 68.7574 103.88 67.9103C103.311 65.8134 105.612 65.0131 107.78 64.9603ZM22.0213 19.2885C23.2579 19.2885 24.2581 20.2887 24.2581 21.5254C24.2581 22.762 23.2579 23.7576 22.0213 23.7576C20.7846 23.7576 19.789 22.762 19.789 21.5254C19.789 20.2887 20.7892 19.2885 22.0213 19.2885ZM13.7037 23.8827C12.4717 23.8827 11.4668 22.8825 11.4668 21.6459C11.4668 20.4092 12.4717 19.4136 13.7037 19.4136C14.9357 19.4136 15.9359 20.4184 15.9359 21.6459C15.9359 22.8733 14.9403 23.8827 13.7037 23.8827ZM34.1268 92.4091C34.1268 92.8677 33.7518 93.2427 33.2885 93.2427H30.5884C30.1251 93.2427 29.7502 92.8677 29.7502 92.4091V89.709C29.7502 89.2457 30.1251 88.8707 30.5884 88.8707H33.2885C33.7518 88.8707 34.1268 89.2457 34.1268 89.709V92.4091ZM34.1268 84.8925C34.1268 85.3511 33.7518 85.7261 33.2885 85.7261H30.5884C30.1251 85.7261 29.7502 85.3511 29.7502 84.8925V82.1924C29.7502 81.7291 30.1251 81.3541 30.5884 81.3541H33.2885C33.7518 81.3541 34.1268 81.7291 34.1268 82.1924V84.8925ZM34.1268 77.3717C34.1268 77.8349 33.7518 78.2099 33.2885 78.2099H30.5884C30.1251 78.2099 29.7502 77.8349 29.7502 77.3717V74.6765C29.7502 74.2133 30.1251 73.8383 30.5884 73.8383H33.2885C33.7518 73.8383 34.1268 74.2133 34.1268 74.6765V77.3717ZM56.8285 66.1785H56.8239C52.9524 68.3923 48.474 69.6889 43.7271 69.6889C38.9801 69.6889 34.4231 68.3597 30.5654 66.0906C22.711 61.4872 17.4777 53.003 17.4777 43.9911C17.4777 30.5515 29.3103 19.6592 43.9121 19.6592C58.5139 19.6592 70.3556 30.5515 70.3556 43.9911C70.3556 53.0633 64.8817 61.5985 56.8282 66.1785H56.8285Z" fill="#60A5FA"/>
<path d="M96.5215 116.982H0.384455C-0.081631 116.982 -0.0809221 116.278 0.384455 116.278H10.1375C10.0298 108.462 10.6965 101.505 10.8599 101.069C11.0683 101.18 11.2905 101.277 11.5174 101.361C10.957 106.274 10.7624 110.632 10.8411 116.278H96.5208C96.9869 116.278 96.9862 116.982 96.5208 116.982H96.5215Z" fill="white"/>
<path d="M24.6451 101.715C24.1585 105.014 23.3163 108.374 22.5018 111.692L22.511 111.785C23.6715 108.332 25.0942 104.958 26.7551 101.715H24.6448H24.6451Z" fill="white"/>
<path d="M60.2151 63.6326C59.8217 63.8811 60.1991 64.4741 60.5901 64.2259C65.801 60.9325 69.562 55.3441 70.6505 49.2768C70.7323 48.8185 70.0408 48.6973 69.9593 49.1528C68.9052 55.0297 65.2623 60.4427 60.2151 63.6326Z" fill="white"/>
<path d="M53.2309 74.685C53.5432 74.3419 53.0246 73.8691 52.7117 74.2129C51.0309 76.0613 48.0359 76.5813 45.7753 75.5389C46.3328 74.4419 45.5527 73.2698 44.4969 73.5767C43.6944 73.8113 43.3758 74.875 44.7085 75.7476C42.7665 77.4085 39.3125 77.5039 37.1051 75.6176C36.7535 75.3163 36.2952 75.849 36.6492 76.1513C39.2586 78.3811 43.3786 78.0795 45.3464 76.1141C47.9119 77.3869 51.2851 76.8255 53.2309 74.6847V74.685ZM45.1586 75.2032C43.9177 74.4142 44.7645 74.058 45.0633 74.3107C45.3004 74.5107 45.2997 74.9147 45.1586 75.2032Z" fill="white"/>
<path d="M51.9829 83.1597C52.4376 83.0562 52.2767 82.3696 51.8269 82.4752C49.4366 83.0204 47.1342 83.4269 45.2425 82.4338C44.5507 82.0708 43.8542 81.5083 42.9724 81.5572C42.0916 81.6076 41.4632 82.2463 40.8096 82.6489C39.6672 83.3514 38.1187 83.3752 36.9558 82.707C36.5528 82.4767 36.2033 83.0842 36.6063 83.3156C37.9759 84.1021 39.8133 84.0858 41.1778 83.2465C41.8254 82.8474 42.3758 82.2941 43.0128 82.258C43.6543 82.2268 44.2668 82.7145 44.9172 83.0551C47.0208 84.1592 49.46 83.7346 51.9836 83.1593L51.9829 83.1597Z" fill="white"/>
<path d="M36.0676 91.7105C35.5927 91.7002 35.5806 92.3907 36.035 92.4116C39.3923 92.5675 42.7881 92.4048 46.1177 91.9278C46.5803 91.8618 46.4743 91.1629 46.0181 91.2331C42.7329 91.703 39.3852 91.8643 36.0673 91.7105H36.0676Z" fill="white"/>
<path d="M74.8076 102.407C75.0369 102.183 75.2755 101.949 75.519 101.715H74.686C74.7282 101.944 74.7654 102.178 74.8076 102.407Z" fill="white"/>
<path d="M29.195 23.9883C29.5934 23.7473 29.2287 23.148 28.8324 23.3872C22.3788 27.2843 17.8924 34.3638 17.1239 41.8634C16.3552 49.3629 19.3122 57.2056 24.8411 62.3304C25.1821 62.6462 25.6584 62.1312 25.3182 61.8157C19.9477 56.8377 17.0757 49.2194 17.8222 41.935C18.569 34.6505 22.9268 27.7737 29.1954 23.9887L29.195 23.9883Z" fill="white"/>
<path d="M55.2169 27.8003C54.6345 27.929 54.1107 28.3689 53.6655 28.4578C53.2905 28.5365 53.2859 28.5273 53.0264 28.2171C51.5782 26.3659 48.7537 25.0598 45.9827 25.4756C43.2687 25.8786 40.8238 27.9254 39.9019 30.5143C36.9704 29.2776 33.3813 29.8844 31.0428 32.0472C28.2005 34.6839 27.2964 38.5168 26.6523 42.0874C26.4071 43.3701 26.1522 44.6992 26.4209 46.0978C26.7126 47.5936 27.4211 49.006 28.4263 50.1083C27.8475 51.0763 27.6111 52.2431 27.7734 53.3592C28.3582 57.3863 34.0204 59.1369 38.1794 59.2546C38.1794 64.1497 38.1655 64.1217 38.1886 64.1682C38.4154 64.1451 38.6423 64.1405 38.8695 64.1635C38.895 64.1122 38.9442 52.9328 38.9389 52.1552C38.9389 51.9528 38.7 51.5845 38.4016 51.6271C34.5081 52.1555 32.4463 50.2054 32.4229 48.2464C32.3396 45.1632 36.9998 44.3568 38.7075 48.9734C38.7139 49.0053 38.8829 49.2818 38.9343 49.3161C39.3047 49.6482 39.4334 49.8506 39.7541 50.0895C40.0437 50.3171 40.4428 49.9906 40.2819 49.6589L38.1886 45.3613C37.2752 43.4778 36.3948 42.6056 37.4382 40.8553C40.0554 36.3685 44.0513 35.1772 46.8624 36.1966C47.7946 36.539 48.6367 37.1189 49.5483 37.5814C51.1369 38.3778 53.406 38.8503 55.555 38.6603C56.7498 43.8007 56.898 49.1914 55.9764 54.3828C55.6709 56.0824 55.1938 57.9903 53.9203 59.2734C52.582 60.6255 50.3869 61.2093 48.0434 60.8386C45.8898 60.4958 43.9032 59.4726 41.9768 58.4858C41.8056 58.3979 41.5923 58.4628 41.5044 58.6386C41.4165 58.8098 41.4859 59.0185 41.6571 59.111C43.8181 60.2169 46.1922 61.423 48.6548 61.6166V64.6963C48.8632 64.636 49.0808 64.6084 49.3587 64.6176V61.6492C49.4076 61.6407 52.4412 61.7711 54.4204 59.7689C55.8283 58.3472 56.3468 56.3096 56.6665 54.5079C57.6019 49.247 57.4583 43.7823 56.2543 38.5724C59.3049 38.0996 61.3302 36.2593 61.5198 33.2931C61.7311 29.9571 58.7818 26.9919 55.2169 27.8007V27.8003ZM35.8681 35.363C33.7748 36.0807 32.2464 38.1276 32.1447 40.3368C32.1213 40.8047 31.4341 40.7799 31.4454 40.3042C31.5567 37.8128 33.2793 35.5065 35.6366 34.6959C36.0832 34.5506 36.3019 35.207 35.8681 35.3626V35.363Z" fill="white"/>
<path d="M43.3594 43.4133C43.0989 44.7319 44.271 46.3371 45.3418 45.9252C46.011 45.669 46.2481 44.7194 45.8819 43.7635C45.2567 42.132 43.6306 42.042 43.3594 43.4133Z" fill="white"/>
<path d="M52.5922 40.7111C51.0206 41.3129 52.3193 44.7279 53.8983 44.1204C54.2414 43.9889 54.4877 43.6621 54.5746 43.223C54.833 41.9155 53.6672 40.3003 52.5922 40.7111Z" fill="white"/>
<path d="M50.7945 39.578C50.4677 39.9076 50.9653 40.4017 51.2928 40.0724C52.0301 39.3291 53.2139 39.3419 53.9419 40.0423C54.2758 40.3645 54.7635 39.8587 54.4285 39.5365C53.3957 38.5419 51.7752 38.5894 50.7945 39.578Z" fill="white"/>
<path d="M44.494 40.2138C43.1485 39.9785 41.7981 40.6951 41.2519 41.9697C41.0676 42.3993 41.7148 42.6711 41.897 42.2465C42.3089 41.2856 43.3325 40.7224 44.3735 40.9053C44.5624 40.9383 44.746 40.811 44.7796 40.62C44.813 40.4293 44.685 40.2475 44.4943 40.2138H44.494Z" fill="white"/>
<path d="M49.8237 40.3911C49.6298 40.3946 49.4756 40.5548 49.4792 40.7487C49.5114 42.4741 50.3979 44.1768 51.7926 45.193C52.3778 45.6187 53.0487 45.9564 53.2391 46.5303C53.5276 47.4018 52.6989 48.1951 52.0726 48.7675C51.7285 49.0819 52.2087 49.5955 52.5461 49.2853C52.9197 48.944 53.3429 48.557 53.6357 48.071C53.9855 47.4904 54.084 46.8486 53.9051 46.3095C53.6311 45.4829 52.812 45.0664 52.2059 44.6255C50.9852 43.7362 50.2093 42.2455 50.181 40.7356C50.1774 40.5417 50.0193 40.401 49.8233 40.3911H49.8237Z" fill="white"/>
<path d="M46.3307 49.6018C45.675 51.6055 47.6669 53.4865 49.6326 52.7078C50.0629 52.5373 49.8073 51.8848 49.3739 52.0552C48.7465 52.3041 47.9664 52.1545 47.4751 51.693C46.9842 51.2312 46.7879 50.461 46.9977 49.8202C47.1427 49.3782 46.4742 49.1616 46.3307 49.6018Z" fill="white"/>
<path d="M35.3258 47.5245C35.2219 47.0729 34.5368 47.2306 34.6421 47.6833C34.7686 48.2284 35.0989 48.7324 35.5484 49.0659C35.9195 49.3424 36.3405 48.7799 35.9666 48.5024C35.6487 48.2663 35.4151 47.9097 35.3258 47.5245Z" fill="white"/>
<path d="M117.265 45.9015C121.302 42.1172 118.864 36.337 113.861 35.1631C113.41 35.0571 113.248 35.7401 113.701 35.8464C118.029 36.8619 120.382 41.7943 116.885 45.2784C115.085 42.6814 112.169 43.3839 111.866 45.3953C111.573 47.3426 114.018 48.374 116.715 46.3626C119.795 52.2895 115.078 59.6289 108.129 58.9604V36.1119C112.097 30.2665 114.392 23.8774 115.224 17.3597C115.499 14.8921 116.781 7.07103 114.665 5.71282C113.605 5.03088 110.454 5.63839 109.265 5.52178C103.785 4.99863 98.6462 3.08112 93.9399 0.269716C93.2339 -0.154192 92.3396 -0.0719621 91.7144 0.475645C91.0109 1.0913 90.2637 1.68782 89.4942 2.2489C89.267 2.41478 89.3181 2.76815 89.5825 2.86278C90.1038 3.05028 96.4231 7.43433 105.346 8.28391C106.453 8.39237 109.674 7.87667 110.428 8.36047C112.178 9.48865 110.76 18.1968 110.672 19.3339C109.568 27.963 106.117 35.8032 98.9173 43.6621C98.1287 44.522 97.2355 45.4971 96.304 46.3226C96.0637 46.5359 96.214 46.9361 96.5365 46.9361C99.0988 46.9361 102.165 43.2737 103.912 41.4051C105.18 40.0465 106.352 38.6178 107.427 37.127V64.6243C105.11 64.7569 102.932 65.7716 103.541 68.0018C103.633 68.3466 103.801 68.5969 104.014 68.7836C101.544 69.2256 100.837 71.4448 101.711 72.6623C102.205 73.3371 103.022 73.5661 103.818 73.75C100.95 74.7286 101.014 77.6932 103.952 78.335C103.401 78.7193 103.054 79.3817 103.07 80.1593C103.114 82.5174 105.917 82.8715 107.427 82.9835V91.9635C107.427 94.7834 105.134 97.0777 102.317 97.0777H13.4382C10.6208 97.0777 8.32825 94.7834 8.32825 91.9635V17.052C8.32825 14.2346 10.6204 11.9421 13.4382 11.9421H67.6902C68.1542 11.9421 68.1549 11.2403 67.6902 11.2403H13.4382C10.2334 11.2403 7.62646 13.8472 7.62646 17.052V91.9632C7.62646 95.1705 10.2334 97.7795 13.4382 97.7795H102.317C105.522 97.7795 108.129 95.1705 108.129 91.9632V83.0313C110.145 83.1593 112.449 83.535 113.491 81.8383C114.008 80.9979 114.012 79.8907 113.529 79.0354C114.76 77.9264 114.818 75.9571 113.365 74.7304C113.363 74.7265 113.361 74.7233 113.36 74.7194C115.233 73.4955 115.058 71.0829 113.359 69.9572C115.587 68.397 114.826 65.1577 112.715 64.9231C111.578 64.7991 109.273 64.6137 108.129 64.6091V59.6657C115.714 60.3321 120.704 52.2729 117.265 45.9011V45.9015ZM112.759 46.3261C112.583 46.1134 112.512 45.82 112.56 45.4995C112.773 44.0829 114.94 43.6345 116.354 45.7459C115.32 46.5498 113.518 47.2427 112.759 46.3257V46.3261ZM112.893 81.4711C112.193 82.6106 110.632 82.4983 109.254 82.4001C107.585 82.2211 103.815 82.427 103.772 80.1455C103.756 79.3732 104.244 78.7614 104.93 78.6909C107.147 78.4704 109.357 79.1517 111.532 79.1648C111.953 79.2091 112.397 79.2573 112.869 79.3112C113.267 79.9513 113.287 80.8314 112.893 81.4715V81.4711ZM113.75 76.8064C113.803 77.4858 113.477 78.1972 112.935 78.6119C105.888 77.813 104.393 77.8888 103.397 77.4248C102.99 77.2345 102.522 76.8457 102.429 76.325C102.248 75.2936 103.487 74.4628 104.491 74.2983C105.052 74.2037 105.646 74.2905 106.221 74.3745C107.207 74.517 112.73 75.1568 112.777 75.1632C113.298 75.5329 113.699 76.19 113.75 76.806V76.8064ZM114.002 72.3397C114.028 73.1787 113.424 74.0098 112.534 74.3607C112.503 74.3731 112.473 74.3905 112.448 74.4107C107.737 73.7929 108.69 74.1559 103.939 73.0582C103.29 72.91 102.627 72.7257 102.28 72.2504C101.823 71.6149 102.119 70.6778 102.656 70.1745C103.322 69.5464 104.287 69.3146 105.775 69.4262C107.751 69.8222 109.655 70.0419 112.352 70.3751C112.429 70.3836 112.504 70.3687 112.567 70.3336C113.38 70.643 113.978 71.4721 114.002 72.3401V72.3397ZM112.639 65.6214C113.515 65.7185 114.056 66.6882 114.011 67.5328C113.963 68.4487 113.328 69.3164 112.469 69.6424C112.447 69.651 112.425 69.6616 112.405 69.674C104.947 68.7571 104.417 68.5628 104.219 67.8192C103.695 65.9007 106.093 65.3059 108.084 65.3059C109.06 65.3059 111.501 65.4973 112.639 65.6217L112.639 65.6214Z" fill="white"/>
<path d="M89.8242 2.6285C89.2436 2.28115 88.5213 2.35274 88.0127 2.79898C83.6928 6.59005 78.3386 9.12003 72.7498 10.1281C69.7814 10.6633 67.1873 9.94835 67.3096 13.5891C67.4677 18.2886 69.3387 23.3691 71.1028 27.6706C73.4353 33.3586 76.806 38.577 81.1692 42.9083C83.0973 44.8222 85.2176 46.6355 87.7259 47.696C89.5874 48.4829 92.296 49.1588 94.16 48.2245C96.2112 47.1962 98.1755 44.8803 99.7226 43.2244C105.889 36.6258 109.791 28.3763 110.942 19.3746C111.201 17.3526 112.438 9.28662 110.541 8.06593C109.631 7.47969 106.467 8.04573 105.3 7.93408C99.735 7.40278 94.5251 5.44203 89.8235 2.62885L89.8242 2.6285Z" fill="#CC9000"/>
<path d="M83.6683 37.3017C84.761 38.3796 86.2479 39.7155 88.0608 40.4818C89.4318 41.062 91.3029 41.4916 92.6341 40.8238C94.059 40.1096 95.402 38.5267 96.4334 37.4237C98.7542 34.9401 100.599 32.1128 101.918 29.0196C103.7 24.8365 103.972 21.341 104.034 21.0206C104.473 17.7357 104.761 14.2739 103.563 13.503C102.825 13.0277 100.681 13.4346 99.9203 13.3612C96.5688 13.0408 93.3586 11.9222 90.3707 10.2287C89.492 9.73107 88.4426 9.80692 87.6972 10.4219C84.9368 12.7013 81.5884 14.2087 78.1734 14.8247C76.3133 15.1593 74.1732 14.7159 74.2661 17.484C74.3714 20.6159 75.6027 24.0107 76.7932 26.9185C78.4354 30.9289 80.7484 34.4223 83.6676 37.3017H83.6683ZM78.2982 15.5155C81.867 14.8718 85.3228 13.2946 88.1441 10.9635C88.6535 10.5431 89.3907 10.48 90.0248 10.8394C93.0676 12.5641 96.3724 13.7274 99.8537 14.0602C100.58 14.1304 102.728 13.8007 103.183 14.0935C104.291 14.8063 103.301 21.0897 103.292 21.2758C102.539 27.1634 99.9937 32.5867 95.9209 36.9445C94.9327 38.0021 93.6202 39.5446 92.3198 40.1964C90.991 40.8631 88.9331 40.0887 88.3341 39.8356C86.631 39.1154 85.2094 37.8362 84.1613 36.802C81.3098 33.9895 79.0496 30.5745 77.4433 26.6523C76.2765 23.8023 75.0696 20.4815 74.9682 17.4603C74.8988 15.3936 76.2063 15.893 78.2985 15.5151L78.2982 15.5155Z" fill="white"/>
<path d="M87.0348 29.6009C87.1571 29.7639 87.392 29.7884 87.5452 29.6558L99.7779 19.0769C100.097 18.8008 99.7403 18.2979 99.3756 18.5059C96.192 20.3075 91.7183 22.5164 88.4348 24.3541C87.8769 23.3174 87.0461 21.8688 86.4553 20.6829C86.344 20.4603 86.0342 20.4153 85.8697 20.617C84.9443 21.7473 83.864 22.4657 82.9024 23.64C82.8003 23.7647 82.7964 23.9434 82.8932 24.0727L87.0348 29.6005V29.6009ZM86.0647 21.4633C86.7455 22.778 87.4473 23.9802 87.9832 24.9996C88.0779 25.1789 88.2983 25.2367 88.4667 25.1417C90.9081 23.7601 93.9959 22.197 96.8481 20.6829L87.3708 28.8785L83.6222 23.8753C84.3836 23.002 85.2622 22.3409 86.0647 21.463V21.4633Z" fill="white"/>
</g>
<defs>
<clipPath id="clip0_1208_1145">
<rect width="119.304" height="117" fill="white"/>
</clipPath>
</defs>
</svg>
