<svg width="120" height="117" viewBox="0 0 120 117" fill="none" xmlns="http://www.w3.org/2000/svg">
<g clip-path="url(#clip0_407_2419)">
<path d="M75.1964 104.216C78.9322 106.562 81.9506 110.805 87.2125 109.724C91.4321 108.856 93.6048 104.816 94.8719 101.853C95.0545 101.426 94.4087 101.15 94.2265 101.577C92.3111 106.056 90.0374 108.427 87.0715 109.036C82.171 110.042 79.3777 106.012 75.5696 103.622C75.1762 103.375 74.8033 103.97 75.1964 104.217V104.216Z" fill="#191919"/>
<path d="M56.823 66.1788C52.9515 68.3926 48.4731 69.6891 43.7262 69.6891C38.9792 69.6891 34.4222 68.36 30.5645 66.0909C31.8784 65.6836 37.1223 64.2524 38.1874 64.1691C39.9925 63.9848 40.4685 65.08 41.5864 65.5815C42.369 65.9197 43.5177 65.9845 44.351 65.9704C46.6166 65.9509 47.877 64.9276 48.6532 64.6969C49.0516 64.5817 49.4829 64.6037 49.9037 64.6692C52.2582 65.0098 54.6117 65.4412 56.8226 66.1791L56.823 66.1788Z" fill="#007BD1"/>
<path d="M76.5665 116.614H21.3691C22.4566 111.389 23.9342 106.612 24.6495 101.715H74.896C75.467 104.125 75.9349 106.577 76.2716 109.043C76.3698 109.769 76.6271 114.022 76.5665 116.614V116.614Z" fill="#007BD1"/>
<path d="M107.78 64.9604V21.3451C107.78 18.321 105.335 15.8757 102.316 15.8757H13.4406C10.4257 15.8757 7.98047 18.321 7.98047 21.3451V96.2531C7.98047 99.2754 10.4279 101.713 13.4406 101.713H102.316C105.335 101.713 107.781 99.2725 107.781 96.2531V82.6561C105.947 82.5356 103.46 82.1883 103.423 80.1506C103.404 79.2337 103.983 78.4372 104.896 78.3398C105.461 78.2841 106.025 78.2841 106.581 78.3167C104.733 78.1193 103.951 78.0718 103.252 77.7425C102.687 77.4831 102.191 76.9922 102.084 76.3858C101.853 75.0843 103.321 74.1351 104.432 73.9543C105.222 73.8168 105.766 73.9844 107.781 74.2184V74.1765C106.465 73.9635 105.16 73.6995 103.863 73.3985C103.163 73.2412 102.418 73.0328 101.996 72.4536C101.45 71.6941 101.732 70.5595 102.418 69.9204C103.312 69.0776 104.58 68.9851 105.817 69.0776C104.943 68.9082 104.104 68.7575 103.881 67.9104C103.312 65.8136 105.613 65.0133 107.78 64.9604ZM22.0219 19.2886C23.2585 19.2886 24.2587 20.2888 24.2587 21.5255C24.2587 22.7621 23.2585 23.7577 22.0219 23.7577C20.7853 23.7577 19.7896 22.7621 19.7896 21.5255C19.7896 20.2888 20.7899 19.2886 22.0219 19.2886ZM13.7043 23.8828C12.4723 23.8828 11.4674 22.8826 11.4674 21.646C11.4674 20.4094 12.4723 19.4137 13.7043 19.4137C14.9363 19.4137 15.9365 20.4186 15.9365 21.646C15.9365 22.8734 14.9409 23.8828 13.7043 23.8828ZM34.1274 92.4092C34.1274 92.8678 33.7524 93.2428 33.2891 93.2428H30.589C30.1258 93.2428 29.7508 92.8678 29.7508 92.4092V89.7091C29.7508 89.2458 30.1258 88.8708 30.589 88.8708H33.2891C33.7524 88.8708 34.1274 89.2458 34.1274 89.7091V92.4092ZM34.1274 84.8926C34.1274 85.3513 33.7524 85.7262 33.2891 85.7262H30.589C30.1258 85.7262 29.7508 85.3513 29.7508 84.8926V82.1925C29.7508 81.7293 30.1258 81.3543 30.589 81.3543H33.2891C33.7524 81.3543 34.1274 81.7293 34.1274 82.1925V84.8926ZM34.1274 77.3718C34.1274 77.835 33.7524 78.21 33.2891 78.21H30.589C30.1258 78.21 29.7508 77.835 29.7508 77.3718V74.6766C29.7508 74.2134 30.1258 73.8384 30.589 73.8384H33.2891C33.7524 73.8384 34.1274 74.2134 34.1274 74.6766V77.3718ZM56.8291 66.1786H56.8245C52.953 68.3925 48.4747 69.689 43.7277 69.689C38.9807 69.689 34.4237 68.3599 30.566 66.0907C22.7116 61.4873 17.4783 53.0031 17.4783 43.9912C17.4783 30.5516 29.3109 19.6594 43.9127 19.6594C58.5145 19.6594 70.3562 30.5516 70.3562 43.9912C70.3562 53.0634 64.8823 61.5986 56.8288 66.1786H56.8291Z" fill="#B9DCFE"/>
<path d="M96.5215 116.982H0.384455C-0.081631 116.982 -0.0809221 116.278 0.384455 116.278H10.1375C10.0298 108.462 10.6965 101.505 10.8599 101.069C11.0683 101.18 11.2905 101.278 11.5174 101.361C10.957 106.274 10.7624 110.632 10.8411 116.278H96.5208C96.9869 116.278 96.9862 116.982 96.5208 116.982H96.5215Z" fill="#191919"/>
<path d="M24.6452 101.715C24.1586 105.014 23.3165 108.374 22.502 111.692L22.5112 111.785C23.6716 108.332 25.0943 104.958 26.7552 101.715H24.6449H24.6452Z" fill="#191919"/>
<path d="M60.2152 63.6328C59.8218 63.8813 60.1993 64.4742 60.5902 64.2261C65.8012 60.9327 69.5621 55.3443 70.6506 49.277C70.7325 48.8187 70.041 48.6975 69.9594 49.1529C68.9053 55.0299 65.2624 60.4429 60.2152 63.6328Z" fill="#191919"/>
<path d="M53.2308 74.6851C53.5431 74.342 53.0245 73.8692 52.7115 74.213C51.0308 76.0614 48.0358 76.5813 45.7752 75.5389C46.3327 74.4419 45.5526 73.2698 44.4967 73.5768C43.6943 73.8114 43.3756 74.8751 44.7083 75.7477C42.7664 77.4086 39.3124 77.5039 37.1049 75.6176C36.7533 75.3163 36.295 75.8491 36.6491 76.1514C39.2585 78.3812 43.3785 78.0795 45.3463 76.1142C47.9117 77.387 51.2849 76.8255 53.2308 74.6847V74.6851ZM45.1585 75.2033C43.9176 74.4143 44.7643 74.0581 45.0631 74.3108C45.3002 74.5107 45.2995 74.9148 45.1585 75.2033Z" fill="#191919"/>
<path d="M51.983 83.1598C52.4378 83.0563 52.2768 82.3698 51.8271 82.4754C49.4367 83.0205 47.1343 83.4271 45.2427 82.434C44.5508 82.071 43.8543 81.5085 42.9725 81.5574C42.0917 81.6078 41.4633 82.2465 40.8097 82.6491C39.6674 83.3516 38.1188 83.3753 36.9559 82.7072C36.5529 82.4768 36.2034 83.0843 36.6064 83.3158C37.976 84.1023 39.8134 84.086 41.178 83.2467C41.8255 82.8476 42.376 82.2943 43.0129 82.2582C43.6544 82.227 44.2669 82.7147 44.9173 83.0553C47.0209 84.1594 49.4601 83.7347 51.9837 83.1595L51.983 83.1598Z" fill="#191919"/>
<path d="M36.0681 91.7106C35.5932 91.7004 35.5811 92.3908 36.0355 92.4117C39.3928 92.5677 42.7886 92.405 46.1182 91.9279C46.5808 91.862 46.4748 91.163 46.0186 91.2332C42.7333 91.7032 39.3857 91.8645 36.0678 91.7106H36.0681Z" fill="#191919"/>
<path d="M74.8071 102.407C75.0364 102.183 75.275 101.949 75.5185 101.715H74.6855C74.7277 101.944 74.7649 102.178 74.8071 102.407Z" fill="#191919"/>
<path d="M29.1953 23.9885C29.5937 23.7475 29.2289 23.1481 28.8327 23.3874C22.3791 27.2844 17.8926 34.364 17.1242 41.8635C16.3554 49.3631 19.3125 57.2057 24.8414 62.3305C25.1823 62.6463 25.6587 62.1314 25.3184 61.8159C19.948 56.8378 17.076 49.2195 17.8224 41.9351C18.5692 34.6507 22.927 27.7739 29.1956 23.9889L29.1953 23.9885Z" fill="#191919"/>
<path d="M55.2175 27.8005C54.6351 27.9291 54.1113 28.369 53.6661 28.4579C53.2911 28.5366 53.2865 28.5274 53.027 28.2173C51.5788 26.366 48.7543 25.0599 45.9833 25.4757C43.2694 25.8787 40.8244 27.9256 39.9026 30.5144C36.971 29.2777 33.382 29.8845 31.0434 32.0473C28.2011 34.684 27.297 38.5169 26.6529 42.0875C26.4077 43.3702 26.1528 44.6993 26.4215 46.098C26.7132 47.5937 27.4217 49.0061 28.4269 50.1084C27.8481 51.0764 27.6117 52.2432 27.774 53.3593C28.3589 57.3865 34.021 59.137 38.18 59.2547C38.18 64.1498 38.1662 64.1218 38.1892 64.1683C38.416 64.1452 38.6429 64.1406 38.8701 64.1637C38.8956 64.1123 38.9449 52.9329 38.9395 52.1553C38.9395 51.9529 38.7006 51.5847 38.4022 51.6272C34.5087 52.1557 32.4469 50.2055 32.4236 48.2466C32.3403 45.1633 37.0004 44.357 38.7081 48.9735C38.7145 49.0054 38.8835 49.2819 38.9349 49.3163C39.3053 49.6484 39.434 49.8507 39.7547 50.0896C40.0443 50.3172 40.4434 49.9908 40.2825 49.659L38.1892 45.3614C37.2758 43.478 36.3954 42.6057 37.4389 40.8555C40.056 36.3686 44.052 35.1774 46.863 36.1967C47.7952 36.5391 48.6373 37.119 49.5489 37.5815C51.1375 38.3779 53.4066 38.8504 55.5556 38.6604C56.7504 43.8008 56.8986 49.1915 55.977 54.3829C55.6715 56.0825 55.1944 57.9904 53.9209 59.2735C52.5826 60.6257 50.3875 61.2094 48.044 60.8387C45.8904 60.4959 43.9038 59.4727 41.9774 58.4859C41.8062 58.398 41.5929 58.4629 41.505 58.6387C41.4171 58.8099 41.4865 59.0186 41.6577 59.1112C43.8187 60.217 46.1928 61.4232 48.6554 61.6167V64.6964C48.8638 64.6361 49.0814 64.6085 49.3593 64.6177V61.6493C49.4082 61.6408 52.4419 61.7712 54.421 59.769C55.8289 58.3473 56.3474 56.3097 56.6671 54.5081C57.6025 49.2471 57.4589 43.7824 56.2549 38.5725C59.3056 38.0997 61.3308 36.2595 61.5204 33.2932C61.7317 29.9572 58.7824 26.992 55.2175 27.8008V27.8005ZM35.8687 35.3631C33.7754 36.0808 32.247 38.1277 32.1453 40.3369C32.1219 40.8048 31.4347 40.78 31.446 40.3043C31.5573 37.813 33.2799 35.5066 35.6372 34.696C36.0838 34.5507 36.3025 35.2071 35.8687 35.3627V35.3631Z" fill="#191919"/>
<path d="M43.359 43.4136C43.0985 44.7321 44.2707 46.3373 45.3414 45.9255C46.0106 45.6692 46.2477 44.7197 45.8816 43.7637C45.2563 42.1323 43.6302 42.0422 43.359 43.4136Z" fill="#191919"/>
<path d="M52.5927 40.7111C51.0211 41.313 52.3198 44.728 53.8988 44.1205C54.2419 43.989 54.4882 43.6622 54.5751 43.223C54.8335 41.9155 53.6677 40.3003 52.5927 40.7111Z" fill="#191919"/>
<path d="M50.7943 39.578C50.4675 39.9076 50.9651 40.4017 51.2926 40.0724C52.0298 39.3292 53.2136 39.3419 53.9417 40.0423C54.2755 40.3645 54.7632 39.8587 54.4283 39.5365C53.3955 38.542 51.775 38.5895 50.7943 39.578Z" fill="#191919"/>
<path d="M44.4935 40.2138C43.148 39.9785 41.7976 40.6952 41.2514 41.9697C41.0671 42.3993 41.7143 42.6712 41.8965 42.2465C42.3084 41.2857 43.332 40.7225 44.373 40.9054C44.5619 40.9383 44.7455 40.8111 44.7792 40.62C44.8125 40.4293 44.6845 40.2475 44.4938 40.2138H44.4935Z" fill="#191919"/>
<path d="M49.8231 40.3911C49.6292 40.3947 49.475 40.5549 49.4786 40.7487C49.5108 42.4741 50.3973 44.1769 51.792 45.193C52.3772 45.6187 53.0481 45.9565 53.2385 46.5303C53.527 47.4019 52.6983 48.1951 52.072 48.7676C51.7278 49.0819 52.2081 49.5955 52.5455 49.2854C52.9191 48.9441 53.3423 48.557 53.6351 48.0711C53.9849 47.4905 54.0834 46.8486 53.9044 46.3095C53.6305 45.483 52.8114 45.0665 52.2053 44.6256C50.9846 43.7363 50.2087 42.2455 50.1804 40.7356C50.1768 40.5418 50.0187 40.401 49.8227 40.3911H49.8231Z" fill="#191919"/>
<path d="M46.3305 49.6019C45.6748 51.6055 47.6668 53.4865 49.6325 52.7078C50.0628 52.5373 49.8072 51.8848 49.3737 52.0553C48.7464 52.3041 47.9663 52.1545 47.475 51.693C46.9841 51.2312 46.7878 50.461 46.9976 49.8202C47.1426 49.3782 46.4741 49.1616 46.3305 49.6019Z" fill="#191919"/>
<path d="M35.3255 47.5245C35.2217 47.0729 34.5366 47.2307 34.6418 47.6833C34.7684 48.2284 35.0987 48.7324 35.5481 49.0659C35.9192 49.3424 36.3403 48.7799 35.9664 48.5024C35.6484 48.2663 35.4148 47.9098 35.3255 47.5245Z" fill="#191919"/>
<path d="M117.266 45.9016C121.302 42.1173 118.865 36.3371 113.862 35.1632C113.41 35.0572 113.249 35.7402 113.701 35.8466C118.03 36.862 120.383 41.7944 116.885 45.2785C115.085 42.6815 112.169 43.384 111.866 45.3955C111.574 47.3428 114.018 48.3742 116.715 46.3627C119.796 52.2896 115.078 59.629 108.129 58.9605V36.112C112.098 30.2666 114.392 23.8775 115.225 17.3598C115.499 14.8922 116.782 7.07115 114.666 5.71294C113.605 5.031 110.454 5.63851 109.265 5.5219C103.786 4.99875 98.6466 3.08124 93.9404 0.269838C93.2344 -0.15407 92.3401 -0.07184 91.7149 0.475767C91.0113 1.09143 90.2642 1.68794 89.4947 2.24902C89.2675 2.4149 89.3185 2.76827 89.583 2.86291C90.1043 3.0504 96.4236 7.43445 105.347 8.28404C106.453 8.39249 109.675 7.87679 110.429 8.36059C112.178 9.48877 110.761 18.197 110.672 19.334C109.569 27.9631 106.117 35.8033 98.9178 43.6623C98.1292 44.5221 97.236 45.4972 96.3045 46.3227C96.0642 46.5361 96.2145 46.9362 96.537 46.9362C99.0993 46.9362 102.165 43.2738 103.912 41.4052C105.181 40.0466 106.352 38.6179 107.427 37.1271V64.6244C105.111 64.757 102.932 65.7718 103.541 68.0019C103.633 68.3467 103.802 68.597 104.014 68.7838C101.544 69.2258 100.837 71.4449 101.711 72.6624C102.205 73.3372 103.023 73.5662 103.819 73.7502C100.95 74.7288 101.014 77.6933 103.953 78.3352C103.401 78.7194 103.055 79.3818 103.071 80.1595C103.114 82.5175 105.918 82.8716 107.427 82.9836V91.9637C107.427 94.7836 105.135 97.0778 102.317 97.0778H13.4387C10.6212 97.0778 8.32874 94.7836 8.32874 91.9637V17.0521C8.32874 14.2347 10.6209 11.9422 13.4387 11.9422H67.6907C68.1547 11.9422 68.1554 11.2404 67.6907 11.2404H13.4387C10.2338 11.2404 7.62695 13.8473 7.62695 17.0521V91.9633C7.62695 95.1706 10.2338 97.7796 13.4387 97.7796H102.318C105.522 97.7796 108.129 95.1706 108.129 91.9633V83.0315C110.145 83.1594 112.449 83.5351 113.492 81.8384C114.008 80.9981 114.013 79.8908 113.53 79.0355C114.76 77.9265 114.818 75.9572 113.365 74.7305C113.364 74.7266 113.361 74.7234 113.36 74.7195C115.234 73.4957 115.058 71.083 113.359 69.9573C115.587 68.3971 114.826 65.1579 112.716 64.9232C111.579 64.7992 109.273 64.6138 108.129 64.6092V59.6659C115.715 60.3322 120.704 52.273 117.266 45.9013V45.9016ZM112.759 46.3262C112.584 46.1136 112.513 45.8201 112.561 45.4997C112.773 44.083 114.94 43.6346 116.355 45.746C115.321 46.5499 113.519 47.2428 112.759 46.3259V46.3262ZM112.894 81.4712C112.194 82.6107 110.633 82.4984 109.255 82.4002C107.586 82.2212 103.815 82.4271 103.773 80.1456C103.757 79.3733 104.244 78.7616 104.931 78.691C107.147 78.4706 109.358 79.1518 111.533 79.1649C111.954 79.2092 112.397 79.2574 112.87 79.3113C113.268 79.9514 113.287 80.8315 112.894 81.4716V81.4712ZM113.751 76.8065C113.804 77.4859 113.477 78.1973 112.936 78.612C105.888 77.8131 104.393 77.8889 103.398 77.425C102.99 77.2346 102.522 76.8458 102.43 76.3251C102.248 75.2937 103.488 74.4629 104.492 74.2985C105.052 74.2038 105.646 74.2907 106.222 74.3747C107.207 74.5172 112.731 75.1569 112.777 75.1633C113.298 75.533 113.699 76.1901 113.751 76.8061V76.8065ZM114.002 72.3398C114.029 73.1788 113.425 74.01 112.535 74.3608C112.503 74.3733 112.474 74.3906 112.448 74.4108C107.737 73.793 108.69 74.156 103.94 73.0583C103.29 72.9101 102.628 72.7258 102.28 72.2505C101.823 71.615 102.12 70.6779 102.656 70.1746C103.323 69.5465 104.287 69.3147 105.775 69.4264C107.751 69.8223 109.655 70.042 112.353 70.3752C112.429 70.3837 112.504 70.3688 112.567 70.3337C113.381 70.6432 113.979 71.4722 114.002 72.3402V72.3398ZM112.639 65.6215C113.516 65.7186 114.057 66.6883 114.012 67.533C113.963 68.4488 113.329 69.3165 112.469 69.6426C112.447 69.6511 112.426 69.6617 112.406 69.6741C104.947 68.7572 104.417 68.563 104.219 67.8193C103.695 65.9008 106.094 65.306 108.085 65.306C109.06 65.306 111.502 65.4974 112.64 65.6218L112.639 65.6215Z" fill="#191919"/>
<path d="M89.8235 2.62868C89.2429 2.28133 88.5205 2.35293 88.0119 2.79916C83.692 6.59023 78.3379 9.12021 72.7491 10.1282C69.7807 10.6634 67.1866 9.94853 67.3088 13.5893C67.4669 18.2888 69.338 23.3693 71.102 27.6708C73.4346 33.3588 76.8053 38.5772 81.1684 42.9084C83.0966 44.8224 85.2168 46.6357 87.7252 47.6962C89.5867 48.483 92.2953 49.159 94.1593 48.2247C96.2104 47.1964 98.1747 44.8805 99.7219 43.2246C105.888 36.626 109.791 28.3765 110.942 19.3748C111.2 17.3527 112.437 9.2868 110.54 8.06611C109.63 7.47987 106.466 8.04591 105.299 7.93426C99.7342 7.40296 94.5244 5.44221 89.8227 2.62903L89.8235 2.62868Z" fill="#FFB400"/>
<path d="M83.6688 37.3019C84.7615 38.3797 86.2484 39.7156 88.0613 40.4819C89.4323 41.0621 91.3034 41.4917 92.6346 40.8239C94.0595 40.1097 95.4024 38.5268 96.4339 37.4238C98.7547 34.9402 100.6 32.1129 101.918 29.0197C103.701 24.8366 103.972 21.3412 104.034 21.0208C104.474 17.7358 104.761 14.274 103.563 13.5031C102.825 13.0278 100.681 13.4347 99.9208 13.3613C96.5693 13.0409 93.3591 11.9223 90.3712 10.2288C89.4925 9.73119 88.443 9.80704 87.6977 10.422C84.9373 12.7014 81.5889 14.2088 78.1739 14.8248C76.3138 15.1594 74.1737 14.716 74.2666 17.4842C74.3719 20.616 75.6032 24.0108 76.7937 26.9186C78.4358 30.9291 80.7489 34.4224 83.6681 37.3019H83.6688ZM78.2987 15.5156C81.8675 14.872 85.3233 13.2947 88.1446 10.9636C88.6539 10.5432 89.3912 10.4801 90.0253 10.8395C93.0681 12.5642 96.3729 13.7275 99.8542 14.0603C100.581 14.1305 102.729 13.8009 103.184 14.0936C104.291 14.8064 103.302 21.0899 103.293 21.2759C102.54 27.1635 99.9942 32.5868 95.9213 36.9446C94.9332 38.0022 93.6207 39.5447 92.3202 40.1966C90.9915 40.8633 88.9336 40.0888 88.3346 39.8357C86.6315 39.1155 85.2099 37.8364 84.1618 36.8021C81.3103 33.9896 79.0501 30.5746 77.4438 26.6524C76.277 23.8024 75.0701 20.4817 74.9687 17.4604C74.8993 15.3937 76.2068 15.8931 78.299 15.5153L78.2987 15.5156Z" fill="#191919"/>
<path d="M87.0339 29.6009C87.1562 29.7639 87.3912 29.7884 87.5443 29.6558L99.777 19.0769C100.096 18.8008 99.7395 18.2979 99.3747 18.5059C96.1912 20.3075 91.7175 22.5164 88.4339 24.3541C87.8761 23.3174 87.0453 21.8688 86.4544 20.6829C86.3431 20.4603 86.0333 20.4153 85.8689 20.617C84.9434 21.7473 83.8631 22.4657 82.9015 23.64C82.7994 23.7647 82.7955 23.9434 82.8923 24.0727L87.0339 29.6005V29.6009ZM86.0638 21.4633C86.7447 22.778 87.4465 23.9802 87.9824 24.9996C88.077 25.1789 88.2975 25.2367 88.4658 25.1417C90.9072 23.7601 93.9951 22.197 96.8472 20.6829L87.3699 28.8785L83.6214 23.8753C84.3827 23.002 85.2614 22.3409 86.0638 21.463V21.4633Z" fill="#191919"/>
</g>
<defs>
<clipPath id="clip0_407_2419">
<rect width="119.304" height="117" fill="white"/>
</clipPath>
</defs>
</svg>
