<svg width="200" height="190" viewBox="0 0 200 190" fill="none" xmlns="http://www.w3.org/2000/svg">
<g clip-path="url(#clip0_1208_1089)">
<path d="M138.722 162.329C139.679 166.505 140.465 170.627 141.065 174.99C141.236 176.338 141.718 184.224 141.61 189.023H39.4203C42.8574 172.668 46.7723 163.047 45.9574 149.885H151.92C148.384 153.108 143.14 158.021 138.722 162.328V162.329Z" fill="#0062A7"/>
<path d="M103.593 95.0924C89.9657 103.879 72.816 103.728 59.5066 94.4846C62.3082 93.6972 65.1412 93.0039 67.9502 92.3027C69.429 91.944 70.9699 91.5854 72.4641 91.8973C75.8232 92.6219 74.7339 95.2281 81.9737 95.1619C83.9428 95.1385 85.9113 94.663 87.6857 93.8295C89.0893 93.1493 89.804 92.6453 91.0397 92.6453C92.2753 92.6453 98.9406 93.6887 103.592 95.0918L103.593 95.0924Z" fill="#0062A7"/>
<path d="M178.473 78.9243V36.7235H162.73C159.85 36.7235 157.516 34.3859 157.516 31.5027V20.329H36.2457C31.7085 20.329 28.0197 24.0224 28.0197 28.5727V141.641C28.0197 146.199 31.7085 149.884 36.2457 149.884H170.232C174.785 149.884 178.474 146.199 178.474 141.641V112.148C174.48 111.577 173.91 106.908 176.668 105.611C177.26 105.33 177.859 105.097 178.474 104.878V104.793C176.66 105.247 174.769 105.709 173.415 105.58C172.279 105.471 171.104 104.933 170.544 103.92C169.345 101.793 171.322 99.2293 173.151 98.2242C174.545 97.4562 175.848 97.3883 178.474 96.7749V96.6654C176.264 97.0474 174.046 97.3593 171.812 97.6084C170.504 97.7646 169.057 97.8655 167.968 97.1095C166.543 96.1198 166.349 93.9538 167.142 92.419C168.193 90.3779 170.38 89.4349 172.621 88.8351C170.954 89.1047 169.368 89.3402 168.457 88.0089C167.749 86.9804 167.5 85.7648 168.022 84.5881C169.479 81.2715 175.247 79.7852 178.473 78.9231V78.9243ZM128.862 47.1183C128.862 46.3389 129.492 45.7157 130.262 45.7157H135.127C135.905 45.7157 136.535 46.3389 136.535 47.1183V51.9959C136.535 52.7752 135.905 53.3984 135.127 53.3984H130.262C129.492 53.3984 128.862 52.7752 128.862 51.9959V47.1183ZM128.862 60.3251C128.862 59.5537 129.492 58.9225 130.262 58.9225H135.127C135.905 58.9225 136.535 59.5537 136.535 60.3251V65.1952C136.535 65.9746 135.905 66.6058 135.127 66.6058H130.262C129.492 66.6058 128.862 65.9746 128.862 65.1952V60.3251ZM128.862 73.5404C128.862 72.761 129.492 72.1299 130.262 72.1299H135.127C135.905 72.1299 136.535 72.761 136.535 73.5404V78.4106C136.535 79.19 135.905 79.8211 135.127 79.8211H130.262C129.492 79.8211 128.862 79.19 128.862 78.4106V73.5404ZM49.1953 25.4802C51.055 25.4802 52.5572 26.9917 52.5572 28.8544C52.5572 30.717 51.055 32.2279 49.1953 32.2279C47.3355 32.2279 45.8253 30.7164 45.8253 28.8544C45.8253 26.9923 47.3349 25.4802 49.1953 25.4802ZM82.1918 26.0333C104.215 26.0333 122.06 42.4745 122.06 62.7641C122.06 83.0538 103.766 101.552 81.9116 101.552C60.0572 101.552 42.3393 83.2898 42.3393 62.7641C42.3393 42.2384 60.1763 26.0333 82.1918 26.0333ZM33.2801 29.0408C33.2801 27.1787 34.7897 25.6593 36.65 25.6593C38.5104 25.6593 40.0273 27.1787 40.0273 29.0408C40.0273 30.9029 38.5098 32.4149 36.65 32.4149C34.7902 32.4149 33.2801 30.9034 33.2801 29.0408ZM136.371 136.818C136.371 138.197 135.243 139.327 133.865 139.327H59.7161C58.3387 139.327 57.218 138.197 57.218 136.818V134.816C57.218 133.421 58.3387 132.299 59.7161 132.299H133.865C135.243 132.299 136.371 133.421 136.371 134.816V136.818ZM153.493 119.177C153.493 120.572 152.38 121.694 150.986 121.694H41.4748C40.0894 121.694 38.9614 120.572 38.9614 119.177V117.175C38.9614 115.796 40.09 114.666 41.4748 114.666H150.986C152.379 114.666 153.493 115.796 153.493 117.175V119.177Z" fill="#60A5FA"/>
<path d="M199.806 5.21908V31.5027C199.806 33.7507 198.386 35.6687 196.4 36.3916C194.879 36.992 195.752 36.6123 162.73 36.7217C159.849 36.7217 157.517 34.3876 157.517 31.5027V5.21908C157.517 2.37065 159.814 0 162.73 0H194.602C197.475 0 199.806 2.33416 199.806 5.21908Z" fill="#CC9000"/>
<path d="M178.543 189.639H0.579669C-0.197041 189.639 -0.189069 188.462 0.579669 188.462H18.7042C18.4861 173.354 19.3346 162.484 22.0195 145.724C23.0154 139.545 24.8524 133.483 27.4827 127.709C27.584 127.491 27.7941 127.358 28.0196 127.358V129.408C25.7163 134.722 24.0894 140.262 23.1868 145.911C20.5099 162.601 19.6694 173.424 19.8796 188.462H178.543C179.311 188.462 179.32 189.639 178.543 189.639Z" fill="white"/>
<path d="M56.0279 149.885C49.9811 159.297 45.0942 169.466 41.5375 180.07L41.5221 179.899C43.9889 169.808 46.6117 159.523 46.2148 149.884H56.0279V149.885Z" fill="white"/>
<path d="M102.394 52.2684C102.519 52.4166 102.643 52.5643 102.768 52.7125C102.776 52.7359 102.783 52.7439 102.791 52.7513C105.321 49.4086 105.78 44.6553 103.048 41.2424C100.488 38.0553 95.5923 37.0348 91.9815 38.9282C93.0401 37.736 92.9855 35.8426 92.207 34.4554C90.7168 31.8408 85.773 29.538 82.3159 30.5363C80.6737 31.0038 79.3122 32.1338 77.88 33.0609C74.6969 35.0946 71.5217 35.5855 67.9029 36.1778C64.9533 36.6687 62.0116 38.6009 59.9029 40.6894C58.5101 42.0686 55.2023 46.1827 55.4124 48.2318C55.2956 47.0316 55.0001 45.6063 53.8795 45.1775C52.9069 44.8115 51.8016 45.4734 51.2492 46.3617C50.5642 47.4684 50.6422 49.1748 51.7862 49.798C50.8603 49.2991 49.5683 49.6497 49.0393 50.554C47.5997 53.0159 50.6348 53.5928 52.2457 53.4914C54.6271 53.3357 55.0861 53.3357 56.5729 55.4703C59.1798 59.1791 60.6352 62.8805 62.2542 66.9866C56.6663 71.5523 62.0287 82.1963 73.328 78.6352C73.3513 82.1729 73.5614 88.928 73.4914 92.224C73.9196 92.419 74.2618 92.6527 74.5807 92.8939C74.8529 92.4389 74.5118 82.4386 74.5027 78.2139C74.7128 78.1284 74.9309 78.0502 75.141 77.9567C75.8568 77.6529 75.3899 76.5622 74.6821 76.8735C68.6506 79.4602 64.1452 77.8165 62.1995 74.9179C58.9696 70.1025 64.5029 63.1598 69.445 69.9936C70.3322 71.2245 71.6943 72.2844 73.0791 72.83C74.1377 73.2508 75.3358 72.6664 75.6006 71.5757C76.449 68.1554 75.087 64.2978 72.2933 62.1866C71.9664 61.9449 71.8264 61.548 71.9198 61.174C73.0717 56.8415 71.5308 51.9326 67.9895 48.6759C67.8044 48.5032 67.887 48.2352 68.1062 48.1771C73.5005 46.8093 78.0816 42.6604 83.4838 42.2476C89.2351 41.8034 95.274 44.6239 99.227 49.595C106.713 59.0001 104.776 71.9497 101.827 81.1598C100.913 84.0242 100.12 84.5715 97.414 84.9467C91.5994 85.7244 88.7221 84.417 82.9856 83.5441C82.6667 83.4894 82.3632 83.7158 82.3165 84.035C82.2698 84.3549 82.4879 84.6582 82.8068 84.705C85.047 85.0505 86.0902 85.3179 89.3206 85.9125C89.2272 86.0214 89.1805 86.1771 89.1959 86.3333C89.2038 86.4114 89.8416 92.7383 89.8809 92.8164C90.2391 92.7075 90.5967 92.6447 91.0403 92.6447C91.0403 92.5735 90.3672 86.2056 90.3245 86.0761C92.7429 86.4291 94.7991 86.4764 97.57 86.1149C100.714 85.6742 101.88 84.8389 102.948 81.5258C106.707 69.7912 106.488 59.7789 102.395 52.2673L102.394 52.2684ZM84.1763 35.5706C78.8737 34.789 74.4708 40.8302 68.9621 40.1991C68.7047 40.162 68.7577 39.7629 69.0088 39.8017C74.3803 40.4391 78.6772 34.3819 84.2309 35.1812C84.4861 35.2177 84.4251 35.6094 84.1763 35.5706ZM101.18 44.6633C100.783 43.4477 99.6239 42.5047 98.3552 42.3724C98.0996 42.3359 98.1383 41.9642 98.4019 41.983C99.8107 42.1387 101.102 43.1832 101.554 44.531C101.624 44.7773 101.28 44.9124 101.18 44.6633Z" fill="white"/>
<path d="M66.4531 71.8231C65.9844 71.1977 65.0443 71.907 65.5107 72.5301C66.2794 73.5581 67.3864 74.3033 68.6272 74.6282C69.3942 74.8278 69.6681 73.6824 68.925 73.4874C67.941 73.2297 67.0629 72.6384 66.4531 71.8231Z" fill="white"/>
<path d="M93.2035 52.9606C93.1687 52.6373 92.8817 52.4075 92.5543 52.4383C92.2309 52.4737 91.9974 52.7644 92.0327 53.0883C92.3527 56.0217 93.8526 58.9311 96.8279 61.1216C99.0584 62.7659 99.5829 63.8013 97.0785 66.2717C96.5238 66.8202 97.3501 67.6583 97.9053 67.1115C99.0846 65.9478 100.139 64.6548 99.8733 63.0869C99.6091 61.5309 98.1803 60.6866 97.0551 59.8199C94.9334 58.1876 93.4933 55.6237 93.2029 52.9606H93.2035Z" fill="white"/>
<path d="M84.7041 49.4736C81.7265 49.6697 78.8531 51.0369 76.8202 53.2245C76.2884 53.7964 77.1596 54.59 77.6818 54.0273C79.512 52.0574 82.1001 50.8265 84.781 50.6498C85.5531 50.599 85.4853 49.4268 84.7035 49.4736H84.7041Z" fill="white"/>
<path d="M82.5721 57.1893C81.8689 57.5171 81.7578 58.7692 82.3233 59.9853C82.8893 61.2014 83.9177 61.9215 84.621 61.5931C85.3242 61.2653 85.4353 60.0132 84.8698 58.7971C84.3038 57.581 83.2754 56.8609 82.5721 57.1893Z" fill="white"/>
<path d="M99.235 58.1494C99.9382 57.8216 100.049 56.5696 99.4838 55.354C98.9178 54.1379 97.8894 53.4178 97.1861 53.7462C96.4829 54.0741 96.3718 55.3261 96.9373 56.5416C97.5033 57.7577 98.5317 58.4778 99.235 58.1494Z" fill="white"/>
<path d="M90.4936 70.6561C90.366 70.3562 90.0192 70.217 89.7209 70.3453C89.4219 70.473 89.283 70.8191 89.4105 71.119C91.0562 74.9817 94.4546 76.0673 98.4697 73.3141C98.7379 73.1305 98.8062 72.7633 98.6223 72.4948C98.4389 72.2268 98.0722 72.1572 97.804 72.342C94.708 74.4657 91.9792 74.1413 90.4936 70.6566V70.6561Z" fill="white"/>
<path d="M162.73 36.7218C159.849 36.7218 157.517 34.3876 157.517 31.5027C157.598 3.62326 157.332 5.03095 157.745 3.70251C155.751 4.43344 154.338 6.34342 154.338 8.59149V34.8751C154.338 37.76 156.669 40.0941 159.551 40.0941H191.415C193.77 40.0941 195.755 38.5377 196.399 36.3916C194.879 36.992 195.751 36.6123 162.73 36.7218Z" fill="white"/>
<path d="M191.827 101.56C193.4 98.9499 192.302 95.459 189.065 94.2981C189.018 94.2046 188.932 94.1345 188.831 94.1032C191.594 90.8385 189.61 86.5454 185.819 85.9062C186.971 84.527 187.422 82.5401 186.917 80.7949C186.333 78.8467 184.333 77.0627 182.099 77.5844C180.239 78.0132 178.551 78.4807 176.535 79.0571C176.294 79.174 169.336 80.6467 167.663 84.4335C167.119 85.6571 167.29 87.0129 168.138 88.2284C168.621 88.9451 169.267 89.2569 169.951 89.3738C168.683 89.9816 167.508 90.8545 166.792 92.2337C165.967 93.8386 166.091 96.2857 167.741 97.4305C169.22 98.4591 171.204 98.0771 173.009 97.8593C171.663 98.5839 170.363 100.002 169.936 101.49C169.212 104.03 171.158 106.656 175.679 105.822C173.57 107.739 174.48 111.986 178.418 112.531C181.135 112.913 184.411 111.745 187.088 111.012C185.594 124.118 182.411 138.244 178.084 150.86C174.816 160.366 171.088 172.973 161.064 175.038C151.974 176.908 146.784 169.436 139.733 165.002C139.601 164.917 139.445 164.893 139.298 164.924C139.399 165.384 139.492 165.844 139.586 166.303C146.278 170.698 151.843 178.139 161.306 176.191C171.991 173.994 175.866 160.95 179.197 151.242C183.601 138.401 186.839 123.985 188.317 110.662C190.629 109.969 193.018 108.932 193.571 106.369C193.952 104.592 193.236 102.675 191.827 101.561V101.56ZM168.784 87.7837C167.243 85.555 168.613 83.6616 170.854 82.1815C172.924 80.8103 175.111 80.3194 176.753 79.8125C177.515 79.5942 182.083 78.2851 182.87 78.2851C184.379 78.2851 185.741 79.5942 186.162 81.0201C186.668 82.7419 186.076 84.7448 184.714 85.9057C180.193 86.8874 176.551 87.908 171.702 88.5705C170.31 88.7421 169.391 88.6714 168.784 87.7837ZM171.765 97.2196C170.489 97.3678 169.158 97.4533 168.193 96.7834C166.894 95.8792 166.816 93.9082 167.493 92.5991C168.535 90.5808 170.808 89.7319 172.684 89.2256C182.894 87.3008 178.863 87.9713 185.104 86.6229C186.816 86.6542 188.481 87.8071 189.104 89.4046C189.696 90.9708 189.127 92.911 187.711 94.134C187.657 94.1807 187.618 94.2434 187.602 94.3056C182.684 95.3495 179.696 96.3313 171.765 97.2196ZM173.454 105.191C171.5 105.004 170.146 103.609 170.691 101.708C171.087 100.329 172.302 99.1364 173.336 98.5674C174.659 97.8427 175.344 97.9129 181.002 96.6118C182.395 96.3393 187.733 95.2092 188.068 95.0142C188.2 94.9829 188.34 94.9595 188.473 94.9287C189.726 95.264 190.901 96.2298 191.399 97.3678C191.968 98.6221 191.804 100.212 191.018 101.349C181.842 103.446 175.648 105.401 173.454 105.191ZM192.808 106.196C192.326 108.425 190.038 109.344 187.866 109.975C187.641 109.928 187.47 109.99 187.337 110.123C183.197 111.276 177.081 113.559 175.571 109.547C175.018 108.074 175.547 106.57 176.831 105.97C180.419 104.272 184.878 104.022 188.692 102.705C188.738 102.697 188.98 102.62 191.228 102.106C192.466 103.01 193.127 104.692 192.808 106.196V106.196Z" fill="white"/>
<path d="M157.731 115.811V113.802C157.731 112.093 156.343 110.703 154.637 110.703H45.1221C43.416 110.703 42.0283 112.093 42.0283 113.802V115.811C42.0283 117.519 43.416 118.908 45.1221 118.908H154.637C156.343 118.908 157.731 117.519 157.731 115.811ZM43.2053 115.811V113.802C43.2053 112.743 44.0652 111.882 45.1221 111.882H154.637C155.694 111.882 156.554 112.743 156.554 113.802V115.811C156.554 116.869 155.695 117.73 154.637 117.73H45.1221C44.0652 117.73 43.2053 116.869 43.2053 115.811Z" fill="white"/>
<path d="M138.363 131.812C138.363 130.104 136.975 128.714 135.269 128.714H61.1227C59.4166 128.714 58.0289 130.104 58.0289 131.812V133.821C58.0289 135.529 59.4166 136.919 61.1227 136.919H135.269C136.975 136.919 138.363 135.529 138.363 133.821V131.812ZM137.186 133.821C137.186 134.879 136.326 135.74 135.269 135.74H61.1221C60.0652 135.74 59.2054 134.879 59.2054 133.821V131.812C59.2054 130.754 60.0652 129.893 61.1221 129.893H135.269C136.326 129.893 137.186 130.754 137.186 131.812V133.821Z" fill="white"/>
<path d="M107.364 93.354C115.233 88.3738 120.913 79.9237 122.557 70.7496C122.694 69.981 121.535 69.774 121.398 70.5409C119.812 79.3952 114.33 87.5511 106.735 92.3568C106.077 92.7736 106.705 93.7696 107.364 93.3534V93.354Z" fill="white"/>
<path d="M156.229 49.6788C160.724 51.9223 166.643 50.9406 170.054 47.1816C170.58 46.6035 169.704 45.8115 169.184 46.3885C166.22 49.6532 160.932 50.5654 156.951 48.7136C157.945 46.7962 156.585 44.7425 154.751 45.279C153.36 45.6855 152.809 47.5265 155.16 49.0654C151.802 51.9833 145.679 52.2217 141.751 48.8601C141.157 48.3527 140.395 49.2506 140.986 49.7564C145.53 53.6447 152.769 53.1641 156.229 49.6788ZM155.315 46.3771C156.105 46.3771 156.284 47.4347 155.915 48.1497C154.233 47.083 154.634 46.3771 155.315 46.3771Z" fill="white"/>
<path d="M140.905 62.344C143.317 63.7311 146.529 63.6849 148.901 62.2237C150.038 61.5224 151.007 60.5463 152.134 60.4824C153.268 60.4243 154.34 61.2823 155.491 61.8861C159.177 63.8229 163.454 63.0766 167.877 62.0674C168.637 61.8935 168.374 60.7436 167.616 60.9175C163.415 61.877 159.37 62.5925 156.038 60.8422C154.813 60.1979 153.61 59.2179 152.068 59.3051C150.53 59.3929 149.428 60.5149 148.284 61.2191C146.271 62.4591 143.542 62.5007 141.492 61.3217C140.817 60.9323 140.23 61.9551 140.906 62.3434L140.905 62.344Z" fill="white"/>
<path d="M139.891 78.3268C145.742 78.5982 151.694 78.3217 157.584 77.4773C158.346 77.3684 158.2 76.2081 157.417 76.3102C151.646 77.1369 145.767 77.4191 139.946 77.1489C139.152 77.1306 139.126 78.2909 139.891 78.3268Z" fill="white"/>
<path d="M144.584 156.703C142.209 153.874 139.251 151.53 135.942 149.9C136.8 154.061 137.602 158.365 138.35 162.691C140.252 160.831 142.374 158.794 144.584 156.703Z" fill="white"/>
<path d="M53.3994 90.4856C53.9694 91.0164 54.7718 90.1509 54.1995 89.6213C46.1175 82.1199 41.7949 70.6407 42.9178 59.6637C44.0419 48.6868 50.6007 38.3244 60.0351 32.6201C60.7036 32.2159 60.0903 31.2073 59.4263 31.611C49.6816 37.5023 42.9076 48.205 41.7471 59.5428C40.5866 70.8813 45.0515 82.7374 53.3994 90.4851V90.4856Z" fill="white"/>
<path d="M172.853 28.2158C173.065 28.4849 173.46 28.5157 173.711 28.2865L194.33 9.51057C194.852 9.03507 194.24 8.20551 193.631 8.56869C188.228 11.8117 180.594 15.8277 175.019 19.1374C174.016 17.3757 172.515 14.9013 171.442 12.8756C171.237 12.4879 170.711 12.4639 170.457 12.7895C168.925 14.7622 167.079 16.0689 165.476 18.1323C165.309 18.3461 165.311 18.6465 165.479 18.8592L172.852 28.2158H172.853ZM170.82 14.2028C172.058 16.4566 173.312 18.4858 174.29 20.2401C174.455 20.5343 174.825 20.6272 175.107 20.4584C179.275 17.9567 184.731 15.0159 189.478 12.3351L173.386 26.9889L166.694 18.4972C167.982 16.9384 169.46 15.7753 170.821 14.2028H170.82Z" fill="white"/>
</g>
<defs>
<clipPath id="clip0_1208_1089">
<rect width="199.806" height="190" fill="white"/>
</clipPath>
</defs>
</svg>
