<svg width="200" height="190" viewBox="0 0 200 190" fill="none" xmlns="http://www.w3.org/2000/svg">
<g clip-path="url(#clip0_818_607)">
<path d="M138.819 162.329C139.776 166.505 140.562 170.627 141.162 174.99C141.333 176.338 141.816 184.224 141.707 189.023H39.5176C42.9547 172.668 46.8696 163.047 46.0547 149.885H152.018C148.481 153.108 143.237 158.021 138.819 162.328V162.329Z" fill="#007BD1"/>
<path d="M103.69 95.0926C90.0626 103.879 72.9129 103.728 59.6035 94.4848C62.4051 93.6974 65.2381 93.0041 68.0471 92.3029C69.5259 91.9442 71.0668 91.5856 72.561 91.8975C75.9201 92.6221 74.8308 95.2283 82.0706 95.1621C84.0397 95.1388 86.0082 94.6633 87.7826 93.8297C89.1863 93.1495 89.9009 92.6455 91.1366 92.6455C92.3723 92.6455 99.0375 93.6889 103.689 95.092L103.69 95.0926Z" fill="#007BD1"/>
<path d="M178.571 78.9244V36.7235H162.827C159.948 36.7235 157.613 34.386 157.613 31.5028V20.3291H36.3433C31.806 20.3291 28.1172 24.0225 28.1172 28.5728V141.641C28.1172 146.199 31.806 149.884 36.3433 149.884H170.33C174.882 149.884 178.571 146.199 178.571 141.641V112.148C174.577 111.577 174.007 106.908 176.766 105.611C177.357 105.331 177.956 105.097 178.571 104.878V104.793C176.758 105.247 174.867 105.709 173.513 105.58C172.377 105.471 171.202 104.933 170.641 103.92C169.443 101.793 171.42 99.2294 173.248 98.2243C174.642 97.4563 175.946 97.3884 178.571 96.775V96.6655C176.361 97.0475 174.143 97.3593 171.909 97.6085C170.602 97.7647 169.154 97.8656 168.065 97.1096C166.641 96.1199 166.446 93.9539 167.24 92.4191C168.291 90.3779 170.477 89.4349 172.719 88.8352C171.051 89.1048 169.465 89.3403 168.555 88.009C167.846 86.9805 167.598 85.7649 168.119 84.5882C169.577 81.2716 175.344 79.7853 178.571 78.9232V78.9244ZM128.959 47.1184C128.959 46.339 129.589 45.7158 130.36 45.7158H135.224C136.002 45.7158 136.633 46.339 136.633 47.1184V51.996C136.633 52.7753 136.002 53.3985 135.224 53.3985H130.36C129.589 53.3985 128.959 52.7753 128.959 51.996V47.1184ZM128.959 60.3252C128.959 59.5538 129.589 58.9226 130.36 58.9226H135.224C136.002 58.9226 136.633 59.5538 136.633 60.3252V65.1953C136.633 65.9747 136.002 66.6059 135.224 66.6059H130.36C129.589 66.6059 128.959 65.9747 128.959 65.1953V60.3252ZM128.959 73.5405C128.959 72.7611 129.589 72.13 130.36 72.13H135.224C136.002 72.13 136.633 72.7611 136.633 73.5405V78.4107C136.633 79.19 136.002 79.8212 135.224 79.8212H130.36C129.589 79.8212 128.959 79.19 128.959 78.4107V73.5405ZM49.2928 25.4803C51.1526 25.4803 52.6547 26.9918 52.6547 28.8544C52.6547 30.7171 51.1526 32.228 49.2928 32.228C47.433 32.228 45.9229 30.7165 45.9229 28.8544C45.9229 26.9924 47.4324 25.4803 49.2928 25.4803ZM82.2893 26.0334C104.313 26.0334 122.158 42.4746 122.158 62.7642C122.158 83.0539 103.864 101.552 82.0091 101.552C60.1548 101.552 42.4368 83.2899 42.4368 62.7642C42.4368 42.2385 60.2738 26.0334 82.2893 26.0334ZM33.3776 29.0409C33.3776 27.1788 34.8872 25.6594 36.7476 25.6594C38.6079 25.6594 40.1249 27.1788 40.1249 29.0409C40.1249 30.903 38.6073 32.415 36.7476 32.415C34.8878 32.415 33.3776 30.9035 33.3776 29.0409ZM136.469 136.818C136.469 138.198 135.34 139.328 133.963 139.328H59.8137C58.4362 139.328 57.3156 138.198 57.3156 136.818V134.816C57.3156 133.421 58.4362 132.299 59.8137 132.299H133.963C135.34 132.299 136.469 133.421 136.469 134.816V136.818ZM153.59 119.178C153.59 120.572 152.477 121.694 151.084 121.694H41.5724C40.1869 121.694 39.0589 120.572 39.0589 119.178V117.175C39.0589 115.796 40.1875 114.666 41.5724 114.666H151.084C152.477 114.666 153.59 115.796 153.59 117.175V119.178Z" fill="#E1E1E1"/>
<path d="M199.904 5.21908V31.5027C199.904 33.7507 198.484 35.6687 196.497 36.3916C194.976 36.992 195.849 36.6123 162.828 36.7217C159.947 36.7217 157.615 34.3876 157.615 31.5027V5.21908C157.615 2.37065 159.912 0 162.828 0H194.7C197.573 0 199.904 2.33416 199.904 5.21908Z" fill="#FFB400"/>
<path d="M178.641 189.639H0.677203C-0.099507 189.639 -0.0915349 188.462 0.677203 188.462H18.8018C18.5837 173.354 19.4321 162.484 22.117 145.724C23.113 139.545 24.95 133.483 27.5802 127.709C27.6816 127.491 27.8917 127.358 28.1172 127.358V129.407C25.8138 134.722 24.1869 140.262 23.2844 145.911C20.6075 162.601 19.767 173.424 19.9771 188.462H178.641C179.408 188.462 179.418 189.639 178.641 189.639Z" fill="#191919"/>
<path d="M56.1249 149.885C50.0781 159.297 45.1912 169.466 41.6345 180.07L41.6191 179.899C44.0859 169.808 46.7088 159.523 46.3119 149.884H56.1249V149.885Z" fill="#191919"/>
<path d="M102.492 52.2685C102.616 52.4167 102.74 52.5644 102.865 52.7126C102.873 52.736 102.881 52.744 102.889 52.7514C105.418 49.4086 105.877 44.6553 103.145 41.2425C100.585 38.0554 95.6897 37.0348 92.079 38.9283C93.1375 37.7361 93.0829 35.8427 92.3045 34.4555C90.8142 31.8408 85.8704 29.538 82.4133 30.5363C80.7711 31.0039 79.4096 32.1339 77.9775 33.0609C74.7943 35.0946 71.6191 35.5855 68.0004 36.1779C65.0507 36.6688 62.109 38.601 60.0004 40.6894C58.6075 42.0686 55.2997 46.1828 55.5098 48.2319C55.3931 47.0317 55.0975 45.6063 53.9769 45.1776C53.0043 44.8116 51.899 45.4735 51.3466 46.3618C50.6616 47.4684 50.7396 49.1749 51.8836 49.798C50.9577 49.2992 49.6657 49.6498 49.1367 50.554C47.6971 53.0159 50.7322 53.5929 52.3432 53.4914C54.7245 53.3358 55.1835 53.3358 56.6703 55.4704C59.2772 59.1792 60.7327 62.8805 62.3516 66.9867C56.7637 71.5524 62.1261 82.1964 73.4254 78.6353C73.4487 82.173 73.6588 88.9281 73.5888 92.2241C74.017 92.419 74.3593 92.6528 74.6781 92.894C74.9503 92.439 74.6092 82.4387 74.6001 78.2139C74.8102 78.1284 75.0283 78.0503 75.2385 77.9568C75.9542 77.6529 75.4873 76.5622 74.7795 76.8735C68.748 79.4603 64.2427 77.8166 62.2969 74.9179C59.0671 70.1025 64.6003 63.1599 69.5424 69.9936C70.4296 71.2246 71.7917 72.2845 73.1765 72.8301C74.2351 73.2509 75.4332 72.6665 75.698 71.5758C76.5465 68.1555 75.1844 64.2979 72.3907 62.1867C72.0639 61.9449 71.9238 61.5481 72.0172 61.1741C73.1691 56.8416 71.6282 51.9326 68.0869 48.676C67.9018 48.5032 67.9844 48.2353 68.2037 48.1771C73.5979 46.8093 78.179 42.6604 83.5813 42.2476C89.3326 41.8035 95.3714 44.624 99.3245 49.5951C106.811 59.0001 104.873 71.9498 101.924 81.1599C101.011 84.0243 100.218 84.5716 97.5114 84.9468C91.6969 85.7244 88.8195 84.4171 83.083 83.5442C82.7641 83.4895 82.4606 83.7158 82.4139 84.0351C82.3672 84.3549 82.5853 84.6583 82.9042 84.705C85.1444 85.0505 86.1876 85.3179 89.418 85.9126C89.3246 86.0215 89.2779 86.1771 89.2933 86.3333C89.3012 86.4114 89.939 92.7383 89.9783 92.8164C90.3365 92.7075 90.6941 92.6448 91.1377 92.6448C91.1377 92.5735 90.4646 86.2056 90.4219 86.0762C92.8403 86.4291 94.8965 86.4764 97.6674 86.115C100.812 85.6743 101.977 84.839 103.045 81.5259C106.804 69.7912 106.586 59.7789 102.493 52.2673L102.492 52.2685ZM84.2737 35.5707C78.9711 34.789 74.5682 40.8303 69.0595 40.1991C68.8021 40.1621 68.8551 39.763 69.1062 39.8017C74.4777 40.4391 78.7747 34.382 84.3284 35.1813C84.5835 35.2178 84.5225 35.6095 84.2737 35.5707ZM101.278 44.6633C100.881 43.4478 99.7213 42.5048 98.4526 42.3725C98.197 42.336 98.2357 41.9643 98.4993 41.9831C99.9081 42.1387 101.2 43.1832 101.651 44.5311C101.721 44.7774 101.377 44.9125 101.278 44.6633Z" fill="#191919"/>
<path d="M66.5512 71.8233C66.0826 71.1979 65.1424 71.9071 65.6088 72.5303C66.3775 73.5582 67.4845 74.3034 68.7253 74.6284C69.4924 74.8279 69.7663 73.6825 69.0231 73.4875C68.0392 73.2298 67.1611 72.6386 66.5512 71.8233Z" fill="#191919"/>
<path d="M93.3012 52.9606C93.2665 52.6373 92.9795 52.4075 92.6521 52.4383C92.3286 52.4737 92.0952 52.7644 92.1305 53.0883C92.4505 56.0217 93.9504 58.9311 96.9257 61.1216C99.1562 62.7659 99.6806 63.8013 97.1763 66.2717C96.6216 66.8202 97.4479 67.6583 98.0031 67.1115C99.1824 65.9478 100.237 64.6548 99.971 63.0869C99.7068 61.5309 98.2781 60.6866 97.1529 59.8199C95.0312 58.1876 93.5911 55.6237 93.3007 52.9606H93.3012Z" fill="#191919"/>
<path d="M84.8017 49.4735C81.8242 49.6697 78.9508 51.0369 76.9179 53.2245C76.3861 53.7964 77.2573 54.59 77.7795 54.0273C79.6096 52.0574 82.1977 50.8265 84.8786 50.6497C85.6508 50.599 85.583 49.4268 84.8012 49.4735H84.8017Z" fill="#191919"/>
<path d="M82.6703 57.1893C81.967 57.5171 81.856 58.7691 82.4214 59.9853C82.9874 61.2014 84.0159 61.9215 84.7191 61.5931C85.4224 61.2652 85.5334 60.0132 84.968 58.7971C84.4019 57.581 83.3735 56.8609 82.6703 57.1893Z" fill="#191919"/>
<path d="M99.3324 58.1496C100.036 57.8218 100.147 56.5697 99.5812 55.3542C99.0152 54.1381 97.9868 53.418 97.2836 53.7464C96.5803 54.0742 96.4693 55.3263 97.0347 56.5418C97.6007 57.7579 98.6291 58.478 99.3324 58.1496Z" fill="#191919"/>
<path d="M90.5914 70.6563C90.4638 70.3564 90.117 70.2173 89.8186 70.3456C89.5197 70.4733 89.3807 70.8194 89.5083 71.1193C91.154 74.982 94.5524 76.0676 98.5675 73.3143C98.8357 73.1307 98.904 72.7636 98.7201 72.495C98.5367 72.2271 98.17 72.1575 97.9018 72.3422C94.8058 74.466 92.077 74.1416 90.5914 70.6569V70.6563Z" fill="#191919"/>
<path d="M162.827 36.7219C159.947 36.7219 157.615 34.3877 157.615 31.5028C157.695 3.62339 157.429 5.03107 157.842 3.70264C155.848 4.43356 154.436 6.34354 154.436 8.59161V34.8752C154.436 37.7601 156.767 40.0943 159.648 40.0943H191.512C193.867 40.0943 195.853 38.5378 196.497 36.3918C194.976 36.9921 195.849 36.6124 162.827 36.7219Z" fill="#191919"/>
<path d="M191.924 101.56C193.497 98.9501 192.399 95.4591 189.161 94.2983C189.115 94.2048 189.029 94.1347 188.928 94.1033C191.691 90.8387 189.706 86.5455 185.916 85.9064C187.068 84.5272 187.519 82.5403 187.014 80.795C186.43 78.8469 184.43 77.0629 182.196 77.5846C180.336 78.0133 178.647 78.4808 176.632 79.0573C176.391 79.1741 169.433 80.6468 167.76 84.4337C167.215 85.6572 167.387 87.013 168.235 88.2286C168.718 88.9452 169.364 89.2571 170.048 89.374C168.78 89.9818 167.605 90.8546 166.889 92.2338C166.063 93.8388 166.188 96.2858 167.838 97.4307C169.317 98.4592 171.301 98.0772 173.106 97.8594C171.76 98.5841 170.46 100.002 170.032 101.49C169.309 104.031 171.254 106.656 175.776 105.823C173.667 107.739 174.577 111.986 178.515 112.531C181.232 112.913 184.508 111.745 187.185 111.012C185.691 124.118 182.508 138.244 178.181 150.86C174.913 160.366 171.185 172.973 161.161 175.038C152.071 176.908 146.881 169.436 139.83 165.002C139.698 164.917 139.542 164.893 139.395 164.924C139.496 165.384 139.589 165.844 139.683 166.303C146.375 170.698 151.94 178.139 161.403 176.191C172.088 173.994 175.963 160.95 179.294 151.242C183.698 138.401 186.936 123.986 188.414 110.662C190.726 109.969 193.115 108.932 193.667 106.369C194.049 104.592 193.333 102.675 191.924 101.561V101.56ZM168.881 87.7839C167.34 85.5552 168.71 83.6617 170.951 82.1816C173.021 80.8104 175.208 80.3195 176.85 79.8127C177.612 79.5943 182.18 78.2853 182.967 78.2853C184.476 78.2853 185.838 79.5943 186.259 81.0203C186.765 82.7421 186.173 84.745 184.811 85.9058C180.29 86.8876 176.648 87.9081 171.799 88.5707C170.407 88.7423 169.488 88.6716 168.881 87.7839ZM171.862 97.2197C170.586 97.368 169.255 97.4535 168.29 96.7836C166.991 95.8793 166.913 93.9083 167.59 92.5993C168.632 90.581 170.905 89.732 172.781 89.2257C182.991 87.3009 178.959 87.9714 185.201 86.623C186.913 86.6544 188.578 87.8072 189.201 89.4048C189.792 90.971 189.224 92.9111 187.808 94.1341C187.754 94.1809 187.715 94.2436 187.699 94.3057C182.781 95.3496 179.793 96.3314 171.862 97.2197ZM173.55 105.191C171.597 105.004 170.243 103.609 170.788 101.708C171.184 100.329 172.398 99.1365 173.433 98.5675C174.756 97.8429 175.441 97.913 181.099 96.6119C182.492 96.3394 187.83 95.2094 188.165 95.0144C188.297 94.983 188.437 94.9597 188.57 94.9289C189.823 95.2641 190.998 96.2299 191.496 97.368C192.064 98.6223 191.901 100.212 191.115 101.349C181.939 103.446 175.745 105.401 173.55 105.191ZM192.905 106.196C192.423 108.425 190.135 109.344 187.963 109.975C187.738 109.928 187.567 109.99 187.434 110.123C183.294 111.277 177.178 113.559 175.668 109.547C175.115 108.074 175.644 106.57 176.928 105.97C180.516 104.272 184.975 104.022 188.789 102.706C188.835 102.698 189.077 102.62 191.325 102.106C192.563 103.01 193.224 104.693 192.905 106.197V106.196Z" fill="#191919"/>
<path d="M157.828 115.811V113.802C157.828 112.094 156.44 110.704 154.734 110.704H45.2187C43.5127 110.704 42.125 112.094 42.125 113.802V115.811C42.125 117.519 43.5127 118.909 45.2187 118.909H154.734C156.44 118.909 157.828 117.519 157.828 115.811ZM43.302 115.811V113.802C43.302 112.744 44.1619 111.882 45.2187 111.882H154.734C155.791 111.882 156.651 112.743 156.651 113.802V115.811C156.651 116.869 155.791 117.73 154.734 117.73H45.2187C44.1619 117.73 43.302 116.869 43.302 115.811Z" fill="#191919"/>
<path d="M138.461 131.812C138.461 130.104 137.074 128.714 135.367 128.714H61.2207C59.5147 128.714 58.127 130.104 58.127 131.812V133.821C58.127 135.529 59.5147 136.919 61.2207 136.919H135.367C137.074 136.919 138.461 135.529 138.461 133.821V131.812ZM137.284 133.821C137.284 134.879 136.424 135.74 135.367 135.74H61.2201C60.1633 135.74 59.3034 134.879 59.3034 133.821V131.812C59.3034 130.754 60.1633 129.893 61.2201 129.893H135.367C136.424 129.893 137.284 130.754 137.284 131.812V133.821Z" fill="#191919"/>
<path d="M107.461 93.3541C115.33 88.3739 121.01 79.9238 122.654 70.7496C122.791 69.9811 121.632 69.7741 121.495 70.5409C119.908 79.3953 114.426 87.5511 106.832 92.3569C106.173 92.7736 106.802 93.7697 107.461 93.3535V93.3541Z" fill="#191919"/>
<path d="M156.328 49.6788C160.823 51.9223 166.741 50.9406 170.153 47.1816C170.678 46.6035 169.803 45.8115 169.282 46.3885C166.318 49.6532 161.031 50.5654 157.049 48.7136C158.043 46.7962 156.683 44.7425 154.85 45.279C153.459 45.6855 152.907 47.5265 155.258 49.0654C151.9 51.9833 145.777 52.2217 141.85 48.8601C141.255 48.3527 140.494 49.2506 141.084 49.7564C145.628 53.6447 152.867 53.1641 156.328 49.6788ZM155.413 46.3771C156.203 46.3771 156.383 47.4347 156.014 48.1497C154.332 47.083 154.732 46.3771 155.413 46.3771Z" fill="#191919"/>
<path d="M141.002 62.3441C143.414 63.7313 146.626 63.6851 148.998 62.2238C150.135 61.5225 151.104 60.5464 152.231 60.4826C153.365 60.4244 154.437 61.2825 155.588 61.8863C159.274 63.8231 163.55 63.0767 167.974 62.0676C168.733 61.8937 168.471 60.7437 167.712 60.9176C163.512 61.8772 159.466 62.5927 156.135 60.8424C154.91 60.1981 153.707 59.218 152.165 59.3053C150.627 59.3931 149.525 60.5151 148.381 61.2192C146.368 62.4593 143.638 62.5009 141.589 61.3218C140.914 60.9324 140.327 61.9553 141.003 62.3435L141.002 62.3441Z" fill="#191919"/>
<path d="M139.989 78.3267C145.84 78.598 151.792 78.3215 157.683 77.4771C158.445 77.3683 158.298 76.208 157.515 76.3101C151.745 77.1368 145.865 77.419 140.044 77.1487C139.25 77.1305 139.224 78.2907 139.989 78.3267Z" fill="#191919"/>
<path d="M144.68 156.703C142.306 153.874 139.348 151.53 136.039 149.9C136.897 154.061 137.699 158.365 138.447 162.692C140.349 160.831 142.47 158.795 144.68 156.703Z" fill="#191919"/>
<path d="M53.496 90.4858C54.066 91.0166 54.8683 90.1511 54.296 89.6214C46.214 82.1201 41.8915 70.6408 43.0144 59.6639C44.1385 48.6869 50.6972 38.3246 60.1316 32.6203C60.8001 32.2161 60.1869 31.2075 59.5229 31.6111C49.7781 37.5024 43.0041 48.2051 41.8436 59.543C40.6831 70.8814 45.1481 82.7375 53.496 90.4852V90.4858Z" fill="#191919"/>
<path d="M172.95 28.216C173.162 28.4851 173.557 28.5159 173.808 28.2867L194.428 9.51078C194.949 9.03528 194.338 8.20573 193.728 8.56891C188.325 11.8119 180.691 15.828 175.117 19.1376C174.113 17.3759 172.612 14.9015 171.54 12.8758C171.335 12.4881 170.809 12.4641 170.555 12.7897C169.022 14.7624 167.176 16.0691 165.573 18.1325C165.407 18.3463 165.408 18.6467 165.576 18.8594L172.95 28.216H172.95ZM170.918 14.2031C172.156 16.4568 173.409 18.486 174.387 20.2403C174.552 20.5345 174.922 20.6274 175.205 20.4587C179.372 17.9569 184.829 15.0161 189.575 12.3353L173.484 26.9891L166.791 18.4974C168.079 16.9386 169.557 15.7755 170.918 14.2031H170.918Z" fill="#191919"/>
</g>
<defs>
<clipPath id="clip0_818_607">
<rect width="199.806" height="190" fill="white" transform="translate(0.0976562)"/>
</clipPath>
</defs>
</svg>
