<svg width="206" height="190" viewBox="0 0 206 190" fill="none" xmlns="http://www.w3.org/2000/svg">
<g clip-path="url(#clip0_1208_1117)">
<path d="M35.854 53.4094V64.2066C35.854 65.6027 35.1679 66.8292 34.1111 67.5714C33.4414 68.0475 32.6179 68.3218 31.7383 68.3218H20.941C18.6653 68.3218 16.8171 66.4818 16.8171 64.2061V53.4088C16.8171 51.1594 18.6413 49.2849 20.941 49.2849H31.7383C34.014 49.2849 35.854 51.1331 35.854 53.4088V53.4094Z" fill="#60A5FA"/>
<path d="M193.474 6.57906L167.371 66.0367C167.165 66.504 166.635 66.7414 166.144 66.5829C151.276 61.7361 153.638 62.4526 153.303 62.3473C152.233 61.9847 151.864 61.7256 151.015 62.9094C147.464 67.9568 153.831 59.5949 139.804 77.7779C139.408 78.2926 138.624 78.2926 138.236 77.7861L119.006 52.9105C118.887 52.752 118.721 52.6415 118.531 52.5777L99.6801 46.5922C98.8092 46.3149 98.7619 45.1195 99.6088 44.7551L192.183 5.29703C193.006 4.94084 193.837 5.76434 193.473 6.57964L193.474 6.57906Z" fill="#CC9000"/>
<path d="M78.6238 149.233C51.4889 179.172 53.0464 171.824 46.6134 178.896C44.6968 181.026 43.7768 182.758 43.4323 183.103C42.345 180.755 40.1945 177.324 37.3427 174.048C30.0079 165.582 19.1305 158.826 8.92163 154.906C16.9583 148.592 25.7319 143.4 33.9534 137.382C39.4657 133.364 45.4384 128.353 52.1661 125.796C53.416 125.315 57.5908 123.312 58.7447 123.529C62.0141 124.129 66.5808 133.096 68.512 135.82C71.7493 140.396 74.9701 144.979 78.6238 149.233Z" fill="#60A5FA"/>
<path d="M139.96 140.588C137.892 140.941 137.051 139.929 135.754 139.995C134.143 140.083 131.844 139.282 130.273 139.698C125.017 141.061 122.116 141.581 117.325 144.153C111.5 147.278 105.715 152.222 102.229 157.831C105.098 160.611 108.342 162.775 111.419 165.283C110.394 167.07 111.38 168.921 111.756 170.764C112.315 173.449 114.444 189.513 114.616 189.513C106.283 190.595 97.7815 188.536 89.3764 188.487C85.5385 188.472 81.1315 188.431 77.3094 188.239C63.0685 187.557 46.3471 188.993 41.8858 188.655C41.5372 188.625 42.2952 185.806 42.7993 182.91C42.8075 182.894 42.7993 182.886 42.8075 182.878C44.4913 174.176 44.3001 170.453 43.6889 164.625C43.1701 161.517 42.7578 148.458 43.2 143.304C43.5444 139.161 43.5848 135.283 45.5558 131.63C49.2954 124.768 57.0479 124.218 57.4707 123.793C57.8696 123.793 58.837 123.543 59.2177 123.44C60.3717 123.136 61.942 122.655 63.4644 122.214C70.1729 120.315 84.0851 117.648 93.9202 117.623C112.574 117.57 121.913 125.665 124.16 126.749C130.26 130.417 137.013 136.965 139.96 140.587V140.588Z" fill="#60A5FA"/>
<path d="M64.8162 23.5513H2.83251C1.26682 23.5513 0 24.8182 0 26.3838V42.6122C0 44.1778 1.26682 45.4447 2.83251 45.4447H64.8162C66.3819 45.4447 67.6569 44.1778 67.6569 42.6122V26.3838C67.6569 24.8182 66.3819 23.5513 64.8162 23.5513ZM9.32863 40.1428C6.38324 40.1428 3.99464 37.7624 3.99464 34.817C3.99464 31.8717 6.38324 29.4831 9.32863 29.4831C12.274 29.4831 14.6544 31.8717 14.6544 34.817C14.6544 37.7624 12.274 40.1428 9.32863 40.1428ZM50.8963 39.3843H22.1519C21.3044 39.3843 20.6265 38.7064 20.6265 37.8589C20.6265 37.0115 21.3044 36.3418 22.1519 36.3418H50.8963C51.7438 36.3418 52.4217 37.0197 52.4217 37.8589C52.4217 38.6982 51.7438 39.3843 50.8963 39.3843ZM56.7064 33.0975H22.2402C21.3523 33.0975 20.6259 32.3793 20.6259 31.4833C20.6259 30.5873 21.3465 29.8615 22.2402 29.8615H56.7064C57.6024 29.8615 58.3206 30.5879 58.3206 31.4833C58.3206 32.3787 57.6094 33.0975 56.7064 33.0975Z" fill="#0062A7"/>
<path d="M20.942 68.3224C18.6662 68.3224 16.8181 66.4824 16.8181 64.2067C16.8941 53.144 16.6455 53.2194 17.0438 52.0695C15.9864 52.8117 15.2927 54.0388 15.2927 55.4349V66.2321C15.2927 68.5078 17.1409 70.356 19.4166 70.356H30.2139C32.0217 70.356 33.5546 69.1939 34.1114 67.5715C33.4417 68.0475 32.6183 68.3224 31.7386 68.3224H20.9414H20.942Z" fill="white"/>
<path d="M98.3602 42.3923L117.885 48.7417C137.608 74.6349 137.704 74.7899 137.784 74.8636C138.03 75.1747 138.497 75.1642 138.734 74.8636L151.594 58.4861L164.313 62.7176C165.65 63.1621 167.097 62.5305 167.675 61.2391L194.624 0.998352C194.9 0.385412 194.25 -0.187759 193.657 0.0584706L98.2649 39.8675C97.1074 40.3517 97.1706 42.0069 98.3602 42.3923ZM130.108 50.3664C129.909 50.5325 129.854 50.8138 129.92 51.0174L136.563 71.2655L119.135 48.3843L184.636 7.21491C184.554 7.27924 130.027 50.4348 130.108 50.367V50.3664ZM138.48 73.2265L131.445 51.7824L150.374 58.0796L138.48 73.226V73.2265ZM166.57 60.7443C166.248 61.4625 165.444 61.8175 164.695 61.5684L131.749 50.608L192.671 2.39969L166.57 60.7443ZM98.7316 40.984L187.715 3.84958L118.169 47.5608L98.7339 41.2407C98.6111 41.1998 98.607 41.0349 98.7316 40.984Z" fill="white"/>
<path d="M130.33 78.0891C128.871 73.7477 124.133 70.8473 119.625 71.4708C118.688 68.5622 115.651 66.4871 112.598 66.6872C109.553 66.8796 106.797 69.3232 106.236 72.3282C105.435 72.1522 104.625 72.1837 103.856 72.3762C101.176 65.27 96.8617 60.5355 88.8566 57.6486C86.2043 56.6871 83.384 57.424 81.0603 55.7577C78.1038 53.6265 76.3329 51.0782 72.7114 49.7161C67.0066 47.5526 61.0608 48.6341 58.4967 54.7641C57.2469 57.8153 58.6781 63.8476 63.7611 66.6228C64.2261 66.8708 64.6905 67.1036 65.1631 67.32C65.1233 67.344 65.0829 67.3679 65.0426 67.4001C56.245 73.698 51.8538 83.6337 51.6134 97.784C51.5011 104.31 54.0266 108.448 60.6116 111.293C62.1422 111.958 63.6406 112.455 65.1309 112.807C64.6343 116.077 64.1536 119.025 63.4564 121.91C63.4324 122.014 63.4324 122.118 63.4646 122.214C63.8892 122.094 64.3138 121.974 64.7145 121.862C65.3795 119.066 65.8362 116.205 66.317 113.056C71.6487 114.045 76.637 112.975 81.6452 110.956C82.3856 110.645 81.9213 109.534 81.1884 109.835C73.6085 112.887 67.599 112.992 61.093 110.187C54.9548 107.527 52.7124 103.82 52.8241 97.7998C53.0563 84.0659 57.2872 74.4431 65.7485 68.3856C65.9971 68.2096 66.2451 68.0411 66.5018 67.8809C71.7422 69.8998 77.3347 69.908 82.9196 69.1231C84.1777 68.9471 84.9228 69.4115 85.2111 70.5976C86.6856 76.6948 88.6888 82.9207 94.0093 86.6867C94.6503 87.1517 94.8503 87.7523 94.514 88.3132C92.9981 90.8012 89.6988 94.4356 89.5702 97.3915C89.0432 98.0957 89.9416 98.7695 90.4516 98.2407C91.8166 97.8635 93.8964 95.965 95.7639 97.5839C99.5357 100.91 96.8909 105.646 92.5267 106.951C89.5088 107.852 87.2131 106.667 84.1052 105.372C83.3554 105.084 82.9144 106.197 83.6566 106.502C83.9127 106.606 84.1771 106.71 84.4339 106.823C83.9274 107.391 82.9963 117.545 83.2641 118.353L84.466 118.208C84.4502 116.501 84.5222 114.747 84.6982 112.96C86.4207 114.033 89.1613 113.544 90.5796 113.184C94.1935 112.286 96.5973 111.005 99.0011 108.385C101.493 105.684 103.272 102.912 104.378 99.4824C106.365 102.795 110.188 103.926 112.583 102.599C113.44 102.134 114.114 101.389 114.963 100.908C116.838 99.8427 119.186 100.228 121.277 99.6824C125.259 98.6168 127.591 93.5367 125.796 89.8192C129.77 87.5997 131.782 82.3914 130.331 78.0886L130.33 78.0891ZM65.2192 54.2839C63.4114 54.6079 62.1615 56.6555 62.6633 58.3785C62.6955 58.4826 62.6312 58.5949 62.5271 58.6265C62.4803 58.6733 62.3165 58.63 62.2785 58.4902C61.7001 56.5736 63.1037 54.2406 65.1473 53.8832C65.4163 53.8446 65.4754 54.247 65.2192 54.2839ZM123.639 81.4948C123.599 81.7551 123.18 81.696 123.239 81.4387C123.567 79.3478 122.285 77.096 120.322 76.3106C120.077 76.2082 120.225 75.838 120.474 75.9339C122.598 76.7913 123.991 79.2349 123.639 81.4948H123.639Z" fill="white"/>
<path d="M88.674 104.31C90.0444 104.339 91.2428 103.996 92.4464 103.228C93.1213 102.797 92.4704 101.777 91.7949 102.207C90.7906 102.848 89.8332 103.126 88.7009 103.099C87.8803 103.104 87.8897 104.292 88.6746 104.31H88.674Z" fill="white"/>
<path d="M74.3117 76.593C74.6784 75.8806 73.6023 75.3262 73.2355 76.038C71.5307 79.3425 69.0245 81.3591 65.7732 82.7242C64.5649 83.2307 63.3162 83.7541 62.6635 85.2338C61.8903 86.9849 62.781 88.6348 63.6379 90.2713C64.0058 90.9831 65.0807 90.4251 64.7128 89.7151C64.0403 88.4296 63.2027 87.0101 63.7706 85.7228C64.2292 84.6841 65.117 84.3115 66.2411 83.8407C69.748 82.368 72.4629 80.1765 74.3117 76.5936V76.593Z" fill="white"/>
<path d="M81.826 76.3796C81.1025 76.0374 80.5837 77.1311 81.3078 77.4733C84.4018 78.9378 86.4552 80.8257 87.9671 83.5957C88.3473 84.2917 89.4135 83.7191 89.0298 83.0161C87.3875 80.0069 85.1662 77.9599 81.826 76.3796Z" fill="white"/>
<path d="M82.533 87.4283C84.9952 84.866 82.7558 82.6529 80.1917 85.3128C77.8868 87.7049 79.9028 90.1643 82.533 87.4283Z" fill="white"/>
<path d="M67.8201 78.6477C70.3017 75.8953 67.9909 73.7365 65.4871 76.5147C63.0353 79.236 65.2999 81.4433 67.8201 78.6477Z" fill="white"/>
<path d="M65.6326 72.0012C70.5817 70.3665 73.03 73.6371 73.6798 73.6371C74.2489 73.6371 74.5015 72.9207 74.0623 72.5621C71.3462 70.3508 68.4639 69.7916 65.2524 70.8514C64.4927 71.1023 64.8711 72.2522 65.632 72.0007L65.6326 72.0012Z" fill="white"/>
<path d="M68.6288 95.5223C68.4265 96.7025 68.2645 97.9091 67.379 98.6858C66.5994 99.3707 65.6296 99.1923 64.9933 98.4215C64.4856 97.8033 63.5493 98.5735 64.0599 99.1911C65.1547 100.519 66.9105 100.707 68.1773 99.5953C69.336 98.5788 69.5681 97.2055 69.8214 95.7282C69.8787 95.3989 69.6576 95.086 69.3283 95.0287C69.0002 94.9708 68.6856 95.1918 68.6288 95.5217V95.5223Z" fill="white"/>
<path d="M17.1536 158.367C17.0641 158.412 16.9805 158.463 16.8951 158.511C14.441 157.239 11.9676 156.113 9.54739 155.163C6.56866 157.723 11.8161 163.284 13.5169 165.835C10.2188 173.341 6.24932 182.03 3.43669 188.761C3.23199 189.253 3.97477 189.565 4.18181 189.072C7.10498 182.074 11.2979 172.925 14.7369 165.06C15.5885 163.394 16.4962 160.558 17.4378 159.13C18.0525 158.805 17.5981 158.145 17.153 158.367L17.1536 158.367Z" fill="white"/>
<path d="M37.3416 174.05C39.1804 176.163 40.7981 178.409 42.1609 180.758C42.3047 181.176 42.5709 181.998 42.6574 182.427C42.7627 182.955 43.554 182.794 43.4487 182.269C43.3575 181.81 43.1048 181.034 42.9539 180.589C43.5593 171.983 45.1671 164.373 47.5685 156.158C45.0443 162.984 41.2613 169.326 37.3421 174.05L37.3416 174.05Z" fill="white"/>
<path d="M205.128 188.79L180.6 188.608C167.264 174.919 178.187 186.735 150.315 158.149L143.431 151.086C142.056 149.68 140.087 147.134 138.203 144.923C138.988 143.78 139.56 142.141 139.738 140.746C140.368 140.583 140.33 139.712 139.722 139.576C127.823 136.919 111.999 144.313 103.878 154.403C101.82 156.96 100.569 159.824 100.219 162.601C96.9008 153.634 95.2901 145.823 96.8628 136.472L95.6685 136.271C93.8659 146.988 96.1101 155.678 100.314 166.226C101.161 166.442 105.406 169.299 111.216 165.929C115.892 170.103 128.935 181.867 135.475 188.273L58.8412 187.706C57.9861 187.765 58.0791 188.912 58.8318 188.917C59.3705 188.921 205.242 190 205.124 190C205.922 190 205.925 188.795 205.128 188.789L205.128 188.79ZM103.946 158.05C103.745 157.746 103.602 157.419 103.494 157.073C107.876 149.896 120.052 141.288 132.546 140.37C136.554 143.505 140.116 148.849 142.853 151.65L149.737 158.713C177.328 187.01 166.745 175.568 179.464 188.6L136.644 188.283C126.263 178.051 114.018 167.698 103.946 158.05V158.05Z" fill="white"/>
<path d="M120.066 125.47C119.307 125.696 119.634 126.864 120.411 126.631C129.001 124.081 135.281 117.015 136.786 111.579C139.972 109.86 141.722 106.3 142.725 102.816C144.895 95.2772 144.375 86.9733 141.263 79.4338C140.958 78.6933 139.838 79.1548 140.144 79.8952C143.152 87.1832 143.656 95.2047 141.562 102.481C140.761 105.265 139.439 108.21 137.108 109.946C137.796 103.826 131.9 100.79 128.634 103.053C125.837 104.99 126.334 109.704 129.149 111.59C131.013 112.84 133.302 112.873 135.308 112.215C133.403 117.306 127.577 123.241 120.067 125.47H120.066ZM129.823 110.585C127.711 109.17 127.244 105.487 129.322 104.048C131.777 102.348 137.057 104.839 135.747 110.75C133.889 111.606 131.605 111.779 129.823 110.585Z" fill="white"/>
<path d="M66.1526 43.1971C68.0487 43.1971 69.5922 41.6542 69.5922 39.7575V23.5257C69.5922 21.6296 68.0493 20.0861 66.1526 20.0861H4.16543C2.26929 20.0861 0.72583 21.629 0.72583 23.5257V39.7575C0.72583 41.6537 2.26871 43.1971 4.16543 43.1971H66.1532H66.1526ZM1.93651 39.7581V23.5263C1.93651 22.2975 2.93663 21.2974 4.16543 21.2974H66.1532C67.382 21.2974 68.3821 22.2975 68.3821 23.5263V39.7581C68.3821 40.9869 67.382 41.987 66.1532 41.987H4.16543C2.93663 41.987 1.93651 40.9869 1.93651 39.7581Z" fill="white"/>
<path d="M32.0192 55.4916L25.6394 61.1081C24.1615 59.7641 23.6912 59.4348 22.1144 57.9802C21.5266 57.4375 20.7043 58.327 21.2939 58.8698C22.9865 60.4314 23.5567 60.8303 25.2213 62.3661C25.4511 62.5784 25.802 62.5784 26.0313 62.3755L32.8187 56.3999C33.0696 56.1794 33.0942 55.7963 32.8731 55.546C32.6514 55.2945 32.2695 55.2705 32.0192 55.4916Z" fill="white"/>
<path d="M69.7829 17.2986V14.6334C69.7829 13.8327 68.5723 13.8321 68.5723 14.6334V17.2986C68.5723 18.0993 69.7829 18.0999 69.7829 17.2986Z" fill="white"/>
<path d="M72.6073 18.7713L74.9006 16.1131C75.4235 15.506 74.5058 14.7158 73.9835 15.3229L71.6909 17.9811C71.1674 18.5871 72.0845 19.3778 72.6073 18.7713Z" fill="white"/>
<path d="M74.1987 22.3858L76.8668 22.0197C77.6599 21.9103 77.4955 20.7119 76.7025 20.8201L74.0343 21.1862C73.2459 21.295 73.3986 22.487 74.1987 22.3858Z" fill="white"/>
</g>
<defs>
<clipPath id="clip0_1208_1117">
<rect width="205.724" height="190" fill="white"/>
</clipPath>
</defs>
</svg>
