<svg width="206" height="190" viewBox="0 0 206 190" fill="none" xmlns="http://www.w3.org/2000/svg">
<path d="M35.8533 53.4096V64.2069C35.8533 65.603 35.1672 66.8294 34.1103 67.5716C33.4407 68.0477 32.6172 68.322 31.7375 68.322H20.9403C18.6646 68.322 16.8164 66.482 16.8164 64.2063V53.4091C16.8164 51.1597 18.6406 49.2852 20.9403 49.2852H31.7375C34.0133 49.2852 35.8533 51.1333 35.8533 53.4091V53.4096Z" fill="#E1E1E1"/>
<path d="M193.474 6.57924L167.371 66.0369C167.166 66.5042 166.635 66.7416 166.144 66.5831C151.276 61.7363 153.639 62.4528 153.303 62.3475C152.234 61.9849 151.865 61.7258 151.015 62.9096C147.464 67.957 153.831 59.5951 139.804 77.7781C139.408 78.2928 138.625 78.2928 138.237 77.7863L119.006 52.9107C118.888 52.7522 118.722 52.6416 118.531 52.5779L99.6806 46.5924C98.8097 46.3151 98.7624 45.1197 99.6093 44.7553L192.183 5.29721C193.007 4.94103 193.838 5.76452 193.473 6.57983L193.474 6.57924Z" fill="#FFB400"/>
<path d="M78.624 149.233C51.4891 179.172 53.0466 171.824 46.6137 178.896C44.697 181.026 43.777 182.758 43.4326 183.102C42.3453 180.755 40.1947 177.324 37.3429 174.048C30.0081 165.582 19.1307 158.826 8.92188 154.906C16.9585 148.592 25.7321 143.4 33.9536 137.382C39.466 133.364 45.4387 128.352 52.1664 125.796C53.4162 125.315 57.591 123.312 58.745 123.528C62.0144 124.129 66.581 133.096 68.5123 135.82C71.7495 140.395 74.9704 144.979 78.624 149.233Z" fill="#E1E1E1"/>
<path d="M139.96 140.588C137.892 140.941 137.051 139.929 135.754 139.995C134.143 140.083 131.843 139.282 130.273 139.699C125.017 141.061 122.116 141.581 117.325 144.153C111.499 147.278 105.714 152.222 102.229 157.831C105.097 160.612 108.342 162.775 111.419 165.283C110.393 167.07 111.379 168.921 111.756 170.764C112.315 173.449 114.444 189.513 114.616 189.513C106.283 190.595 97.7813 188.536 89.3762 188.488C85.5383 188.472 81.1313 188.431 77.3092 188.239C63.0682 187.557 46.3469 188.994 41.8855 188.655C41.5369 188.625 42.2949 185.807 42.7991 182.91C42.8073 182.895 42.7991 182.886 42.8073 182.878C44.4911 174.176 44.2998 170.453 43.6887 164.626C43.1699 161.518 42.7576 148.458 43.1997 143.304C43.5442 139.162 43.5846 135.283 45.5556 131.63C49.2952 124.768 57.0476 124.218 57.4705 123.793C57.8694 123.793 58.8367 123.543 59.2175 123.44C60.3714 123.136 61.9418 122.655 63.4642 122.215C70.1726 120.315 84.0849 117.648 93.92 117.623C112.574 117.57 121.913 125.665 124.159 126.75C130.26 130.417 137.012 136.965 139.96 140.588V140.588Z" fill="#E1E1E1"/>
<path d="M64.8162 23.5513H2.83251C1.26682 23.5513 0 24.8181 0 26.3838V42.6121C0 44.1778 1.26682 45.4446 2.83251 45.4446H64.8162C66.3819 45.4446 67.6569 44.1778 67.6569 42.6121V26.3838C67.6569 24.8181 66.3819 23.5513 64.8162 23.5513ZM9.32863 40.1428C6.38324 40.1428 3.99464 37.7624 3.99464 34.817C3.99464 31.8716 6.38324 29.483 9.32863 29.483C12.274 29.483 14.6544 31.8716 14.6544 34.817C14.6544 37.7624 12.274 40.1428 9.32863 40.1428ZM50.8963 39.3842H22.1519C21.3044 39.3842 20.6265 38.7064 20.6265 37.8589C20.6265 37.0114 21.3044 36.3417 22.1519 36.3417H50.8963C51.7438 36.3417 52.4217 37.0196 52.4217 37.8589C52.4217 38.6982 51.7438 39.3842 50.8963 39.3842ZM56.7064 33.0975H22.2402C21.3523 33.0975 20.6259 32.3793 20.6259 31.4832C20.6259 30.5872 21.3465 29.8614 22.2402 29.8614H56.7064C57.6024 29.8614 58.3206 30.5878 58.3206 31.4832C58.3206 32.3787 57.6094 33.0975 56.7064 33.0975Z" fill="#007BD1"/>
<path d="M20.9422 68.3222C18.6665 68.3222 16.8183 66.4822 16.8183 64.2065C16.8943 53.1437 16.6458 53.2192 17.0441 52.0693C15.9866 52.8115 15.293 54.0386 15.293 55.4347V66.2319C15.293 68.5076 17.1412 70.3558 19.4169 70.3558H30.2141C32.0219 70.3558 33.5549 69.1937 34.1117 67.5712C33.442 68.0473 32.6185 68.3222 31.7389 68.3222H20.9416H20.9422Z" fill="#191919"/>
<path d="M98.3605 42.3923L117.885 48.7417C137.608 74.6349 137.704 74.7899 137.785 74.8636C138.03 75.1747 138.497 75.1642 138.734 74.8636L151.595 58.4861L164.314 62.7176C165.651 63.1621 167.098 62.5305 167.675 61.2391L194.624 0.998352C194.9 0.385412 194.251 -0.187759 193.657 0.0584706L98.2651 39.8675C97.1077 40.3517 97.1708 42.0069 98.3605 42.3923ZM130.108 50.3664C129.909 50.5325 129.854 50.8138 129.92 51.0174L136.563 71.2655L119.135 48.3843L184.636 7.21491C184.555 7.27924 130.027 50.4348 130.108 50.367V50.3664ZM138.481 73.2265L131.445 51.7824L150.374 58.0796L138.481 73.226V73.2265ZM166.57 60.7443C166.248 61.4625 165.445 61.8175 164.695 61.5684L131.749 50.608L192.671 2.39969L166.57 60.7443ZM98.7319 40.984L187.715 3.84958L118.169 47.5608L98.7342 41.2407C98.6114 41.1998 98.6073 41.0349 98.7319 40.984Z" fill="#191919"/>
<path d="M130.33 78.0893C128.87 73.7478 124.132 70.8475 119.625 71.4709C118.687 68.5624 115.651 66.4873 112.598 66.6873C109.553 66.8797 106.796 69.3233 106.235 72.3284C105.434 72.1523 104.625 72.1839 103.856 72.3763C101.175 65.2702 96.8612 60.5357 88.8561 57.6488C86.2038 56.6872 83.3835 57.4242 81.0598 55.7579C78.1033 53.6266 76.3324 51.0784 72.7109 49.7162C67.0061 47.5528 61.0603 48.6342 58.4963 54.7642C57.2464 57.8155 58.6776 63.8478 63.7606 66.623C64.2256 66.871 64.69 67.1037 65.1626 67.3201C65.1228 67.3441 65.0824 67.3681 65.0421 67.4003C56.2445 73.6981 51.8533 83.6338 51.6129 97.7841C51.5007 104.31 54.0261 108.449 60.6111 111.293C62.1417 111.958 63.6402 112.455 65.1304 112.808C64.6338 116.077 64.1531 119.025 63.4559 121.91C63.4319 122.014 63.4319 122.118 63.4641 122.215C63.8887 122.094 64.3133 121.974 64.714 121.862C65.379 119.066 65.8358 116.205 66.3165 113.056C71.6482 114.045 76.6365 112.975 81.6447 110.957C82.3852 110.645 81.9208 109.534 81.1879 109.835C73.6081 112.887 67.5985 112.992 61.0925 110.187C54.9543 107.527 52.7119 103.821 52.8236 97.7999C53.0558 84.0661 57.2867 74.4432 65.748 68.3858C65.9966 68.2097 66.2446 68.0413 66.5013 67.881C71.7417 69.9 77.3342 69.9082 82.9191 69.1233C84.1772 68.9472 84.9223 69.4116 85.2107 70.5977C86.6851 76.695 88.6883 82.9209 94.0088 86.6869C94.6498 87.1518 94.8499 87.7525 94.5136 88.3134C92.9976 90.8014 89.6983 94.4358 89.5697 97.3917C89.0427 98.0959 89.9411 98.7696 90.4511 98.2409C91.8162 97.8637 93.8959 95.9652 95.7634 97.5841C99.5352 100.91 96.8905 105.646 92.5262 106.951C89.5083 107.853 87.2127 106.667 84.1047 105.372C83.3549 105.084 82.9139 106.197 83.6561 106.502C83.9123 106.606 84.1766 106.71 84.4334 106.823C83.9269 107.391 82.9958 117.546 83.2636 118.353L84.4655 118.208C84.4497 116.502 84.5217 114.747 84.6977 112.96C86.4202 114.034 89.1608 113.545 90.5792 113.184C94.193 112.286 96.5969 111.005 99.0007 108.385C101.493 105.685 103.271 102.912 104.377 99.4826C106.364 102.795 110.188 103.926 112.582 102.599C113.44 102.134 114.113 101.389 114.962 100.908C116.837 99.8429 119.185 100.228 121.277 99.6826C125.259 98.617 127.591 93.5368 125.796 89.8194C129.77 87.5998 131.781 82.3916 130.331 78.0887L130.33 78.0893ZM65.2187 54.284C63.4109 54.608 62.161 56.6557 62.6628 58.3787C62.695 58.4828 62.6307 58.5951 62.5266 58.6267C62.4798 58.6735 62.316 58.6302 62.278 58.4904C61.6996 56.5738 63.1033 54.2407 65.1468 53.8834C65.4158 53.8448 65.4749 54.2472 65.2187 54.284ZM123.639 81.495C123.599 81.7552 123.179 81.6962 123.238 81.4388C123.567 79.3479 122.285 77.0962 120.321 76.3107C120.076 76.2084 120.224 75.8382 120.473 75.9341C122.597 76.7915 123.991 79.2351 123.638 81.495H123.639Z" fill="#191919"/>
<path d="M88.6743 104.31C90.0446 104.339 91.243 103.996 92.4467 103.228C93.1216 102.797 92.4706 101.777 91.7951 102.207C90.7909 102.848 89.8335 103.126 88.7012 103.099C87.8806 103.104 87.89 104.292 88.6748 104.31H88.6743Z" fill="#191919"/>
<path d="M74.3112 76.5929C74.6779 75.8805 73.6018 75.3261 73.2351 76.0379C71.5302 79.3424 69.024 81.359 65.7727 82.7241C64.5644 83.2306 63.3157 83.754 62.663 85.2337C61.8898 86.9848 62.7806 88.6347 63.6374 90.2712C64.0053 90.983 65.0802 90.425 64.7124 89.715C64.0398 88.4294 63.2022 87.01 63.7701 85.7227C64.2287 84.684 65.1165 84.3114 66.2406 83.8406C69.7475 82.3679 72.4624 80.1764 74.3112 76.5935V76.5929Z" fill="#191919"/>
<path d="M81.8255 76.3794C81.102 76.0373 80.5833 77.131 81.3073 77.4731C84.4013 78.9376 86.4547 80.8256 87.9666 83.5955C88.3468 84.2915 89.413 83.7189 89.0293 83.0159C87.387 80.0068 85.1657 77.9597 81.8255 76.3794Z" fill="#191919"/>
<path d="M82.5332 87.4282C84.9955 84.8659 82.756 82.6527 80.192 85.3127C77.887 87.7048 79.903 90.1642 82.5332 87.4282Z" fill="#191919"/>
<path d="M67.8204 78.6478C70.3019 75.8954 67.9911 73.7366 65.4873 76.5148C63.0356 79.2361 65.3002 81.4434 67.8204 78.6478Z" fill="#191919"/>
<path d="M65.6326 72.001C70.5817 70.3663 73.03 73.6369 73.6798 73.6369C74.2489 73.6369 74.5015 72.9204 74.0623 72.5619C71.3462 70.3505 68.4639 69.7914 65.2524 70.8512C64.4927 71.1021 64.8711 72.2519 65.632 72.0005L65.6326 72.001Z" fill="#191919"/>
<path d="M68.6288 95.5224C68.4265 96.7026 68.2645 97.9092 67.379 98.6859C66.5994 99.3708 65.6296 99.1924 64.9933 98.4216C64.4856 97.8034 63.5493 98.5736 64.0599 99.1912C65.1547 100.519 66.9105 100.707 68.1773 99.5954C69.336 98.5789 69.5681 97.2056 69.8214 95.7282C69.8787 95.399 69.6576 95.0861 69.3283 95.0287C69.0002 94.9708 68.6856 95.1919 68.6288 95.5218V95.5224Z" fill="#191919"/>
<path d="M17.1526 158.368C17.0631 158.413 16.9795 158.463 16.8941 158.511C14.44 157.239 11.9666 156.113 9.54641 155.163C6.56768 157.724 11.8151 163.285 13.5159 165.835C10.2178 173.341 6.24834 182.03 3.43572 188.761C3.23101 189.253 3.9738 189.566 4.18084 189.073C7.10401 182.075 11.2969 172.925 14.7359 165.06C15.5875 163.395 16.4952 160.558 17.4369 159.13C18.0516 158.805 17.5971 158.145 17.152 158.367L17.1526 158.368Z" fill="#191919"/>
<path d="M37.3418 174.05C39.1806 176.163 40.7984 178.409 42.1611 180.758C42.305 181.175 42.5711 181.998 42.6577 182.427C42.7629 182.954 43.5543 182.794 43.449 182.269C43.3577 181.809 43.1051 181.034 42.9542 180.589C43.5595 171.982 45.1673 164.373 47.5688 156.158C45.0445 162.984 41.2616 169.326 37.3424 174.049L37.3418 174.05Z" fill="#191919"/>
<path d="M205.127 188.79L180.599 188.608C167.263 174.919 178.187 186.735 150.314 158.149L143.43 151.086C142.055 149.68 140.087 147.134 138.202 144.923C138.988 143.78 139.559 142.141 139.737 140.746C140.367 140.583 140.329 139.712 139.721 139.576C127.823 136.918 111.998 144.313 103.878 154.402C101.819 156.96 100.568 159.824 100.219 162.601C96.9001 153.633 95.2894 145.823 96.8621 136.472L95.6678 136.271C93.8652 146.988 96.1094 155.677 100.313 166.226C101.16 166.441 105.405 169.298 111.215 165.929C115.891 170.103 128.934 181.867 135.474 188.273L58.8404 187.706C57.9854 187.764 58.0784 188.911 58.8311 188.917C59.3697 188.921 205.242 190 205.123 190C205.921 190 205.925 188.795 205.127 188.789L205.127 188.79ZM103.945 158.05C103.744 157.746 103.601 157.419 103.493 157.073C107.876 149.896 120.051 141.288 132.545 140.37C136.554 143.505 140.115 148.849 142.853 151.65L149.736 158.713C177.327 187.009 166.744 175.568 179.463 188.6L136.644 188.283C126.262 178.05 114.017 167.698 103.945 158.05V158.05Z" fill="#191919"/>
<path d="M120.065 125.47C119.306 125.695 119.633 126.863 120.41 126.631C129 124.081 135.28 117.015 136.785 111.579C139.971 109.86 141.721 106.299 142.724 102.816C144.894 95.277 144.374 86.9731 141.262 79.4336C140.957 78.6931 139.837 79.1546 140.143 79.895C143.151 87.1831 143.655 95.2045 141.561 102.481C140.76 105.265 139.439 108.21 137.107 109.946C137.795 103.826 131.899 100.789 128.633 103.053C125.836 104.989 126.333 109.704 129.148 111.59C131.012 112.839 133.302 112.873 135.307 112.215C133.402 117.305 127.576 123.241 120.066 125.47H120.065ZM129.822 110.585C127.71 109.17 127.243 105.486 129.321 104.048C131.776 102.348 137.056 104.838 135.746 110.75C133.888 111.606 131.604 111.779 129.822 110.585Z" fill="#191919"/>
<path d="M66.1514 43.197C68.0475 43.197 69.591 41.6541 69.591 39.7574V23.5255C69.591 21.6294 68.0481 20.0859 66.1514 20.0859H4.16421C2.26807 20.0859 0.724609 21.6288 0.724609 23.5255V39.7574C0.724609 41.6535 2.26749 43.197 4.16421 43.197H66.152H66.1514ZM1.93528 39.758V23.5261C1.93528 22.2973 2.93541 21.2972 4.16421 21.2972H66.152C67.3808 21.2972 68.3809 22.2973 68.3809 23.5261V39.758C68.3809 40.9868 67.3808 41.9869 66.152 41.9869H4.16421C2.93541 41.9869 1.93528 40.9868 1.93528 39.758Z" fill="#191919"/>
<path d="M32.0184 55.4916L25.6387 61.108C24.1607 59.764 23.6905 59.4347 22.1137 57.9802C21.5259 57.4374 20.7036 58.327 21.2931 58.8698C22.9857 60.4314 23.556 60.8302 25.2205 62.3661C25.4504 62.5784 25.8013 62.5784 26.0306 62.3755L32.8179 56.3999C33.0689 56.1794 33.0934 55.7963 32.8723 55.546C32.6507 55.2945 32.2688 55.2705 32.0184 55.4916Z" fill="#191919"/>
<path d="M69.7829 17.2987V14.6334C69.7829 13.8328 68.5723 13.8322 68.5723 14.6334V17.2987C68.5723 18.0994 69.7829 18.1 69.7829 17.2987Z" fill="#191919"/>
<path d="M72.6059 18.7714L74.8991 16.1132C75.422 15.5061 74.5044 14.716 73.9821 15.323L71.6894 17.9813C71.1659 18.5872 72.083 19.3779 72.6059 18.7714Z" fill="#191919"/>
<path d="M74.1974 22.3856L76.8656 22.0195C77.6587 21.9101 77.4943 20.7117 76.7012 20.8199L74.0331 21.186C73.2447 21.2948 73.3973 22.4868 74.1974 22.3856Z" fill="#191919"/>
</svg>
