<svg width="30" height="30" viewBox="0 0 30 30" fill="none" xmlns="http://www.w3.org/2000/svg">
<path d="M11.2461 12.5C12.6268 12.5 13.7461 11.3807 13.7461 10C13.7461 8.61929 12.6268 7.5 11.2461 7.5C9.86538 7.5 8.74609 8.61929 8.74609 10C8.74609 11.3807 9.86538 12.5 11.2461 12.5Z" stroke="#191919" stroke-width="2" stroke-linecap="round" stroke-linejoin="round"/>
<path d="M16.2539 2.50073H11.2539C5.00391 2.50073 2.50391 5.00073 2.50391 11.2507V18.7507C2.50391 25.0007 5.00391 27.5007 11.2539 27.5007H18.7539C25.0039 27.5007 27.5039 25.0007 27.5039 18.7507V12.5007" stroke="#191919" stroke-width="2" stroke-linecap="round" stroke-linejoin="round"/>
<path d="M19.6875 6.25073H26.5625" stroke="#191919" stroke-width="2" stroke-linecap="round"/>
<path d="M23.1289 9.6875V2.8125" stroke="#191919" stroke-width="2" stroke-linecap="round"/>
<path d="M3.33789 23.6882L9.50039 19.5507C10.4879 18.8882 11.9129 18.9632 12.8004 19.7257L13.2129 20.0882C14.1879 20.9257 15.7629 20.9257 16.7379 20.0882L21.9379 15.6257C22.9129 14.7882 24.4879 14.7882 25.4629 15.6257L27.5004 17.3757" stroke="#191919" stroke-width="2" stroke-linecap="round" stroke-linejoin="round"/>
</svg>
