<svg width="68" height="68" viewBox="0 0 68 68" fill="none" xmlns="http://www.w3.org/2000/svg">
<path d="M38.2096 18.7247C36.7563 18.3289 35.2578 18.1395 33.7593 18.1649C32.4247 18.1847 31.0958 18.3713 29.8037 18.7275V9.35337C31.1694 9.11873 32.5717 9 34.0052 9C35.4387 9 36.844 9.12156 38.2096 9.35337V18.7247Z" fill="#FFB400"/>
<path d="M58.6496 38.1994H49.2908C49.6442 36.9103 49.828 35.5817 49.8478 34.2502C49.8733 32.7547 49.6838 31.2508 49.2852 29.7949H58.6496C58.8842 31.1603 59.0001 32.5653 59.0001 33.9986C59.0001 35.4318 58.8814 36.834 58.6496 38.1994Z" fill="#FFB400"/>
<path d="M26.1742 20.2229C24.8651 20.9721 23.6719 21.8965 22.6314 22.9735C21.7012 23.9319 20.8954 25.0033 20.231 26.168L13.6035 19.5416C14.4037 18.408 15.3113 17.3338 16.3235 16.3218C17.3357 15.3097 18.4158 14.4023 19.5439 13.5994L26.1714 20.2258L26.1742 20.2229Z" fill="#FFB400"/>
<path d="M18.7263 29.7977C18.3305 31.2508 18.141 32.749 18.1665 34.2473C18.1863 35.5816 18.3729 36.9103 18.7291 38.2022H9.35343C9.11875 36.8368 9 35.4346 9 34.0014C9 32.5681 9.12158 31.1631 9.35343 29.7977H18.7263Z" fill="#FFB400"/>
<path d="M54.4106 19.5445L47.786 26.168C47.0989 24.9609 46.2422 23.8273 45.2131 22.7983C44.1839 21.7692 43.0501 20.9127 41.8428 20.2257L48.4674 13.6022C49.5984 14.4023 50.6756 15.3097 51.6878 16.3246C52.7 17.3366 53.6105 18.4137 54.4106 19.5445Z" fill="#FFB400"/>
<path d="M39.8526 33.9958C39.8526 37.2241 37.2344 39.8391 34.0083 39.8391C30.7822 39.8391 28.1641 37.2241 28.1641 33.9986C28.1641 32.4127 28.7917 30.9823 29.8153 29.9335C30.8784 28.8366 32.3656 28.1553 34.0112 28.1553C35.6567 28.1553 37.1439 28.8366 38.207 29.9335C39.2277 30.9851 39.8582 32.4155 39.8582 33.9986L39.8526 33.9958Z" fill="#007BD1"/>
<path d="M57.9791 57.8465L56.704 57.773L42.6348 57.3801L40.1467 58.2423C38.1646 58.7483 36.1459 58.9999 34.0083 58.9999C32.2751 58.9999 30.5787 58.8218 28.9416 58.4883C24.5648 57.5865 20.6092 55.5482 17.3916 52.6846C17.3662 52.6591 17.3379 52.6365 17.3125 52.6111C16.3031 51.7093 15.3615 50.7198 14.4879 49.6315C13.5916 48.5092 12.8084 47.3417 12.1326 46.1289L12.1411 46.1204C11.9771 45.8236 11.8216 45.5239 11.6689 45.2243L19.2181 39.6722C19.761 41.0772 20.499 42.3973 21.4066 43.5847C22.2152 44.6476 23.1454 45.6059 24.1944 46.4427C24.3612 46.5756 24.5252 46.7028 24.7033 46.8328C27.3159 48.7297 30.5334 49.852 34.0055 49.852C37.7603 49.852 41.2098 48.5459 43.9241 46.3635L43.9184 46.3579C45.0918 45.4109 46.1266 44.314 46.9777 43.0815C47.7411 41.9874 48.3716 40.8058 48.8466 39.5478L48.8551 39.5563L56.4382 45.0405C55.8275 46.2815 55.1037 47.4887 54.2611 48.6505C53.9557 49.0746 53.6391 49.4873 53.3111 49.8859C53.2913 49.9113 53.2715 49.934 53.2517 49.9594C53.1641 50.0668 53.0708 50.1771 52.9746 50.2845C52.5053 50.8301 52.019 51.3474 51.51 51.845C51.4902 51.8647 51.4704 51.8902 51.445 51.91L57.9735 57.8465H57.9791Z" fill="#007BD1"/>
</svg>
